<svg xmlns="http://www.w3.org/2000/svg" viewBox="0 0 1920 1244.03"><defs><style>.cls-1{fill:#fff;}.cls-2{fill:#f4f4f8;}</style></defs><title>Recurso 2</title><g id="Capa_2" data-name="Capa 2"><g id="Capa_1-2" data-name="Capa 1"><path class="cls-1" d="M1920,0H0V1244H204.38c-27.19-.53-52.44-8.83-76.21-22.55Q66.76,1186,5.32,1150.56c-1.7-1-3.54-1.71-5.32-2.56Q0,581.25,0,14.5A21.92,21.92,0,0,1,1,10a45.08,45.08,0,0,0,3.92,2.86Q225.71,140.33,446.51,267.77c60.84,35.13,122.06,69.61,182.28,105.76,36.25,21.77,58.81,54.94,69.05,96.05,2.48,9.95,3.48,20.27,5.16,30.42v19a14,14,0,0,0-.82,2.81c-1.91,25.24-10.33,48.33-22.9,70.09Q545.65,823.26,412,1054.63c-22.32,38.62-43.59,77.92-67.44,115.58-30.12,47.58-75.09,71.22-131.16,73.68-1.21.06-2.41.09-3.61.11H1920Z"/><path class="cls-2" d="M209.82,1244h-5.44C206.19,1244,208,1244,209.82,1244Z"/><path class="cls-2" d="M344.59,1170.21c23.85-37.66,45.12-77,67.44-115.58Q545.69,823.27,679.28,591.9c12.57-21.76,21-44.85,22.9-70.09A14,14,0,0,1,703,519V500c-1.68-10.15-2.68-20.47-5.16-30.42-10.24-41.11-32.8-74.28-69.05-96.05-60.22-36.15-121.44-70.63-182.28-105.76Q225.73,140.3,4.92,12.86A45.08,45.08,0,0,1,1,10a21.92,21.92,0,0,0-1,4.5Q0,581.25,0,1148c1.78.85,3.62,1.58,5.32,2.56q61.44,35.42,122.85,70.89c23.77,13.72,49,22,76.21,22.55h5.44c1.2,0,2.4,0,3.61-.11C269.5,1241.43,314.47,1217.79,344.59,1170.21Z"/></g></g></svg>