<svg xmlns="http://www.w3.org/2000/svg" xmlns:xlink="http://www.w3.org/1999/xlink" width="1920.001" height="858" viewBox="0 0 1920.001 858">
  <defs>
    <linearGradient id="linear-gradient" x2="1" y2="0.069" gradientUnits="objectBoundingBox">
      <stop offset="0" stop-color="#6a11cb"/>
      <stop offset="1" stop-color="#2575fc"/>
    </linearGradient>
    <linearGradient id="linear-gradient-3" x1="0.327" y1="0.769" x2="0.807" y2="0.984" xlink:href="#linear-gradient"/>
  </defs>
  <g id="Grupo_13" data-name="Grupo 13" transform="translate(0 0)">
    <g id="Intersección_1" data-name="Intersección 1" transform="translate(813.5 -6608)" opacity="0.2" fill="url(#linear-gradient)">
      <path d="M 905.3886108398438 7465.5 L -812.9996948242188 7465.5 L -812.9996948242188 6608.49951171875 L 1106.000732421875 6608.49951171875 L 1106.000732421875 7203.9140625 L 1054.836181640625 7357.7158203125 C 1049.5703125 7373.5458984375 1041.883911132813 7388.34716796875 1031.9912109375 7401.708984375 C 1022.321228027344 7414.76904296875 1010.723388671875 7426.22021484375 997.5193481445313 7435.74267578125 C 984.3154907226563 7445.26611328125 969.789306640625 7452.65625 954.3442993164063 7457.70947265625 C 938.5431518554688 7462.87890625 922.0719604492188 7465.5 905.3886108398438 7465.5 Z" stroke="none"/>
      <path d="M 905.3886108398438 7465 C 922.0191040039063 7465 938.4379272460938 7462.38720703125 954.1888427734375 7457.234375 C 969.5847778320313 7452.197265625 984.0648193359375 7444.830078125 997.2269287109375 7435.33740234375 C 1010.389099121094 7425.8447265625 1021.950256347656 7414.43017578125 1031.58935546875 7401.41162109375 C 1041.450561523438 7388.09228515625 1049.112426757813 7373.337890625 1054.361938476563 7357.5576171875 L 1105.500732421875 7203.83349609375 L 1105.500732421875 6608.99951171875 L -812.4996948242188 6608.99951171875 L -812.4996948242188 7465 L 905.3886108398438 7465 M 905.3886108398438 7466 L -813.4996948242188 7466 L -813.4996948242188 6607.99951171875 L 1106.500732421875 6607.99951171875 L 1106.500732421875 7203.9951171875 L 1055.310791015625 7357.87353515625 C 1033.832397460938 7422.43798828125 973.4329223632813 7466 905.3886108398438 7466 Z" stroke="none" fill="#707070"/>
    </g>
    <g id="Intersección_2" data-name="Intersección 2" transform="translate(801.5 -6628)" opacity="0.2" fill="url(#linear-gradient)">
      <path d="M 905.3886108398438 7465.5009765625 L -800.9999389648438 7465.5009765625 L -800.9999389648438 6628.50048828125 L 1117.999633789063 6628.50048828125 L 1117.999633789063 7167.84326171875 L 1054.835815429688 7357.71630859375 C 1049.56982421875 7373.54638671875 1041.883666992188 7388.34765625 1031.990966796875 7401.70947265625 C 1022.321228027344 7414.77001953125 1010.723388671875 7426.220703125 997.5193481445313 7435.74365234375 C 984.3155517578125 7445.2666015625 969.7893676757813 7452.6572265625 954.3443603515625 7457.71044921875 C 938.5431518554688 7462.8798828125 922.0719604492188 7465.5009765625 905.3886108398438 7465.5009765625 Z" stroke="none"/>
      <path d="M 905.3886108398438 7465.0009765625 C 922.0191040039063 7465.0009765625 938.4379272460938 7462.38818359375 954.1888427734375 7457.23486328125 C 969.5848388671875 7452.1982421875 984.0648193359375 7444.8310546875 997.2269897460938 7435.337890625 C 1010.388854980469 7425.84521484375 1021.950073242188 7414.43115234375 1031.589111328125 7401.412109375 C 1041.450317382813 7388.0927734375 1049.111938476563 7373.33837890625 1054.361450195313 7357.55859375 L 1117.499633789063 7167.7626953125 L 1117.499633789063 6629.00048828125 L -800.4999389648438 6629.00048828125 L -800.4999389648438 7465.0009765625 L 905.3886108398438 7465.0009765625 M 905.3886108398438 7466.0009765625 L -801.4999389648438 7466.0009765625 L -801.4999389648438 6628.00048828125 L 1118.499633789063 6628.00048828125 L 1118.499633789063 7167.92431640625 L 1055.310302734375 7357.8740234375 C 1033.832397460938 7422.4384765625 973.4329223632813 7466.0009765625 905.3886108398438 7466.0009765625 Z" stroke="none" fill="#707070"/>
    </g>
    <g id="Intersección_3" data-name="Intersección 3" transform="translate(789.5 -6652)" fill="url(#linear-gradient-3)">
      <path d="M 905.3888549804688 7465.5009765625 L -789.0004272460938 7465.5009765625 L -789.0004272460938 6652.50048828125 L 1129.999145507813 6652.50048828125 L 1129.999145507813 7131.77294921875 L 1054.8359375 7357.71630859375 C 1049.5703125 7373.54638671875 1041.88427734375 7388.34765625 1031.991455078125 7401.70947265625 C 1022.321716308594 7414.77001953125 1010.723876953125 7426.220703125 997.519775390625 7435.74365234375 C 984.3157348632813 7445.2666015625 969.78955078125 7452.6572265625 954.3442993164063 7457.71044921875 C 938.5431518554688 7462.8798828125 922.0722045898438 7465.5009765625 905.3888549804688 7465.5009765625 Z" stroke="none"/>
      <path d="M 905.3888549804688 7465.0009765625 C 922.0193481445313 7465.0009765625 938.4379272460938 7462.38818359375 954.1888427734375 7457.23486328125 C 969.5850219726563 7452.1982421875 984.0650634765625 7444.8310546875 997.2274169921875 7435.337890625 C 1010.389587402344 7425.84521484375 1021.950744628906 7414.43115234375 1031.589599609375 7401.412109375 C 1041.451049804688 7388.0927734375 1049.112670898438 7373.33837890625 1054.361694335938 7357.55859375 L 1129.499145507813 7131.6923828125 L 1129.499145507813 6653.00048828125 L -788.5004272460938 6653.00048828125 L -788.5004272460938 7465.0009765625 L 905.3888549804688 7465.0009765625 M 905.3888549804688 7466.0009765625 L -789.5004272460938 7466.0009765625 L -789.5004272460938 6652.00048828125 L 1130.499145507813 6652.00048828125 L 1130.499145507813 7131.85400390625 L 1055.310546875 7357.8740234375 C 1033.833618164063 7422.4384765625 973.4326782226563 7466.0009765625 905.3888549804688 7466.0009765625 Z" stroke="none" fill="#707070"/>
    </g>
  </g>
</svg>
