<svg xmlns="http://www.w3.org/2000/svg" width="27.022" height="19" viewBox="0 0 27.022 19">
  <g id="mail" transform="translate(0 -76)">
    <g id="Grupo_20" data-name="Grupo 20" transform="translate(0 76)">
      <path id="Trazado_618" data-name="Trazado 618" d="M24.647,76H2.375A2.379,2.379,0,0,0,0,78.375v14.25A2.379,2.379,0,0,0,2.375,95H24.647a2.378,2.378,0,0,0,2.375-2.375V78.375A2.377,2.377,0,0,0,24.647,76Zm-.333,1.583L15.19,86.659a2.375,2.375,0,0,1-3.36,0L2.708,77.583ZM1.583,92.3V78.7L8.425,85.5Zm1.125,1.114,6.839-6.8,1.164,1.158a3.958,3.958,0,0,0,5.6,0l1.166-1.16,6.839,6.8ZM25.439,92.3,18.6,85.5,25.439,78.7Z" transform="translate(0 -76)" fill="#fff"/>
    </g>
  </g>
</svg>
