<?xml version="1.0" encoding="utf-8" standalone="no"?>
<!DOCTYPE svg PUBLIC "-//W3C//DTD SVG 1.1//EN"
  "http://www.w3.org/Graphics/SVG/1.1/DTD/svg11.dtd">
<!-- Created with matplotlib (https://matplotlib.org/) -->
<svg height="288pt" version="1.1" viewBox="0 0 576 288" width="576pt" xmlns="http://www.w3.org/2000/svg" xmlns:xlink="http://www.w3.org/1999/xlink">
 <defs>
  <style type="text/css">
*{stroke-linecap:butt;stroke-linejoin:round;}
  </style>
 </defs>
 <g id="figure_1">
  <g id="patch_1">
   <path d="M 0 288 
L 576 288 
L 576 0 
L 0 0 
z
" style="fill:#ffffff;"/>
  </g>
  <g id="axes_1">
   <g id="patch_2">
    <path d="M 72 189.792 
L 274.909091 189.792 
L 274.909091 34.56 
L 72 34.56 
z
" style="fill:#ffffff;"/>
   </g>
   <g id="PathCollection_1">
    <path clip-path="url(#p0b9812fb89)" d="M 272.080231 185.463661 
L 273.093091 189.792 
L 274.909091 189.792 
M 172.885807 35.430207 
L 177.589781 40.887177 
L 173.454545 34.56 
M 78.513505 189.792 
L 73.22578 187.916478 
L 72 189.792 
" style="fill:#040314;"/>
   </g>
   <g id="PathCollection_2">
    <path clip-path="url(#p0b9812fb89)" d="M 267.98088 179.191391 
L 270.461495 189.792 
L 273.093091 189.792 
L 272.080231 185.463661 
M 177.589781 40.887177 
L 172.885807 35.430207 
L 172.061637 36.69124 
L 183.582221 50.055997 
M 73.22578 187.916478 
L 78.513505 189.792 
L 87.952337 189.792 
L 75.002078 185.198627 
" style="fill:#190c3e;"/>
   </g>
   <g id="PathCollection_3">
    <path clip-path="url(#p0b9812fb89)" d="M 262.949637 171.493264 
L 264.20538 174.2688 
L 264.346661 174.9068 
L 267.829898 189.792 
L 270.461495 189.792 
L 267.98088 179.191391 
L 264.763636 174.2688 
M 183.582221 50.055997 
L 172.061637 36.69124 
L 171.237468 37.952272 
L 181.694476 50.0832 
L 182.712819 51.440644 
L 191.821017 62.661887 
L 183.6 50.0832 
M 75.002078 185.198627 
L 87.952337 189.792 
L 92.290909 189.792 
L 98.298305 189.792 
L 93.306227 188.238498 
L 90.751796 187.437057 
L 76.778376 182.480776 
" style="fill:#380962;"/>
   </g>
   <g id="PathCollection_4">
    <path clip-path="url(#p0b9812fb89)" d="M 254.421021 158.443931 
L 254.588512 158.7456 
L 254.600248 158.77304 
L 261.611032 174.2688 
L 262.408878 177.871732 
L 265.198302 189.792 
L 267.829898 189.792 
L 264.346661 174.9068 
L 264.20538 174.2688 
L 262.949637 171.493264 
L 254.618182 158.7456 
M 191.821017 62.661887 
L 182.712819 51.440644 
L 181.694476 50.0832 
L 171.237468 37.952272 
L 170.413298 39.213304 
L 179.783281 50.0832 
L 181.822998 52.802128 
L 192.216129 65.6064 
L 193.010022 66.731659 
L 202.959602 79.704641 
L 193.745455 65.6064 
M 76.778376 182.480776 
L 90.751796 187.437057 
L 93.306227 188.238498 
L 98.298305 189.792 
L 109.415932 189.792 
L 95.185232 185.3635 
L 87.903425 183.078866 
L 78.554675 179.762925 
" style="fill:#550f6d;"/>
   </g>
   <g id="PathCollection_5">
    <path clip-path="url(#p0b9812fb89)" d="M 202.959602 79.704641 
L 193.010022 66.731659 
L 192.216129 65.6064 
L 181.822998 52.802128 
L 179.783281 50.0832 
L 170.413298 39.213304 
L 169.589129 40.474336 
L 177.872087 50.0832 
L 180.933176 54.163612 
L 190.221202 65.6064 
L 192.050689 68.199501 
L 201.967379 81.1296 
L 202.938789 82.586405 
L 213.162167 96.6528 
L 213.59222 97.332368 
L 223.832536 112.176 
L 223.999906 112.454337 
L 233.965199 127.6992 
L 234.133438 127.99578 
L 243.464784 143.2224 
L 243.910859 144.082094 
L 252.052281 158.7456 
L 253.067173 161.118744 
L 259.016684 174.2688 
L 260.471096 180.836664 
L 262.566705 189.792 
L 265.198302 189.792 
L 262.408878 177.871732 
L 261.611032 174.2688 
L 254.600248 158.77304 
L 254.588512 158.7456 
L 254.421021 158.443931 
L 244.472727 143.2224 
L 234.327273 127.6992 
L 224.181818 112.176 
L 214.036364 96.6528 
L 203.890909 81.1296 
M 78.554675 179.762925 
L 87.903425 183.078866 
L 95.185232 185.3635 
L 109.415932 189.792 
L 112.581818 189.792 
L 122.295796 189.792 
L 114.020131 187.591289 
L 110.551637 186.685691 
L 97.064237 182.488501 
L 85.055054 178.720675 
L 80.330973 177.045074 
" style="fill:#741a6e;"/>
   </g>
   <g id="PathCollection_6">
    <path clip-path="url(#p0b9812fb89)" d="M 168.76496 41.735369 
L 175.960892 50.0832 
L 180.043355 55.525096 
L 188.226274 65.6064 
L 191.091355 69.667344 
L 199.882289 81.1296 
L 201.906699 84.165569 
L 210.98235 96.6528 
L 212.484744 99.026879 
L 221.556051 112.176 
L 222.814277 114.268426 
L 231.593732 127.6992 
L 232.863881 129.938284 
L 241.004801 143.2224 
L 242.539565 146.180262 
L 249.516049 158.7456 
L 251.534097 163.464448 
L 256.422337 174.2688 
L 258.533314 183.801596 
L 259.935109 189.792 
L 262.566705 189.792 
L 260.471096 180.836664 
L 259.016684 174.2688 
L 253.067173 161.118744 
L 252.052281 158.7456 
L 243.910859 144.082094 
L 243.464784 143.2224 
L 234.133438 127.99578 
L 233.965199 127.6992 
L 223.999906 112.454337 
L 223.832536 112.176 
L 213.59222 97.332368 
L 213.162167 96.6528 
L 202.938789 82.586405 
L 201.967379 81.1296 
L 192.050689 68.199501 
L 190.221202 65.6064 
L 180.933176 54.163612 
L 177.872087 50.0832 
L 169.589129 40.474336 
M 80.330973 177.045074 
L 85.055054 178.720675 
L 97.064237 182.488501 
L 110.551637 186.685691 
L 114.020131 187.591289 
L 122.295796 189.792 
L 132.872727 189.792 
L 136.778319 189.792 
L 133.356438 189.051892 
L 132.240688 188.824939 
L 116.03109 184.514392 
L 107.713164 182.342645 
L 98.943241 179.613502 
L 82.206683 174.362483 
L 82.107271 174.327223 
" style="fill:#902568;"/>
   </g>
   <g id="PathCollection_7">
    <path clip-path="url(#p0b9812fb89)" d="M 167.94079 42.996401 
L 174.049697 50.0832 
L 179.153534 56.88658 
L 186.231347 65.6064 
L 190.132021 71.135187 
L 197.797199 81.1296 
L 200.87461 85.744733 
L 208.802532 96.6528 
L 211.377267 100.721389 
L 219.279567 112.176 
L 221.628648 116.082515 
L 229.222266 127.6992 
L 231.594324 131.880788 
L 238.544817 143.2224 
L 241.168272 148.27843 
L 246.979818 158.7456 
L 250.001022 165.810152 
L 253.827989 174.2688 
L 256.595531 186.766528 
L 257.303512 189.792 
L 259.935109 189.792 
L 258.533314 183.801596 
L 256.422337 174.2688 
L 251.534097 163.464448 
L 249.516049 158.7456 
L 242.539565 146.180262 
L 241.004801 143.2224 
L 232.863881 129.938284 
L 231.593732 127.6992 
L 222.814277 114.268426 
L 221.556051 112.176 
L 212.484744 99.026879 
L 210.98235 96.6528 
L 201.906699 84.165569 
L 199.882289 81.1296 
L 191.091355 69.667344 
L 188.226274 65.6064 
L 180.043355 55.525096 
L 175.960892 50.0832 
L 168.76496 41.735369 
M 82.107271 174.327223 
L 82.206683 174.362483 
L 98.943241 179.613502 
L 107.713164 182.342645 
L 116.03109 184.514392 
L 132.240688 188.824939 
L 133.356438 189.051892 
L 136.778319 189.792 
L 153.163636 189.792 
L 155.016664 189.792 
L 153.338217 189.52488 
L 152.954693 189.472303 
L 135.542959 185.706373 
L 129.383674 184.453524 
L 118.042049 181.437495 
L 104.874691 177.999598 
L 100.822246 176.738504 
L 92.950566 174.2688 
L 85.436148 169.233827 
L 82.145455 174.2688 
" style="fill:#ad305d;"/>
   </g>
   <g id="PathCollection_8">
    <path clip-path="url(#p0b9812fb89)" d="M 167.116621 44.257433 
L 172.138503 50.0832 
L 178.263713 58.248064 
L 184.236419 65.6064 
L 189.172687 72.603029 
L 195.712109 81.1296 
L 199.84252 87.323897 
L 206.622715 96.6528 
L 210.269791 102.4159 
L 217.003083 112.176 
L 220.443019 117.896605 
L 226.850799 127.6992 
L 230.324767 133.823292 
L 236.084834 143.2224 
L 239.796978 150.376599 
L 244.443586 158.7456 
L 248.467947 168.155856 
L 251.233642 174.2688 
L 254.657749 189.73146 
L 254.671916 189.792 
L 257.303512 189.792 
L 256.595531 186.766528 
L 253.827989 174.2688 
L 250.001022 165.810152 
L 246.979818 158.7456 
L 241.168272 148.27843 
L 238.544817 143.2224 
L 231.594324 131.880788 
L 229.222266 127.6992 
L 221.628648 116.082515 
L 219.279567 112.176 
L 211.377267 100.721389 
L 208.802532 96.6528 
L 200.87461 85.744733 
L 197.797199 81.1296 
L 190.132021 71.135187 
L 186.231347 65.6064 
L 179.153534 56.88658 
L 174.049697 50.0832 
L 167.94079 42.996401 
M 85.436148 169.233827 
L 92.950566 174.2688 
L 100.822246 176.738504 
L 104.874691 177.999598 
L 118.042049 181.437495 
L 129.383674 184.453524 
L 135.542959 185.706373 
L 152.954693 189.472303 
L 153.338217 189.52488 
L 155.016664 189.792 
L 173.454545 189.792 
L 187.423794 189.792 
L 174.243443 188.584937 
L 172.602667 188.488571 
L 155.766679 185.809177 
L 150.048239 185.025241 
L 137.729481 182.360854 
L 126.526661 180.082109 
L 120.053007 178.360599 
L 104.381168 174.2688 
L 102.950432 173.482242 
L 101.223557 172.413127 
L 88.799131 164.088246 
" style="fill:#c83f4b;"/>
   </g>
   <g id="PathCollection_9">
    <path clip-path="url(#p0b9812fb89)" d="M 166.292452 45.518466 
L 170.227308 50.0832 
L 177.373892 59.609548 
L 182.241492 65.6064 
L 188.213353 74.070872 
L 193.627018 81.1296 
L 198.81043 88.903061 
L 204.442897 96.6528 
L 209.162314 104.11041 
L 214.726598 112.176 
L 219.257389 119.710694 
L 224.479332 127.6992 
L 229.05521 135.765795 
L 233.62485 143.2224 
L 238.425684 152.474767 
L 241.907354 158.7456 
L 246.934872 170.50156 
L 248.639294 174.2688 
L 250.774469 183.910872 
L 238.126415 183.979067 
L 230.882027 184.520552 
L 217.099371 185.105401 
L 211.355456 185.690039 
L 196.575863 185.461293 
L 191.02402 185.628029 
L 177.014506 184.34503 
L 169.610376 183.910172 
L 158.195141 182.093474 
L 147.141784 180.578178 
L 139.916002 179.015335 
L 123.669647 175.710694 
L 122.063966 175.283702 
L 118.17683 174.2688 
L 106.597029 167.902713 
L 92.620391 159.249728 
L 92.162115 158.942664 
L 88.799131 164.088246 
L 101.223557 172.413127 
L 102.950432 173.482242 
L 104.381168 174.2688 
L 120.053007 178.360599 
L 126.526661 180.082109 
L 137.729481 182.360854 
L 150.048239 185.025241 
L 155.766679 185.809177 
L 172.602667 188.488571 
L 174.243443 188.584937 
L 187.423794 189.792 
L 193.745455 189.792 
L 214.036364 189.792 
L 234.327273 189.792 
L 254.618182 189.792 
L 254.671916 189.792 
L 254.657749 189.73146 
L 251.233642 174.2688 
L 248.467947 168.155856 
L 244.443586 158.7456 
L 239.796978 150.376599 
L 236.084834 143.2224 
L 230.324767 133.823292 
L 226.850799 127.6992 
L 220.443019 117.896605 
L 217.003083 112.176 
L 210.269791 102.4159 
L 206.622715 96.6528 
L 199.84252 87.323897 
L 195.712109 81.1296 
L 189.172687 72.603029 
L 184.236419 65.6064 
L 178.263713 58.248064 
L 172.138503 50.0832 
L 167.116621 44.257433 
" style="fill:#df5337;"/>
   </g>
   <g id="PathCollection_10">
    <path clip-path="url(#p0b9812fb89)" d="M 165.468282 46.779498 
L 168.316114 50.0832 
L 176.48407 60.971032 
L 180.246564 65.6064 
L 187.254019 75.538715 
L 191.541928 81.1296 
L 197.77834 90.482225 
L 202.26308 96.6528 
L 208.054838 105.80492 
L 212.450114 112.176 
L 218.07176 121.524783 
L 222.107866 127.6992 
L 227.785654 137.708299 
L 231.164866 143.2224 
L 237.05439 154.572935 
L 239.371123 158.7456 
L 245.401797 172.847263 
L 246.044946 174.2688 
L 246.850637 177.907155 
L 242.077999 177.932888 
L 227.298539 179.037584 
L 220.887292 179.309637 
L 208.040065 180.617276 
L 199.824853 180.490128 
L 187.900119 180.848259 
L 179.78557 180.105124 
L 166.618084 179.331773 
L 160.623602 178.377771 
L 144.23533 176.131115 
L 142.102523 175.669817 
L 135.214814 174.2688 
L 125.451764 170.100152 
L 117.542535 166.335817 
L 110.243627 162.323184 
L 104.464974 158.7456 
L 98.024471 149.97288 
L 92.290909 158.7456 
L 92.162115 158.942664 
L 92.620391 159.249728 
L 106.597029 167.902713 
L 118.17683 174.2688 
L 122.063966 175.283702 
L 123.669647 175.710694 
L 139.916002 179.015335 
L 147.141784 180.578178 
L 158.195141 182.093474 
L 169.610376 183.910172 
L 177.014506 184.34503 
L 191.02402 185.628029 
L 196.575863 185.461293 
L 211.355456 185.690039 
L 217.099371 185.105401 
L 230.882027 184.520552 
L 238.126415 183.979067 
L 250.774469 183.910872 
L 248.639294 174.2688 
L 246.934872 170.50156 
L 241.907354 158.7456 
L 238.425684 152.474767 
L 233.62485 143.2224 
L 229.05521 135.765795 
L 224.479332 127.6992 
L 219.257389 119.710694 
L 214.726598 112.176 
L 209.162314 104.11041 
L 204.442897 96.6528 
L 198.81043 88.903061 
L 193.627018 81.1296 
L 188.213353 74.070872 
L 182.241492 65.6064 
L 177.373892 59.609548 
L 170.227308 50.0832 
L 166.292452 45.518466 
" style="fill:#ef6e21;"/>
   </g>
   <g id="PathCollection_11">
    <path clip-path="url(#p0b9812fb89)" d="M 164.644113 48.04053 
L 166.404919 50.0832 
L 175.594249 62.332515 
L 178.251637 65.6064 
L 186.294686 77.006557 
L 189.456838 81.1296 
L 196.74625 92.061389 
L 200.083262 96.6528 
L 206.947361 107.499431 
L 210.17363 112.176 
L 216.886131 123.338872 
L 219.736399 127.6992 
L 226.516097 139.650803 
L 228.704883 143.2224 
L 235.683096 156.671103 
L 236.834891 158.7456 
L 241.58191 169.845664 
L 225.362807 172.46181 
L 223.262626 172.862377 
L 217.258247 174.2688 
L 204.724674 175.544514 
L 203.073843 175.518964 
L 184.776218 176.068489 
L 182.556633 175.865218 
L 163.625793 174.753374 
L 163.052064 174.662067 
L 160.183368 174.2688 
L 145.757258 170.077836 
L 138.825914 167.854359 
L 129.517235 163.879719 
L 118.729958 158.7456 
L 115.018472 155.017362 
L 106.217627 143.2224 
L 105.16704 139.044289 
L 102.436364 143.2224 
L 98.024471 149.97288 
L 104.464974 158.7456 
L 110.243627 162.323184 
L 117.542535 166.335817 
L 125.451764 170.100152 
L 135.214814 174.2688 
L 142.102523 175.669817 
L 144.23533 176.131115 
L 160.623602 178.377771 
L 166.618084 179.331773 
L 179.78557 180.105124 
L 187.900119 180.848259 
L 199.824853 180.490128 
L 208.040065 180.617276 
L 220.887292 179.309637 
L 227.298539 179.037584 
L 242.077999 177.932888 
L 246.850637 177.907155 
L 246.044946 174.2688 
L 245.401797 172.847263 
L 239.371123 158.7456 
L 237.05439 154.572935 
L 231.164866 143.2224 
L 227.785654 137.708299 
L 222.107866 127.6992 
L 218.07176 121.524783 
L 212.450114 112.176 
L 208.054838 105.80492 
L 202.26308 96.6528 
L 197.77834 90.482225 
L 191.541928 81.1296 
L 187.254019 75.538715 
L 180.246564 65.6064 
L 176.48407 60.971032 
L 168.316114 50.0832 
L 165.468282 46.779498 
" style="fill:#f98c0a;"/>
   </g>
   <g id="PathCollection_12">
    <path clip-path="url(#p0b9812fb89)" d="M 163.819944 49.301562 
L 164.493725 50.0832 
L 174.704428 63.693999 
L 176.256709 65.6064 
L 185.335352 78.4744 
L 187.371747 81.1296 
L 195.71416 93.640553 
L 197.903444 96.6528 
L 205.839885 109.193941 
L 207.897146 112.176 
L 215.700502 125.152961 
L 217.364932 127.6992 
L 225.24654 141.593307 
L 226.244899 143.2224 
L 234.192605 158.53955 
L 233.608978 158.7456 
L 216.205753 162.064905 
L 211.082702 163.264892 
L 198.754108 166.409162 
L 188.274032 167.11723 
L 179.352819 167.770339 
L 168.4634 166.382374 
L 157.120112 164.799263 
L 150.469843 162.867277 
L 137.621155 158.7456 
L 134.31595 156.537376 
L 127.153142 149.994266 
L 121.809558 144.626563 
L 120.761838 143.2224 
L 119.532819 138.334679 
L 117.603512 127.6992 
L 118.752662 118.257411 
L 112.581818 127.6992 
L 105.16704 139.044289 
L 106.217627 143.2224 
L 115.018472 155.017362 
L 118.729958 158.7456 
L 129.517235 163.879719 
L 138.825914 167.854359 
L 145.757258 170.077836 
L 160.183368 174.2688 
L 163.052064 174.662067 
L 163.625793 174.753374 
L 182.556633 175.865218 
L 184.776218 176.068489 
L 203.073843 175.518964 
L 204.724674 175.544514 
L 217.258247 174.2688 
L 223.262626 172.862377 
L 225.362807 172.46181 
L 241.58191 169.845664 
L 236.834891 158.7456 
L 235.683096 156.671103 
L 228.704883 143.2224 
L 226.516097 139.650803 
L 219.736399 127.6992 
L 216.886131 123.338872 
L 210.17363 112.176 
L 206.947361 107.499431 
L 200.083262 96.6528 
L 196.74625 92.061389 
L 189.456838 81.1296 
L 186.294686 77.006557 
L 178.251637 65.6064 
L 175.594249 62.332515 
L 166.404919 50.0832 
L 164.644113 48.04053 
" style="fill:#fcb014;"/>
   </g>
   <g id="PathCollection_13">
    <path clip-path="url(#p0b9812fb89)" d="M 118.752662 118.257411 
L 117.603512 127.6992 
L 119.532819 138.334679 
L 120.761838 143.2224 
L 121.809558 144.626563 
L 127.153142 149.994266 
L 134.31595 156.537376 
L 137.621155 158.7456 
L 150.469843 162.867277 
L 157.120112 164.799263 
L 168.4634 166.382374 
L 179.352819 167.770339 
L 188.274032 167.11723 
L 198.754108 166.409162 
L 211.082702 163.264892 
L 216.205753 162.064905 
L 233.608978 158.7456 
L 234.192605 158.53955 
L 226.244899 143.2224 
L 225.24654 141.593307 
L 217.364932 127.6992 
L 215.700502 125.152961 
L 207.897146 112.176 
L 205.839885 109.193941 
L 197.903444 96.6528 
L 195.71416 93.640553 
L 187.371747 81.1296 
L 185.335352 78.4744 
L 176.256709 65.6064 
L 174.704428 63.693999 
L 164.493725 50.0832 
L 163.819944 49.301562 
L 163.309091 50.0832 
L 153.163636 65.6064 
L 143.018182 81.1296 
L 132.872727 96.6528 
L 122.727273 112.176 
M 173.814607 65.055483 
L 174.261782 65.6064 
L 184.376018 79.942243 
L 185.286657 81.1296 
L 194.68207 95.219717 
L 195.723627 96.6528 
L 204.732408 110.888452 
L 205.620661 112.176 
L 214.514873 126.967051 
L 214.993465 127.6992 
L 221.284304 138.789016 
L 211.591674 143.2224 
L 205.156233 145.158427 
L 201.176433 147.375723 
L 189.924803 152.899756 
L 175.795504 155.163783 
L 171.245956 155.366316 
L 157.937253 151.441659 
L 144.135338 144.931721 
L 142.580116 143.892669 
L 141.846366 143.2224 
L 139.63392 138.044261 
L 136.142084 127.6992 
L 136.800248 121.68984 
L 139.540636 112.176 
L 141.017714 109.115155 
L 150.099088 96.6528 
L 151.810412 94.582279 
L 162.724816 81.1296 
L 163.042382 80.721518 
L 166.995214 65.6064 
L 168.223562 57.602658 
" style="fill:#f7d340;"/>
   </g>
   <g id="PathCollection_14">
    <path clip-path="url(#p0b9812fb89)" d="M 168.223562 57.602658 
L 166.995214 65.6064 
L 163.042382 80.721518 
L 162.724816 81.1296 
L 151.810412 94.582279 
L 150.099088 96.6528 
L 141.017714 109.115155 
L 139.540636 112.176 
L 136.800248 121.68984 
L 136.142084 127.6992 
L 139.63392 138.044261 
L 141.846366 143.2224 
L 142.580116 143.892669 
L 144.135338 144.931721 
L 157.937253 151.441659 
L 171.245956 155.366316 
L 175.795504 155.163783 
L 189.924803 152.899756 
L 201.176433 147.375723 
L 205.156233 145.158427 
L 211.591674 143.2224 
L 221.284304 138.789016 
L 214.993465 127.6992 
L 214.514873 126.967051 
L 205.620661 112.176 
L 204.732408 110.888452 
L 195.723627 96.6528 
L 194.68207 95.219717 
L 185.286657 81.1296 
L 184.376018 79.942243 
L 174.261782 65.6064 
L 173.814607 65.055483 
" style="fill:#f2f482;"/>
   </g>
   <g id="matplotlib.axis_1">
    <g id="xtick_1">
     <g id="line2d_1">
      <defs>
       <path d="M 0 0 
L 0 3.5 
" id="md1b56e8aef" style="stroke:#000000;stroke-width:0.8;"/>
      </defs>
      <g>
       <use style="stroke:#000000;stroke-width:0.8;" x="72" xlink:href="#md1b56e8aef" y="189.792"/>
      </g>
     </g>
     <g id="text_1">
      <!-- 0.0 -->
      <defs>
       <path d="M 31.78125 66.40625 
Q 24.171875 66.40625 20.328125 58.90625 
Q 16.5 51.421875 16.5 36.375 
Q 16.5 21.390625 20.328125 13.890625 
Q 24.171875 6.390625 31.78125 6.390625 
Q 39.453125 6.390625 43.28125 13.890625 
Q 47.125 21.390625 47.125 36.375 
Q 47.125 51.421875 43.28125 58.90625 
Q 39.453125 66.40625 31.78125 66.40625 
z
M 31.78125 74.21875 
Q 44.046875 74.21875 50.515625 64.515625 
Q 56.984375 54.828125 56.984375 36.375 
Q 56.984375 17.96875 50.515625 8.265625 
Q 44.046875 -1.421875 31.78125 -1.421875 
Q 19.53125 -1.421875 13.0625 8.265625 
Q 6.59375 17.96875 6.59375 36.375 
Q 6.59375 54.828125 13.0625 64.515625 
Q 19.53125 74.21875 31.78125 74.21875 
z
" id="DejaVuSans-48"/>
       <path d="M 10.6875 12.40625 
L 21 12.40625 
L 21 0 
L 10.6875 0 
z
" id="DejaVuSans-46"/>
      </defs>
      <g transform="translate(64.048438 204.390438)scale(0.1 -0.1)">
       <use xlink:href="#DejaVuSans-48"/>
       <use x="63.623047" xlink:href="#DejaVuSans-46"/>
       <use x="95.410156" xlink:href="#DejaVuSans-48"/>
      </g>
     </g>
    </g>
    <g id="xtick_2">
     <g id="line2d_2">
      <g>
       <use style="stroke:#000000;stroke-width:0.8;" x="112.581818" xlink:href="#md1b56e8aef" y="189.792"/>
      </g>
     </g>
     <g id="text_2">
      <!-- 0.2 -->
      <defs>
       <path d="M 19.1875 8.296875 
L 53.609375 8.296875 
L 53.609375 0 
L 7.328125 0 
L 7.328125 8.296875 
Q 12.9375 14.109375 22.625 23.890625 
Q 32.328125 33.6875 34.8125 36.53125 
Q 39.546875 41.84375 41.421875 45.53125 
Q 43.3125 49.21875 43.3125 52.78125 
Q 43.3125 58.59375 39.234375 62.25 
Q 35.15625 65.921875 28.609375 65.921875 
Q 23.96875 65.921875 18.8125 64.3125 
Q 13.671875 62.703125 7.8125 59.421875 
L 7.8125 69.390625 
Q 13.765625 71.78125 18.9375 73 
Q 24.125 74.21875 28.421875 74.21875 
Q 39.75 74.21875 46.484375 68.546875 
Q 53.21875 62.890625 53.21875 53.421875 
Q 53.21875 48.921875 51.53125 44.890625 
Q 49.859375 40.875 45.40625 35.40625 
Q 44.1875 33.984375 37.640625 27.21875 
Q 31.109375 20.453125 19.1875 8.296875 
z
" id="DejaVuSans-50"/>
      </defs>
      <g transform="translate(104.630256 204.390438)scale(0.1 -0.1)">
       <use xlink:href="#DejaVuSans-48"/>
       <use x="63.623047" xlink:href="#DejaVuSans-46"/>
       <use x="95.410156" xlink:href="#DejaVuSans-50"/>
      </g>
     </g>
    </g>
    <g id="xtick_3">
     <g id="line2d_3">
      <g>
       <use style="stroke:#000000;stroke-width:0.8;" x="153.163636" xlink:href="#md1b56e8aef" y="189.792"/>
      </g>
     </g>
     <g id="text_3">
      <!-- 0.4 -->
      <defs>
       <path d="M 37.796875 64.3125 
L 12.890625 25.390625 
L 37.796875 25.390625 
z
M 35.203125 72.90625 
L 47.609375 72.90625 
L 47.609375 25.390625 
L 58.015625 25.390625 
L 58.015625 17.1875 
L 47.609375 17.1875 
L 47.609375 0 
L 37.796875 0 
L 37.796875 17.1875 
L 4.890625 17.1875 
L 4.890625 26.703125 
z
" id="DejaVuSans-52"/>
      </defs>
      <g transform="translate(145.212074 204.390438)scale(0.1 -0.1)">
       <use xlink:href="#DejaVuSans-48"/>
       <use x="63.623047" xlink:href="#DejaVuSans-46"/>
       <use x="95.410156" xlink:href="#DejaVuSans-52"/>
      </g>
     </g>
    </g>
    <g id="xtick_4">
     <g id="line2d_4">
      <g>
       <use style="stroke:#000000;stroke-width:0.8;" x="193.745455" xlink:href="#md1b56e8aef" y="189.792"/>
      </g>
     </g>
     <g id="text_4">
      <!-- 0.6 -->
      <defs>
       <path d="M 33.015625 40.375 
Q 26.375 40.375 22.484375 35.828125 
Q 18.609375 31.296875 18.609375 23.390625 
Q 18.609375 15.53125 22.484375 10.953125 
Q 26.375 6.390625 33.015625 6.390625 
Q 39.65625 6.390625 43.53125 10.953125 
Q 47.40625 15.53125 47.40625 23.390625 
Q 47.40625 31.296875 43.53125 35.828125 
Q 39.65625 40.375 33.015625 40.375 
z
M 52.59375 71.296875 
L 52.59375 62.3125 
Q 48.875 64.0625 45.09375 64.984375 
Q 41.3125 65.921875 37.59375 65.921875 
Q 27.828125 65.921875 22.671875 59.328125 
Q 17.53125 52.734375 16.796875 39.40625 
Q 19.671875 43.65625 24.015625 45.921875 
Q 28.375 48.1875 33.59375 48.1875 
Q 44.578125 48.1875 50.953125 41.515625 
Q 57.328125 34.859375 57.328125 23.390625 
Q 57.328125 12.15625 50.6875 5.359375 
Q 44.046875 -1.421875 33.015625 -1.421875 
Q 20.359375 -1.421875 13.671875 8.265625 
Q 6.984375 17.96875 6.984375 36.375 
Q 6.984375 53.65625 15.1875 63.9375 
Q 23.390625 74.21875 37.203125 74.21875 
Q 40.921875 74.21875 44.703125 73.484375 
Q 48.484375 72.75 52.59375 71.296875 
z
" id="DejaVuSans-54"/>
      </defs>
      <g transform="translate(185.793892 204.390438)scale(0.1 -0.1)">
       <use xlink:href="#DejaVuSans-48"/>
       <use x="63.623047" xlink:href="#DejaVuSans-46"/>
       <use x="95.410156" xlink:href="#DejaVuSans-54"/>
      </g>
     </g>
    </g>
    <g id="xtick_5">
     <g id="line2d_5">
      <g>
       <use style="stroke:#000000;stroke-width:0.8;" x="234.327273" xlink:href="#md1b56e8aef" y="189.792"/>
      </g>
     </g>
     <g id="text_5">
      <!-- 0.8 -->
      <defs>
       <path d="M 31.78125 34.625 
Q 24.75 34.625 20.71875 30.859375 
Q 16.703125 27.09375 16.703125 20.515625 
Q 16.703125 13.921875 20.71875 10.15625 
Q 24.75 6.390625 31.78125 6.390625 
Q 38.8125 6.390625 42.859375 10.171875 
Q 46.921875 13.96875 46.921875 20.515625 
Q 46.921875 27.09375 42.890625 30.859375 
Q 38.875 34.625 31.78125 34.625 
z
M 21.921875 38.8125 
Q 15.578125 40.375 12.03125 44.71875 
Q 8.5 49.078125 8.5 55.328125 
Q 8.5 64.0625 14.71875 69.140625 
Q 20.953125 74.21875 31.78125 74.21875 
Q 42.671875 74.21875 48.875 69.140625 
Q 55.078125 64.0625 55.078125 55.328125 
Q 55.078125 49.078125 51.53125 44.71875 
Q 48 40.375 41.703125 38.8125 
Q 48.828125 37.15625 52.796875 32.3125 
Q 56.78125 27.484375 56.78125 20.515625 
Q 56.78125 9.90625 50.3125 4.234375 
Q 43.84375 -1.421875 31.78125 -1.421875 
Q 19.734375 -1.421875 13.25 4.234375 
Q 6.78125 9.90625 6.78125 20.515625 
Q 6.78125 27.484375 10.78125 32.3125 
Q 14.796875 37.15625 21.921875 38.8125 
z
M 18.3125 54.390625 
Q 18.3125 48.734375 21.84375 45.5625 
Q 25.390625 42.390625 31.78125 42.390625 
Q 38.140625 42.390625 41.71875 45.5625 
Q 45.3125 48.734375 45.3125 54.390625 
Q 45.3125 60.0625 41.71875 63.234375 
Q 38.140625 66.40625 31.78125 66.40625 
Q 25.390625 66.40625 21.84375 63.234375 
Q 18.3125 60.0625 18.3125 54.390625 
z
" id="DejaVuSans-56"/>
      </defs>
      <g transform="translate(226.37571 204.390438)scale(0.1 -0.1)">
       <use xlink:href="#DejaVuSans-48"/>
       <use x="63.623047" xlink:href="#DejaVuSans-46"/>
       <use x="95.410156" xlink:href="#DejaVuSans-56"/>
      </g>
     </g>
    </g>
    <g id="xtick_6">
     <g id="line2d_6">
      <g>
       <use style="stroke:#000000;stroke-width:0.8;" x="274.909091" xlink:href="#md1b56e8aef" y="189.792"/>
      </g>
     </g>
     <g id="text_6">
      <!-- 1.0 -->
      <defs>
       <path d="M 12.40625 8.296875 
L 28.515625 8.296875 
L 28.515625 63.921875 
L 10.984375 60.40625 
L 10.984375 69.390625 
L 28.421875 72.90625 
L 38.28125 72.90625 
L 38.28125 8.296875 
L 54.390625 8.296875 
L 54.390625 0 
L 12.40625 0 
z
" id="DejaVuSans-49"/>
      </defs>
      <g transform="translate(266.957528 204.390438)scale(0.1 -0.1)">
       <use xlink:href="#DejaVuSans-49"/>
       <use x="63.623047" xlink:href="#DejaVuSans-46"/>
       <use x="95.410156" xlink:href="#DejaVuSans-48"/>
      </g>
     </g>
    </g>
   </g>
   <g id="matplotlib.axis_2">
    <g id="ytick_1">
     <g id="line2d_7">
      <defs>
       <path d="M 0 0 
L -3.5 0 
" id="me67468be98" style="stroke:#000000;stroke-width:0.8;"/>
      </defs>
      <g>
       <use style="stroke:#000000;stroke-width:0.8;" x="72" xlink:href="#me67468be98" y="189.792"/>
      </g>
     </g>
     <g id="text_7">
      <!-- 0.0 -->
      <g transform="translate(49.096875 193.591219)scale(0.1 -0.1)">
       <use xlink:href="#DejaVuSans-48"/>
       <use x="63.623047" xlink:href="#DejaVuSans-46"/>
       <use x="95.410156" xlink:href="#DejaVuSans-48"/>
      </g>
     </g>
    </g>
    <g id="ytick_2">
     <g id="line2d_8">
      <g>
       <use style="stroke:#000000;stroke-width:0.8;" x="72" xlink:href="#me67468be98" y="153.942705"/>
      </g>
     </g>
     <g id="text_8">
      <!-- 0.2 -->
      <g transform="translate(49.096875 157.741924)scale(0.1 -0.1)">
       <use xlink:href="#DejaVuSans-48"/>
       <use x="63.623047" xlink:href="#DejaVuSans-46"/>
       <use x="95.410156" xlink:href="#DejaVuSans-50"/>
      </g>
     </g>
    </g>
    <g id="ytick_3">
     <g id="line2d_9">
      <g>
       <use style="stroke:#000000;stroke-width:0.8;" x="72" xlink:href="#me67468be98" y="118.09341"/>
      </g>
     </g>
     <g id="text_9">
      <!-- 0.4 -->
      <g transform="translate(49.096875 121.892629)scale(0.1 -0.1)">
       <use xlink:href="#DejaVuSans-48"/>
       <use x="63.623047" xlink:href="#DejaVuSans-46"/>
       <use x="95.410156" xlink:href="#DejaVuSans-52"/>
      </g>
     </g>
    </g>
    <g id="ytick_4">
     <g id="line2d_10">
      <g>
       <use style="stroke:#000000;stroke-width:0.8;" x="72" xlink:href="#me67468be98" y="82.244116"/>
      </g>
     </g>
     <g id="text_10">
      <!-- 0.6 -->
      <g transform="translate(49.096875 86.043334)scale(0.1 -0.1)">
       <use xlink:href="#DejaVuSans-48"/>
       <use x="63.623047" xlink:href="#DejaVuSans-46"/>
       <use x="95.410156" xlink:href="#DejaVuSans-54"/>
      </g>
     </g>
    </g>
    <g id="ytick_5">
     <g id="line2d_11">
      <g>
       <use style="stroke:#000000;stroke-width:0.8;" x="72" xlink:href="#me67468be98" y="46.394821"/>
      </g>
     </g>
     <g id="text_11">
      <!-- 0.8 -->
      <g transform="translate(49.096875 50.19404)scale(0.1 -0.1)">
       <use xlink:href="#DejaVuSans-48"/>
       <use x="63.623047" xlink:href="#DejaVuSans-46"/>
       <use x="95.410156" xlink:href="#DejaVuSans-56"/>
      </g>
     </g>
    </g>
   </g>
   <g id="patch_3">
    <path d="M 72 189.792 
L 72 34.56 
" style="fill:none;stroke:#000000;stroke-linecap:square;stroke-linejoin:miter;stroke-width:0.8;"/>
   </g>
   <g id="patch_4">
    <path d="M 274.909091 189.792 
L 274.909091 34.56 
" style="fill:none;stroke:#000000;stroke-linecap:square;stroke-linejoin:miter;stroke-width:0.8;"/>
   </g>
   <g id="patch_5">
    <path d="M 72 189.792 
L 274.909091 189.792 
" style="fill:none;stroke:#000000;stroke-linecap:square;stroke-linejoin:miter;stroke-width:0.8;"/>
   </g>
   <g id="patch_6">
    <path d="M 72 34.56 
L 274.909091 34.56 
" style="fill:none;stroke:#000000;stroke-linecap:square;stroke-linejoin:miter;stroke-width:0.8;"/>
   </g>
   <g id="text_12">
    <!-- Liquido -->
    <defs>
     <path d="M 9.8125 72.90625 
L 19.671875 72.90625 
L 19.671875 8.296875 
L 55.171875 8.296875 
L 55.171875 0 
L 9.8125 0 
z
" id="DejaVuSans-76"/>
     <path d="M 9.421875 54.6875 
L 18.40625 54.6875 
L 18.40625 0 
L 9.421875 0 
z
M 9.421875 75.984375 
L 18.40625 75.984375 
L 18.40625 64.59375 
L 9.421875 64.59375 
z
" id="DejaVuSans-105"/>
     <path d="M 14.796875 27.296875 
Q 14.796875 17.390625 18.875 11.75 
Q 22.953125 6.109375 30.078125 6.109375 
Q 37.203125 6.109375 41.296875 11.75 
Q 45.40625 17.390625 45.40625 27.296875 
Q 45.40625 37.203125 41.296875 42.84375 
Q 37.203125 48.484375 30.078125 48.484375 
Q 22.953125 48.484375 18.875 42.84375 
Q 14.796875 37.203125 14.796875 27.296875 
z
M 45.40625 8.203125 
Q 42.578125 3.328125 38.25 0.953125 
Q 33.9375 -1.421875 27.875 -1.421875 
Q 17.96875 -1.421875 11.734375 6.484375 
Q 5.515625 14.40625 5.515625 27.296875 
Q 5.515625 40.1875 11.734375 48.09375 
Q 17.96875 56 27.875 56 
Q 33.9375 56 38.25 53.625 
Q 42.578125 51.265625 45.40625 46.390625 
L 45.40625 54.6875 
L 54.390625 54.6875 
L 54.390625 -20.796875 
L 45.40625 -20.796875 
z
" id="DejaVuSans-113"/>
     <path d="M 8.5 21.578125 
L 8.5 54.6875 
L 17.484375 54.6875 
L 17.484375 21.921875 
Q 17.484375 14.15625 20.5 10.265625 
Q 23.53125 6.390625 29.59375 6.390625 
Q 36.859375 6.390625 41.078125 11.03125 
Q 45.3125 15.671875 45.3125 23.6875 
L 45.3125 54.6875 
L 54.296875 54.6875 
L 54.296875 0 
L 45.3125 0 
L 45.3125 8.40625 
Q 42.046875 3.421875 37.71875 1 
Q 33.40625 -1.421875 27.6875 -1.421875 
Q 18.265625 -1.421875 13.375 4.4375 
Q 8.5 10.296875 8.5 21.578125 
z
M 31.109375 56 
z
" id="DejaVuSans-117"/>
     <path d="M 45.40625 46.390625 
L 45.40625 75.984375 
L 54.390625 75.984375 
L 54.390625 0 
L 45.40625 0 
L 45.40625 8.203125 
Q 42.578125 3.328125 38.25 0.953125 
Q 33.9375 -1.421875 27.875 -1.421875 
Q 17.96875 -1.421875 11.734375 6.484375 
Q 5.515625 14.40625 5.515625 27.296875 
Q 5.515625 40.1875 11.734375 48.09375 
Q 17.96875 56 27.875 56 
Q 33.9375 56 38.25 53.625 
Q 42.578125 51.265625 45.40625 46.390625 
z
M 14.796875 27.296875 
Q 14.796875 17.390625 18.875 11.75 
Q 22.953125 6.109375 30.078125 6.109375 
Q 37.203125 6.109375 41.296875 11.75 
Q 45.40625 17.390625 45.40625 27.296875 
Q 45.40625 37.203125 41.296875 42.84375 
Q 37.203125 48.484375 30.078125 48.484375 
Q 22.953125 48.484375 18.875 42.84375 
Q 14.796875 37.203125 14.796875 27.296875 
z
" id="DejaVuSans-100"/>
     <path d="M 30.609375 48.390625 
Q 23.390625 48.390625 19.1875 42.75 
Q 14.984375 37.109375 14.984375 27.296875 
Q 14.984375 17.484375 19.15625 11.84375 
Q 23.34375 6.203125 30.609375 6.203125 
Q 37.796875 6.203125 41.984375 11.859375 
Q 46.1875 17.53125 46.1875 27.296875 
Q 46.1875 37.015625 41.984375 42.703125 
Q 37.796875 48.390625 30.609375 48.390625 
z
M 30.609375 56 
Q 42.328125 56 49.015625 48.375 
Q 55.71875 40.765625 55.71875 27.296875 
Q 55.71875 13.875 49.015625 6.21875 
Q 42.328125 -1.421875 30.609375 -1.421875 
Q 18.84375 -1.421875 12.171875 6.21875 
Q 5.515625 13.875 5.515625 27.296875 
Q 5.515625 40.765625 12.171875 48.375 
Q 18.84375 56 30.609375 56 
z
" id="DejaVuSans-111"/>
    </defs>
    <g transform="translate(151.685795 28.56)scale(0.12 -0.12)">
     <use xlink:href="#DejaVuSans-76"/>
     <use x="55.712891" xlink:href="#DejaVuSans-105"/>
     <use x="83.496094" xlink:href="#DejaVuSans-113"/>
     <use x="146.972656" xlink:href="#DejaVuSans-117"/>
     <use x="210.351562" xlink:href="#DejaVuSans-105"/>
     <use x="238.134766" xlink:href="#DejaVuSans-100"/>
     <use x="301.611328" xlink:href="#DejaVuSans-111"/>
    </g>
   </g>
  </g>
  <g id="axes_2">
   <g id="patch_7">
    <path d="M 315.490909 189.792 
L 518.4 189.792 
L 518.4 34.56 
L 315.490909 34.56 
z
" style="fill:#ffffff;"/>
   </g>
   <g id="PathCollection_15">
    <path clip-path="url(#p50497fcdf7)" d="M 414.698846 37.997455 
L 423.775273 45.010063 
L 416.945455 34.56 
M 327.472245 189.792 
L 319.009915 184.407694 
L 315.490909 189.792 
M 513.123205 181.718163 
L 513.014055 189.792 
L 518.4 189.792 
" style="fill:#040314;"/>
   </g>
   <g id="PathCollection_16">
    <path clip-path="url(#p50497fcdf7)" d="M 411.443248 42.978731 
L 433.672481 60.15343 
L 423.775273 45.010063 
L 414.698846 37.997455 
M 319.009915 184.407694 
L 327.472245 189.792 
L 344.834605 189.792 
L 324.109367 176.605204 
M 513.014055 189.792 
L 513.123205 181.718163 
L 505.47651 170.018226 
L 505.20919 189.792 
" style="fill:#190c3e;"/>
   </g>
   <g id="PathCollection_17">
    <path clip-path="url(#p50497fcdf7)" d="M 408.187649 47.960007 
L 428.264299 63.471581 
L 430.085982 64.309836 
L 443.627608 75.385417 
L 433.701845 60.198358 
L 433.672481 60.15343 
L 411.443248 42.978731 
M 324.109367 176.605204 
L 344.834605 189.792 
L 352.815237 189.792 
L 361.156838 189.792 
L 354.648788 185.771915 
L 351.571494 183.031358 
L 329.208818 168.802714 
M 505.20919 189.792 
L 505.47651 170.018226 
L 499.475245 160.835904 
L 497.639264 158.026734 
L 498.070895 161.002857 
L 497.779691 162.025993 
L 497.404324 189.792 
" style="fill:#380962;"/>
   </g>
   <g id="PathCollection_18">
    <path clip-path="url(#p50497fcdf7)" d="M 404.932051 52.941283 
L 422.810573 66.754545 
L 426.459359 68.433549 
L 441.862311 81.031492 
L 442.961819 81.680925 
L 454.542324 92.085636 
L 445.951105 78.940517 
L 443.627608 75.385417 
L 430.085982 64.309836 
L 428.264299 63.471581 
L 408.187649 47.960007 
M 329.208818 168.802714 
L 351.571494 183.031358 
L 354.648788 185.771915 
L 361.156838 189.792 
L 376.59428 189.792 
L 358.042061 178.332118 
L 349.269752 170.519729 
L 334.30827 161.000224 
M 497.404324 189.792 
L 497.779691 162.025993 
L 498.070895 161.002857 
L 497.639264 158.026734 
L 489.206846 145.12459 
L 489.06607 144.909194 
L 489.13692 145.13782 
L 489.135106 145.157883 
L 489.134767 145.16309 
L 491.544553 161.778721 
L 489.900057 167.556609 
L 489.599459 189.792 
" style="fill:#550f6d;"/>
   </g>
   <g id="PathCollection_19">
    <path clip-path="url(#p50497fcdf7)" d="M 401.676452 57.922558 
L 417.356846 70.037508 
L 422.832736 72.557262 
L 436.528686 83.759062 
L 439.062447 85.255648 
L 450.565993 95.591214 
L 451.603356 96.395843 
L 461.00452 106.022251 
L 461.353988 106.400631 
L 468.891489 115.572574 
L 468.955267 115.675939 
L 468.990936 115.743745 
L 474.963057 124.87402 
L 474.996165 124.968953 
L 475.024882 125.108102 
L 479.689278 134.927775 
L 479.715579 135.155711 
L 483.159468 146.268729 
L 483.00259 148.003867 
L 482.973212 148.454182 
L 485.018212 162.554586 
L 482.020424 173.087225 
L 481.794593 189.792 
L 489.599459 189.792 
L 489.900057 167.556609 
L 491.544553 161.778721 
L 489.134767 145.16309 
L 489.135106 145.157883 
L 489.13692 145.13782 
L 489.06607 144.909194 
L 481.962845 134.040802 
L 475.774622 124.572421 
L 469.693353 115.267687 
L 463.095147 105.172007 
L 455.410669 93.41426 
L 454.542324 92.085636 
L 442.961819 81.680925 
L 441.862311 81.031492 
L 426.459359 68.433549 
L 422.810573 66.754545 
L 404.932051 52.941283 
M 334.30827 161.000224 
L 349.269752 170.519729 
L 358.042061 178.332118 
L 376.59428 189.792 
L 380.990287 189.792 
L 391.507771 189.792 
L 382.567476 184.593153 
L 379.01853 181.753628 
L 361.435335 170.89232 
L 346.968011 158.008099 
L 339.407722 153.197733 
" style="fill:#741a6e;"/>
   </g>
   <g id="PathCollection_20">
    <path clip-path="url(#p50497fcdf7)" d="M 398.420854 62.903834 
L 411.90312 73.320471 
L 419.206113 76.680974 
L 431.195061 86.486632 
L 435.163075 88.830371 
L 445.314404 97.951013 
L 447.476261 99.627855 
L 455.791521 108.142341 
L 457.012391 109.464215 
L 463.665264 117.559706 
L 464.144721 118.336759 
L 464.412867 118.846497 
L 469.647569 126.849395 
L 469.897525 127.566106 
L 470.114327 128.616642 
L 474.140412 137.092518 
L 474.230906 137.876757 
L 477.182017 147.399638 
L 476.870074 150.84985 
L 476.811657 151.745273 
L 478.49187 163.33045 
L 474.14079 178.61784 
L 473.989728 189.792 
L 481.794593 189.792 
L 482.020424 173.087225 
L 485.018212 162.554586 
L 482.973212 148.454182 
L 483.00259 148.003867 
L 483.159468 146.268729 
L 479.715579 135.155711 
L 479.689278 134.927775 
L 475.024882 125.108102 
L 474.996165 124.968953 
L 474.963057 124.87402 
L 468.990936 115.743745 
L 468.955267 115.675939 
L 468.891489 115.572574 
L 461.353988 106.400631 
L 461.00452 106.022251 
L 451.603356 96.395843 
L 450.565993 95.591214 
L 439.062447 85.255648 
L 436.528686 83.759062 
L 422.832736 72.557262 
L 417.356846 70.037508 
L 401.676452 57.922558 
M 339.407722 153.197733 
L 346.968011 158.008099 
L 361.435335 170.89232 
L 379.01853 181.753628 
L 382.567476 184.593153 
L 391.507771 189.792 
L 402.959587 189.792 
L 406.32218 189.792 
L 403.24817 188.180924 
L 402.284014 187.507465 
L 384.772602 177.32445 
L 376.261743 170.514879 
L 364.828609 163.452523 
L 344.666269 145.49647 
L 344.507174 145.395243 
" style="fill:#902568;"/>
   </g>
   <g id="PathCollection_21">
    <path clip-path="url(#p50497fcdf7)" d="M 395.165255 67.88511 
L 406.449393 76.603434 
L 415.57949 80.804687 
L 425.861435 89.214202 
L 431.263703 92.405094 
L 440.062814 100.310813 
L 443.349165 102.859867 
L 450.578521 110.262431 
L 452.670794 112.527799 
L 458.439039 119.546839 
L 459.334174 120.997578 
L 459.834797 121.94925 
L 464.332082 128.824771 
L 464.798885 130.163259 
L 465.203771 132.125181 
L 468.591547 139.257262 
L 468.746233 140.597803 
L 471.204565 148.530547 
L 470.737558 153.695834 
L 470.650102 155.036364 
L 471.965529 164.106315 
L 466.261157 184.148456 
L 466.184862 189.792 
L 473.989728 189.792 
L 474.14079 178.61784 
L 478.49187 163.33045 
L 476.811657 151.745273 
L 476.870074 150.84985 
L 477.182017 147.399638 
L 474.230906 137.876757 
L 474.140412 137.092518 
L 470.114327 128.616642 
L 469.897525 127.566106 
L 469.647569 126.849395 
L 464.412867 118.846497 
L 464.144721 118.336759 
L 463.665264 117.559706 
L 457.012391 109.464215 
L 455.791521 108.142341 
L 447.476261 99.627855 
L 445.314404 97.951013 
L 435.163075 88.830371 
L 431.195061 86.486632 
L 419.206113 76.680974 
L 411.90312 73.320471 
L 398.420854 62.903834 
M 344.507174 145.395243 
L 344.666269 145.49647 
L 364.828609 163.452523 
L 376.261743 170.514879 
L 384.772602 177.32445 
L 402.284014 187.507465 
L 403.24817 188.180924 
L 406.32218 189.792 
L 420.429426 189.792 
L 421.704549 189.792 
L 420.642871 189.320626 
L 420.468507 189.25272 
L 420.194295 189.096081 
L 404.552656 180.898361 
L 399.230214 177.180658 
L 386.977728 170.055747 
L 373.504956 159.27613 
L 368.221883 156.012725 
L 358.73896 147.567482 
L 348.620167 139.102098 
L 344.616791 145.227521 
" style="fill:#ad305d;"/>
   </g>
   <g id="PathCollection_22">
    <path clip-path="url(#p50497fcdf7)" d="M 391.909657 72.866386 
L 400.995667 79.886398 
L 411.952867 84.9284 
L 420.52781 91.941772 
L 427.364331 95.979818 
L 434.811225 102.670612 
L 439.22207 106.091879 
L 445.365521 112.382522 
L 448.329197 115.591383 
L 453.212814 121.533971 
L 454.523628 123.658398 
L 455.256728 125.052003 
L 459.016594 130.800146 
L 459.700245 132.760413 
L 460.293216 135.63372 
L 463.042682 141.422006 
L 463.261559 143.318849 
L 465.227113 149.661456 
L 464.605042 156.541817 
L 464.488547 158.327456 
L 465.439187 164.88218 
L 458.381524 189.679072 
L 458.379997 189.792 
L 466.184862 189.792 
L 466.261157 184.148456 
L 471.965529 164.106315 
L 470.650102 155.036364 
L 470.737558 153.695834 
L 471.204565 148.530547 
L 468.746233 140.597803 
L 468.591547 139.257262 
L 465.203771 132.125181 
L 464.798885 130.163259 
L 464.332082 128.824771 
L 459.834797 121.94925 
L 459.334174 120.997578 
L 458.439039 119.546839 
L 452.670794 112.527799 
L 450.578521 110.262431 
L 443.349165 102.859867 
L 440.062814 100.310813 
L 431.263703 92.405094 
L 425.861435 89.214202 
L 415.57949 80.804687 
L 406.449393 76.603434 
L 395.165255 67.88511 
M 348.620167 139.102098 
L 358.73896 147.567482 
L 368.221883 156.012725 
L 373.504956 159.27613 
L 386.977728 170.055747 
L 399.230214 177.180658 
L 404.552656 180.898361 
L 420.194295 189.096081 
L 420.468507 189.25272 
L 420.642871 189.320626 
L 421.704549 189.792 
L 434.392198 189.792 
L 441.935386 189.792 
L 435.77485 187.537887 
L 434.995647 187.607201 
L 434.33348 187.523941 
L 423.611942 182.763695 
L 421.012134 181.751192 
L 416.923563 179.415664 
L 405.857142 173.615797 
L 396.176415 166.853851 
L 389.182854 162.787044 
L 373.147509 149.957103 
L 371.569755 148.734399 
L 369.442018 146.838874 
L 352.711489 132.842111 
" style="fill:#c83f4b;"/>
   </g>
   <g id="PathCollection_23">
    <path clip-path="url(#p50497fcdf7)" d="M 388.654058 77.847662 
L 395.54194 83.169361 
L 408.326244 89.052112 
L 415.194185 94.669343 
L 423.464959 99.554541 
L 429.559636 105.030412 
L 435.094974 109.32389 
L 440.152522 114.502612 
L 443.9876 118.654968 
L 447.986589 123.521103 
L 449.713082 126.319218 
L 450.678659 128.154755 
L 453.701106 132.775521 
L 454.601605 135.357566 
L 455.382661 139.14226 
L 457.493816 143.58675 
L 457.776886 146.039894 
L 459.249662 150.792365 
L 458.472526 159.387801 
L 458.326992 161.618547 
L 458.912846 165.658044 
L 454.511889 181.120676 
L 454.320039 181.221226 
L 451.700312 182.127209 
L 446.43301 181.742875 
L 440.631526 179.620138 
L 437.115311 179.932923 
L 434.127231 179.557202 
L 426.581012 176.206764 
L 421.555761 174.249663 
L 413.65283 169.735247 
L 407.161628 166.333234 
L 393.122615 156.527044 
L 391.38798 155.518341 
L 387.410682 152.33609 
L 374.640967 142.440019 
L 357.419919 127.098395 
L 356.802812 126.582123 
L 352.711489 132.842111 
L 369.442018 146.838874 
L 371.569755 148.734399 
L 373.147509 149.957103 
L 389.182854 162.787044 
L 396.176415 166.853851 
L 405.857142 173.615797 
L 416.923563 179.415664 
L 421.012134 181.751192 
L 423.611942 182.763695 
L 434.33348 187.523941 
L 434.995647 187.607201 
L 435.77485 187.537887 
L 441.935386 189.792 
L 445.34899 189.792 
L 453.346185 189.792 
L 457.845183 189.792 
L 458.220631 189.792 
L 458.379997 189.792 
L 458.381524 189.679072 
L 465.439187 164.88218 
L 464.488547 158.327456 
L 464.605042 156.541817 
L 465.227113 149.661456 
L 463.261559 143.318849 
L 463.042682 141.422006 
L 460.293216 135.63372 
L 459.700245 132.760413 
L 459.016594 130.800146 
L 455.256728 125.052003 
L 454.523628 123.658398 
L 453.212814 121.533971 
L 448.329197 115.591383 
L 445.365521 112.382522 
L 439.22207 106.091879 
L 434.811225 102.670612 
L 427.364331 95.979818 
L 420.52781 91.941772 
L 411.952867 84.9284 
L 400.995667 79.886398 
L 391.909657 72.866386 
" style="fill:#df5337;"/>
   </g>
   <g id="PathCollection_24">
    <path clip-path="url(#p50497fcdf7)" d="M 385.39846 82.828937 
L 390.088214 86.452324 
L 404.699621 93.175825 
L 409.86056 97.396913 
L 419.565587 103.129264 
L 424.308047 107.390212 
L 430.967879 112.555902 
L 434.939522 116.622702 
L 439.646003 121.718552 
L 442.760364 125.508235 
L 444.902536 128.980038 
L 446.100589 131.257508 
L 448.385618 134.750896 
L 449.502964 137.95472 
L 450.472105 142.650799 
L 451.944951 145.751493 
L 452.292213 148.76094 
L 453.27221 151.923274 
L 452.34001 162.233785 
L 452.165437 164.909639 
L 452.386504 166.433909 
L 450.72584 172.268604 
L 450.653447 172.306545 
L 449.664915 172.64841 
L 447.677343 172.503385 
L 445.488201 171.702388 
L 439.234974 172.258645 
L 433.920982 171.590463 
L 429.550083 169.649832 
L 422.099387 166.748135 
L 410.382098 160.05483 
L 408.466114 159.050671 
L 402.514216 154.893296 
L 393.659038 148.741884 
L 385.761107 142.383268 
L 377.712179 136.145638 
L 370.592123 129.802631 
L 361.026487 120.119629 
L 356.9595 126.34238 
L 356.802812 126.582123 
L 357.419919 127.098395 
L 374.640967 142.440019 
L 387.410682 152.33609 
L 391.38798 155.518341 
L 393.122615 156.527044 
L 407.161628 166.333234 
L 413.65283 169.735247 
L 421.555761 174.249663 
L 426.581012 176.206764 
L 434.127231 179.557202 
L 437.115311 179.932923 
L 440.631526 179.620138 
L 446.43301 181.742875 
L 451.700312 182.127209 
L 454.320039 181.221226 
L 454.511889 181.120676 
L 458.912846 165.658044 
L 458.326992 161.618547 
L 458.472526 159.387801 
L 459.249662 150.792365 
L 457.776886 146.039894 
L 457.493816 143.58675 
L 455.382661 139.14226 
L 454.601605 135.357566 
L 453.701106 132.775521 
L 450.678659 128.154755 
L 449.713082 126.319218 
L 447.986589 123.521103 
L 443.9876 118.654968 
L 440.152522 114.502612 
L 435.094974 109.32389 
L 429.559636 105.030412 
L 423.464959 99.554541 
L 415.194185 94.669343 
L 408.326244 89.052112 
L 395.54194 83.169361 
L 388.654058 77.847662 
" style="fill:#ef6e21;"/>
   </g>
   <g id="PathCollection_25">
    <path clip-path="url(#p50497fcdf7)" d="M 382.142861 87.810213 
L 384.634487 89.735287 
L 401.072998 97.299538 
L 404.526935 100.124483 
L 415.666215 106.703987 
L 419.056458 109.750011 
L 426.840783 115.787914 
L 429.726522 118.742792 
L 435.304406 124.782136 
L 437.534139 127.495367 
L 440.091989 131.640858 
L 441.52252 134.360261 
L 443.07013 136.726272 
L 444.404324 140.551873 
L 445.56155 146.159339 
L 446.396086 147.916237 
L 446.807539 151.481986 
L 447.294758 153.054183 
L 446.351904 163.482529 
L 445.259744 164.007987 
L 444.437233 164.310154 
L 441.354638 164.584366 
L 433.714732 163.623724 
L 432.519154 163.092901 
L 422.643014 159.246606 
L 420.591953 158.074972 
L 412.64362 153.216028 
L 409.966581 151.893427 
L 404.405608 148.072833 
L 395.962548 142.207706 
L 385.190681 133.535288 
L 380.966582 129.675186 
L 368.046346 116.569042 
L 365.501588 113.272435 
L 364.155973 115.331312 
L 361.026487 120.119629 
L 370.592123 129.802631 
L 377.712179 136.145638 
L 385.761107 142.383268 
L 393.659038 148.741884 
L 402.514216 154.893296 
L 408.466114 159.050671 
L 410.382098 160.05483 
L 422.099387 166.748135 
L 429.550083 169.649832 
L 433.920982 171.590463 
L 439.234974 172.258645 
L 445.488201 171.702388 
L 447.677343 172.503385 
L 449.664915 172.64841 
L 450.653447 172.306545 
L 450.72584 172.268604 
L 452.386504 166.433909 
L 452.165437 164.909639 
L 452.34001 162.233785 
L 453.27221 151.923274 
L 452.292213 148.76094 
L 451.944951 145.751493 
L 450.472105 142.650799 
L 449.502964 137.95472 
L 448.385618 134.750896 
L 446.100589 131.257508 
L 444.902536 128.980038 
L 442.760364 125.508235 
L 439.646003 121.718552 
L 434.939522 116.622702 
L 430.967879 112.555902 
L 424.308047 107.390212 
L 419.565587 103.129264 
L 409.86056 97.396913 
L 404.699621 93.175825 
L 390.088214 86.452324 
L 385.39846 82.828937 
" style="fill:#f98c0a;"/>
   </g>
   <g id="PathCollection_26">
    <path clip-path="url(#p50497fcdf7)" d="M 378.887263 92.791489 
L 379.180761 93.018251 
L 397.446375 101.42325 
L 399.19331 102.852053 
L 411.766843 110.27871 
L 413.804869 112.109811 
L 422.713688 119.019925 
L 424.513523 120.862883 
L 430.962809 127.84572 
L 432.307914 129.482499 
L 435.281443 134.301678 
L 436.944451 137.463013 
L 437.754642 138.701647 
L 439.305684 143.149026 
L 440.650994 149.667878 
L 440.84722 150.080981 
L 441.305329 154.051058 
L 437.32368 154.008407 
L 433.473811 154.581812 
L 428.526974 152.427041 
L 423.513437 151.250297 
L 418.891142 148.424613 
L 411.608253 144.826474 
L 401.299832 137.74421 
L 399.661913 136.333264 
L 398.406777 135.487337 
L 390.629972 128.44764 
L 384.548357 122.890087 
L 383.010233 121.329831 
L 380.033273 117.473329 
L 374.039043 109.528226 
L 371.473861 104.134471 
L 369.15542 107.681836 
L 365.501588 113.272435 
L 368.046346 116.569042 
L 380.966582 129.675186 
L 385.190681 133.535288 
L 395.962548 142.207706 
L 404.405608 148.072833 
L 409.966581 151.893427 
L 412.64362 153.216028 
L 420.591953 158.074972 
L 422.643014 159.246606 
L 432.519154 163.092901 
L 433.714732 163.623724 
L 441.354638 164.584366 
L 444.437233 164.310154 
L 445.259744 164.007987 
L 446.351904 163.482529 
L 447.294758 153.054183 
L 446.807539 151.481986 
L 446.396086 147.916237 
L 445.56155 146.159339 
L 444.404324 140.551873 
L 443.07013 136.726272 
L 441.52252 134.360261 
L 440.091989 131.640858 
L 437.534139 127.495367 
L 435.304406 124.782136 
L 429.726522 118.742792 
L 426.840783 115.787914 
L 419.056458 109.750011 
L 415.666215 106.703987 
L 404.526935 100.124483 
L 401.072998 97.299538 
L 384.634487 89.735287 
L 382.142861 87.810213 
" style="fill:#fcb014;"/>
   </g>
   <g id="PathCollection_27">
    <path clip-path="url(#p50497fcdf7)" d="M 371.473861 104.134471 
L 374.039043 109.528226 
L 380.033273 117.473329 
L 383.010233 121.329831 
L 384.548357 122.890087 
L 390.629972 128.44764 
L 398.406777 135.487337 
L 399.661913 136.333264 
L 401.299832 137.74421 
L 411.608253 144.826474 
L 418.891142 148.424613 
L 423.513437 151.250297 
L 428.526974 152.427041 
L 433.473811 154.581812 
L 437.32368 154.008407 
L 441.305329 154.051058 
L 440.84722 150.080981 
L 440.650994 149.667878 
L 439.305684 143.149026 
L 437.754642 138.701647 
L 436.944451 137.463013 
L 435.281443 134.301678 
L 432.307914 129.482499 
L 430.962809 127.84572 
L 424.513523 120.862883 
L 422.713688 119.019925 
L 413.804869 112.109811 
L 411.766843 110.27871 
L 399.19331 102.852053 
L 397.446375 101.42325 
L 379.180761 93.018251 
L 378.887263 92.791489 
L 378.45257 93.456597 
L 377.900652 94.301067 
L 376.983873 95.703798 
L 375.909281 97.347993 
L 372.967158 101.849631 
M 393.819752 105.546963 
L 393.859685 105.579624 
L 407.867471 113.853433 
L 408.55328 114.469611 
L 418.586592 122.251937 
L 419.300523 122.982973 
L 426.621212 130.909305 
L 427.081689 131.469631 
L 430.470897 136.962497 
L 432.366381 140.565766 
L 432.439154 140.677022 
L 433.096822 142.562785 
L 432.280634 142.647672 
L 428.687375 142.314749 
L 425.355521 142.719405 
L 424.479595 142.503145 
L 418.676716 138.734984 
L 413.664265 136.769227 
L 409.95835 133.576857 
L 401.51607 127.886994 
L 400.719422 127.165855 
L 397.413654 123.367255 
L 391.383523 116.158452 
L 390.580072 115.263529 
L 389.991655 113.245086 
L 389.474261 113.44578 
L 385.470948 105.260291 
L 385.831239 103.384552 
L 384.118533 101.157699 
L 387.030504 102.670592 
L 393.278967 105.316828 
L 393.333163 105.323057 
" style="fill:#f7d340;"/>
   </g>
   <g id="PathCollection_28">
    <path clip-path="url(#p50497fcdf7)" d="M 393.333163 105.323057 
L 393.278967 105.316828 
L 387.030504 102.670592 
L 384.118533 101.157699 
L 385.831239 103.384552 
L 385.470948 105.260291 
L 389.474261 113.44578 
L 389.991655 113.245086 
L 390.580072 115.263529 
L 391.383523 116.158452 
L 397.413654 123.367255 
L 400.719422 127.165855 
L 401.51607 127.886994 
L 409.95835 133.576857 
L 413.664265 136.769227 
L 418.676716 138.734984 
L 424.479595 142.503145 
L 425.355521 142.719405 
L 428.687375 142.314749 
L 432.280634 142.647672 
L 433.096822 142.562785 
L 432.439154 140.677022 
L 432.366381 140.565766 
L 430.470897 136.962497 
L 427.081689 131.469631 
L 426.621212 130.909305 
L 419.300523 122.982973 
L 418.586592 122.251937 
L 408.55328 114.469611 
L 407.867471 113.853433 
L 393.859685 105.579624 
L 393.819752 105.546963 
" style="fill:#f2f482;"/>
   </g>
   <g id="PathCollection_29">
    <defs>
     <path d="M 0 3 
C 0.795609 3 1.55874 2.683901 2.12132 2.12132 
C 2.683901 1.55874 3 0.795609 3 0 
C 3 -0.795609 2.683901 -1.55874 2.12132 -2.12132 
C 1.55874 -2.683901 0.795609 -3 0 -3 
C -0.795609 -3 -1.55874 -2.683901 -2.12132 -2.12132 
C -2.683901 -1.55874 -3 -0.795609 -3 0 
C -3 0.795609 -2.683901 1.55874 -2.12132 2.12132 
C -1.55874 2.683901 -0.795609 3 0 3 
z
" id="mc170ca1562" style="stroke:#1f77b4;"/>
    </defs>
    <g clip-path="url(#p50497fcdf7)">
     <use style="fill:#1f77b4;stroke:#1f77b4;" x="416.945455" xlink:href="#mc170ca1562" y="34.56"/>
    </g>
   </g>
   <g id="PathCollection_30">
    <defs>
     <path d="M 0 3 
C 0.795609 3 1.55874 2.683901 2.12132 2.12132 
C 2.683901 1.55874 3 0.795609 3 0 
C 3 -0.795609 2.683901 -1.55874 2.12132 -2.12132 
C 1.55874 -2.683901 0.795609 -3 0 -3 
C -0.795609 -3 -1.55874 -2.683901 -2.12132 -2.12132 
C -2.683901 -1.55874 -3 -0.795609 -3 0 
C -3 0.795609 -2.683901 1.55874 -2.12132 2.12132 
C -1.55874 2.683901 -0.795609 3 0 3 
z
" id="mcc43868f42" style="stroke:#ff7f0e;"/>
    </defs>
    <g clip-path="url(#p50497fcdf7)">
     <use style="fill:#ff7f0e;stroke:#ff7f0e;" x="518.4" xlink:href="#mcc43868f42" y="189.792"/>
    </g>
   </g>
   <g id="PathCollection_31">
    <defs>
     <path d="M 0 3 
C 0.795609 3 1.55874 2.683901 2.12132 2.12132 
C 2.683901 1.55874 3 0.795609 3 0 
C 3 -0.795609 2.683901 -1.55874 2.12132 -2.12132 
C 1.55874 -2.683901 0.795609 -3 0 -3 
C -0.795609 -3 -1.55874 -2.683901 -2.12132 -2.12132 
C -2.683901 -1.55874 -3 -0.795609 -3 0 
C -3 0.795609 -2.683901 1.55874 -2.12132 2.12132 
C -1.55874 2.683901 -0.795609 3 0 3 
z
" id="m6238094f0d" style="stroke:#2ca02c;"/>
    </defs>
    <g clip-path="url(#p50497fcdf7)">
     <use style="fill:#2ca02c;stroke:#2ca02c;" x="315.490909" xlink:href="#m6238094f0d" y="189.792"/>
    </g>
   </g>
   <g id="matplotlib.axis_3">
    <g id="xtick_7">
     <g id="line2d_12">
      <g>
       <use style="stroke:#000000;stroke-width:0.8;" x="315.490909" xlink:href="#md1b56e8aef" y="189.792"/>
      </g>
     </g>
     <g id="text_13">
      <!-- 0.0 -->
      <g transform="translate(307.539347 204.390438)scale(0.1 -0.1)">
       <use xlink:href="#DejaVuSans-48"/>
       <use x="63.623047" xlink:href="#DejaVuSans-46"/>
       <use x="95.410156" xlink:href="#DejaVuSans-48"/>
      </g>
     </g>
    </g>
    <g id="xtick_8">
     <g id="line2d_13">
      <g>
       <use style="stroke:#000000;stroke-width:0.8;" x="356.072727" xlink:href="#md1b56e8aef" y="189.792"/>
      </g>
     </g>
     <g id="text_14">
      <!-- 0.2 -->
      <g transform="translate(348.121165 204.390438)scale(0.1 -0.1)">
       <use xlink:href="#DejaVuSans-48"/>
       <use x="63.623047" xlink:href="#DejaVuSans-46"/>
       <use x="95.410156" xlink:href="#DejaVuSans-50"/>
      </g>
     </g>
    </g>
    <g id="xtick_9">
     <g id="line2d_14">
      <g>
       <use style="stroke:#000000;stroke-width:0.8;" x="396.654545" xlink:href="#md1b56e8aef" y="189.792"/>
      </g>
     </g>
     <g id="text_15">
      <!-- 0.4 -->
      <g transform="translate(388.702983 204.390438)scale(0.1 -0.1)">
       <use xlink:href="#DejaVuSans-48"/>
       <use x="63.623047" xlink:href="#DejaVuSans-46"/>
       <use x="95.410156" xlink:href="#DejaVuSans-52"/>
      </g>
     </g>
    </g>
    <g id="xtick_10">
     <g id="line2d_15">
      <g>
       <use style="stroke:#000000;stroke-width:0.8;" x="437.236364" xlink:href="#md1b56e8aef" y="189.792"/>
      </g>
     </g>
     <g id="text_16">
      <!-- 0.6 -->
      <g transform="translate(429.284801 204.390438)scale(0.1 -0.1)">
       <use xlink:href="#DejaVuSans-48"/>
       <use x="63.623047" xlink:href="#DejaVuSans-46"/>
       <use x="95.410156" xlink:href="#DejaVuSans-54"/>
      </g>
     </g>
    </g>
    <g id="xtick_11">
     <g id="line2d_16">
      <g>
       <use style="stroke:#000000;stroke-width:0.8;" x="477.818182" xlink:href="#md1b56e8aef" y="189.792"/>
      </g>
     </g>
     <g id="text_17">
      <!-- 0.8 -->
      <g transform="translate(469.866619 204.390438)scale(0.1 -0.1)">
       <use xlink:href="#DejaVuSans-48"/>
       <use x="63.623047" xlink:href="#DejaVuSans-46"/>
       <use x="95.410156" xlink:href="#DejaVuSans-56"/>
      </g>
     </g>
    </g>
    <g id="xtick_12">
     <g id="line2d_17">
      <g>
       <use style="stroke:#000000;stroke-width:0.8;" x="518.4" xlink:href="#md1b56e8aef" y="189.792"/>
      </g>
     </g>
     <g id="text_18">
      <!-- 1.0 -->
      <g transform="translate(510.448437 204.390438)scale(0.1 -0.1)">
       <use xlink:href="#DejaVuSans-49"/>
       <use x="63.623047" xlink:href="#DejaVuSans-46"/>
       <use x="95.410156" xlink:href="#DejaVuSans-48"/>
      </g>
     </g>
    </g>
   </g>
   <g id="matplotlib.axis_4">
    <g id="ytick_6">
     <g id="line2d_18">
      <g>
       <use style="stroke:#000000;stroke-width:0.8;" x="315.490909" xlink:href="#me67468be98" y="189.792"/>
      </g>
     </g>
     <g id="text_19">
      <!-- 0.0 -->
      <g transform="translate(292.587784 193.591219)scale(0.1 -0.1)">
       <use xlink:href="#DejaVuSans-48"/>
       <use x="63.623047" xlink:href="#DejaVuSans-46"/>
       <use x="95.410156" xlink:href="#DejaVuSans-48"/>
      </g>
     </g>
    </g>
    <g id="ytick_7">
     <g id="line2d_19">
      <g>
       <use style="stroke:#000000;stroke-width:0.8;" x="315.490909" xlink:href="#me67468be98" y="153.942705"/>
      </g>
     </g>
     <g id="text_20">
      <!-- 0.2 -->
      <g transform="translate(292.587784 157.741924)scale(0.1 -0.1)">
       <use xlink:href="#DejaVuSans-48"/>
       <use x="63.623047" xlink:href="#DejaVuSans-46"/>
       <use x="95.410156" xlink:href="#DejaVuSans-50"/>
      </g>
     </g>
    </g>
    <g id="ytick_8">
     <g id="line2d_20">
      <g>
       <use style="stroke:#000000;stroke-width:0.8;" x="315.490909" xlink:href="#me67468be98" y="118.09341"/>
      </g>
     </g>
     <g id="text_21">
      <!-- 0.4 -->
      <g transform="translate(292.587784 121.892629)scale(0.1 -0.1)">
       <use xlink:href="#DejaVuSans-48"/>
       <use x="63.623047" xlink:href="#DejaVuSans-46"/>
       <use x="95.410156" xlink:href="#DejaVuSans-52"/>
      </g>
     </g>
    </g>
    <g id="ytick_9">
     <g id="line2d_21">
      <g>
       <use style="stroke:#000000;stroke-width:0.8;" x="315.490909" xlink:href="#me67468be98" y="82.244116"/>
      </g>
     </g>
     <g id="text_22">
      <!-- 0.6 -->
      <g transform="translate(292.587784 86.043334)scale(0.1 -0.1)">
       <use xlink:href="#DejaVuSans-48"/>
       <use x="63.623047" xlink:href="#DejaVuSans-46"/>
       <use x="95.410156" xlink:href="#DejaVuSans-54"/>
      </g>
     </g>
    </g>
    <g id="ytick_10">
     <g id="line2d_22">
      <g>
       <use style="stroke:#000000;stroke-width:0.8;" x="315.490909" xlink:href="#me67468be98" y="46.394821"/>
      </g>
     </g>
     <g id="text_23">
      <!-- 0.8 -->
      <g transform="translate(292.587784 50.19404)scale(0.1 -0.1)">
       <use xlink:href="#DejaVuSans-48"/>
       <use x="63.623047" xlink:href="#DejaVuSans-46"/>
       <use x="95.410156" xlink:href="#DejaVuSans-56"/>
      </g>
     </g>
    </g>
   </g>
   <g id="patch_8">
    <path d="M 315.490909 189.792 
L 315.490909 34.56 
" style="fill:none;stroke:#000000;stroke-linecap:square;stroke-linejoin:miter;stroke-width:0.8;"/>
   </g>
   <g id="patch_9">
    <path d="M 518.4 189.792 
L 518.4 34.56 
" style="fill:none;stroke:#000000;stroke-linecap:square;stroke-linejoin:miter;stroke-width:0.8;"/>
   </g>
   <g id="patch_10">
    <path d="M 315.490909 189.792 
L 518.4 189.792 
" style="fill:none;stroke:#000000;stroke-linecap:square;stroke-linejoin:miter;stroke-width:0.8;"/>
   </g>
   <g id="patch_11">
    <path d="M 315.490909 34.56 
L 518.4 34.56 
" style="fill:none;stroke:#000000;stroke-linecap:square;stroke-linejoin:miter;stroke-width:0.8;"/>
   </g>
   <g id="text_24">
    <!-- Vapor -->
    <defs>
     <path d="M 28.609375 0 
L 0.78125 72.90625 
L 11.078125 72.90625 
L 34.1875 11.53125 
L 57.328125 72.90625 
L 67.578125 72.90625 
L 39.796875 0 
z
" id="DejaVuSans-86"/>
     <path d="M 34.28125 27.484375 
Q 23.390625 27.484375 19.1875 25 
Q 14.984375 22.515625 14.984375 16.5 
Q 14.984375 11.71875 18.140625 8.90625 
Q 21.296875 6.109375 26.703125 6.109375 
Q 34.1875 6.109375 38.703125 11.40625 
Q 43.21875 16.703125 43.21875 25.484375 
L 43.21875 27.484375 
z
M 52.203125 31.203125 
L 52.203125 0 
L 43.21875 0 
L 43.21875 8.296875 
Q 40.140625 3.328125 35.546875 0.953125 
Q 30.953125 -1.421875 24.3125 -1.421875 
Q 15.921875 -1.421875 10.953125 3.296875 
Q 6 8.015625 6 15.921875 
Q 6 25.140625 12.171875 29.828125 
Q 18.359375 34.515625 30.609375 34.515625 
L 43.21875 34.515625 
L 43.21875 35.40625 
Q 43.21875 41.609375 39.140625 45 
Q 35.0625 48.390625 27.6875 48.390625 
Q 23 48.390625 18.546875 47.265625 
Q 14.109375 46.140625 10.015625 43.890625 
L 10.015625 52.203125 
Q 14.9375 54.109375 19.578125 55.046875 
Q 24.21875 56 28.609375 56 
Q 40.484375 56 46.34375 49.84375 
Q 52.203125 43.703125 52.203125 31.203125 
z
" id="DejaVuSans-97"/>
     <path d="M 18.109375 8.203125 
L 18.109375 -20.796875 
L 9.078125 -20.796875 
L 9.078125 54.6875 
L 18.109375 54.6875 
L 18.109375 46.390625 
Q 20.953125 51.265625 25.265625 53.625 
Q 29.59375 56 35.59375 56 
Q 45.5625 56 51.78125 48.09375 
Q 58.015625 40.1875 58.015625 27.296875 
Q 58.015625 14.40625 51.78125 6.484375 
Q 45.5625 -1.421875 35.59375 -1.421875 
Q 29.59375 -1.421875 25.265625 0.953125 
Q 20.953125 3.328125 18.109375 8.203125 
z
M 48.6875 27.296875 
Q 48.6875 37.203125 44.609375 42.84375 
Q 40.53125 48.484375 33.40625 48.484375 
Q 26.265625 48.484375 22.1875 42.84375 
Q 18.109375 37.203125 18.109375 27.296875 
Q 18.109375 17.390625 22.1875 11.75 
Q 26.265625 6.109375 33.40625 6.109375 
Q 40.53125 6.109375 44.609375 11.75 
Q 48.6875 17.390625 48.6875 27.296875 
z
" id="DejaVuSans-112"/>
     <path d="M 41.109375 46.296875 
Q 39.59375 47.171875 37.8125 47.578125 
Q 36.03125 48 33.890625 48 
Q 26.265625 48 22.1875 43.046875 
Q 18.109375 38.09375 18.109375 28.8125 
L 18.109375 0 
L 9.078125 0 
L 9.078125 54.6875 
L 18.109375 54.6875 
L 18.109375 46.1875 
Q 20.953125 51.171875 25.484375 53.578125 
Q 30.03125 56 36.53125 56 
Q 37.453125 56 38.578125 55.875 
Q 39.703125 55.765625 41.0625 55.515625 
z
" id="DejaVuSans-114"/>
    </defs>
    <g transform="translate(399.68233 28.56)scale(0.12 -0.12)">
     <use xlink:href="#DejaVuSans-86"/>
     <use x="60.658203" xlink:href="#DejaVuSans-97"/>
     <use x="121.9375" xlink:href="#DejaVuSans-112"/>
     <use x="185.414062" xlink:href="#DejaVuSans-111"/>
     <use x="246.595703" xlink:href="#DejaVuSans-114"/>
    </g>
   </g>
  </g>
  <g id="axes_3">
   <g id="patch_12">
    <path clip-path="url(#p61f09da5dc)" d="M 72 245.376 
L 103.885714 245.376 
L 486.514286 245.376 
L 518.4 245.376 
L 518.4 223.056 
L 486.514286 223.056 
L 103.885714 223.056 
L 72 223.056 
z
" style="fill:#ffffff;stroke:#ffffff;stroke-linejoin:miter;stroke-width:0.01;"/>
   </g>
   <g id="QuadMesh_1">
    <path clip-path="url(#p61f09da5dc)" d="M 72 245.376 
L 103.885714 245.376 
L 103.885714 223.056 
L 72 223.056 
L 72 245.376 
" style="fill:#040314;"/>
    <path clip-path="url(#p61f09da5dc)" d="M 103.885714 245.376 
L 135.771429 245.376 
L 135.771429 223.056 
L 103.885714 223.056 
L 103.885714 245.376 
" style="fill:#190c3e;"/>
    <path clip-path="url(#p61f09da5dc)" d="M 135.771429 245.376 
L 167.657143 245.376 
L 167.657143 223.056 
L 135.771429 223.056 
L 135.771429 245.376 
" style="fill:#380962;"/>
    <path clip-path="url(#p61f09da5dc)" d="M 167.657143 245.376 
L 199.542857 245.376 
L 199.542857 223.056 
L 167.657143 223.056 
L 167.657143 245.376 
" style="fill:#550f6d;"/>
    <path clip-path="url(#p61f09da5dc)" d="M 199.542857 245.376 
L 231.428571 245.376 
L 231.428571 223.056 
L 199.542857 223.056 
L 199.542857 245.376 
" style="fill:#741a6e;"/>
    <path clip-path="url(#p61f09da5dc)" d="M 231.428571 245.376 
L 263.314286 245.376 
L 263.314286 223.056 
L 231.428571 223.056 
L 231.428571 245.376 
" style="fill:#902568;"/>
    <path clip-path="url(#p61f09da5dc)" d="M 263.314286 245.376 
L 295.2 245.376 
L 295.2 223.056 
L 263.314286 223.056 
L 263.314286 245.376 
" style="fill:#ad305d;"/>
    <path clip-path="url(#p61f09da5dc)" d="M 295.2 245.376 
L 327.085714 245.376 
L 327.085714 223.056 
L 295.2 223.056 
L 295.2 245.376 
" style="fill:#c83f4b;"/>
    <path clip-path="url(#p61f09da5dc)" d="M 327.085714 245.376 
L 358.971429 245.376 
L 358.971429 223.056 
L 327.085714 223.056 
L 327.085714 245.376 
" style="fill:#df5337;"/>
    <path clip-path="url(#p61f09da5dc)" d="M 358.971429 245.376 
L 390.857143 245.376 
L 390.857143 223.056 
L 358.971429 223.056 
L 358.971429 245.376 
" style="fill:#ef6e21;"/>
    <path clip-path="url(#p61f09da5dc)" d="M 390.857143 245.376 
L 422.742857 245.376 
L 422.742857 223.056 
L 390.857143 223.056 
L 390.857143 245.376 
" style="fill:#f98c0a;"/>
    <path clip-path="url(#p61f09da5dc)" d="M 422.742857 245.376 
L 454.628571 245.376 
L 454.628571 223.056 
L 422.742857 223.056 
L 422.742857 245.376 
" style="fill:#fcb014;"/>
    <path clip-path="url(#p61f09da5dc)" d="M 454.628571 245.376 
L 486.514286 245.376 
L 486.514286 223.056 
L 454.628571 223.056 
L 454.628571 245.376 
" style="fill:#f7d340;"/>
    <path clip-path="url(#p61f09da5dc)" d="M 486.514286 245.376 
L 518.4 245.376 
L 518.4 223.056 
L 486.514286 223.056 
L 486.514286 245.376 
" style="fill:#f2f482;"/>
   </g>
   <g id="matplotlib.axis_5">
    <g id="xtick_13">
     <g id="line2d_23">
      <g>
       <use style="stroke:#000000;stroke-width:0.8;" x="72" xlink:href="#md1b56e8aef" y="245.376"/>
      </g>
     </g>
     <g id="text_25">
      <!-- 0.00020 -->
      <g transform="translate(51.323437 259.974438)scale(0.1 -0.1)">
       <use xlink:href="#DejaVuSans-48"/>
       <use x="63.623047" xlink:href="#DejaVuSans-46"/>
       <use x="95.410156" xlink:href="#DejaVuSans-48"/>
       <use x="159.033203" xlink:href="#DejaVuSans-48"/>
       <use x="222.65625" xlink:href="#DejaVuSans-48"/>
       <use x="286.279297" xlink:href="#DejaVuSans-50"/>
       <use x="349.902344" xlink:href="#DejaVuSans-48"/>
      </g>
     </g>
    </g>
    <g id="xtick_14">
     <g id="line2d_24">
      <g>
       <use style="stroke:#000000;stroke-width:0.8;" x="135.771429" xlink:href="#md1b56e8aef" y="245.376"/>
      </g>
     </g>
     <g id="text_26">
      <!-- 0.00022 -->
      <g transform="translate(115.094866 259.974438)scale(0.1 -0.1)">
       <use xlink:href="#DejaVuSans-48"/>
       <use x="63.623047" xlink:href="#DejaVuSans-46"/>
       <use x="95.410156" xlink:href="#DejaVuSans-48"/>
       <use x="159.033203" xlink:href="#DejaVuSans-48"/>
       <use x="222.65625" xlink:href="#DejaVuSans-48"/>
       <use x="286.279297" xlink:href="#DejaVuSans-50"/>
       <use x="349.902344" xlink:href="#DejaVuSans-50"/>
      </g>
     </g>
    </g>
    <g id="xtick_15">
     <g id="line2d_25">
      <g>
       <use style="stroke:#000000;stroke-width:0.8;" x="199.542857" xlink:href="#md1b56e8aef" y="245.376"/>
      </g>
     </g>
     <g id="text_27">
      <!-- 0.00024 -->
      <g transform="translate(178.866295 259.974438)scale(0.1 -0.1)">
       <use xlink:href="#DejaVuSans-48"/>
       <use x="63.623047" xlink:href="#DejaVuSans-46"/>
       <use x="95.410156" xlink:href="#DejaVuSans-48"/>
       <use x="159.033203" xlink:href="#DejaVuSans-48"/>
       <use x="222.65625" xlink:href="#DejaVuSans-48"/>
       <use x="286.279297" xlink:href="#DejaVuSans-50"/>
       <use x="349.902344" xlink:href="#DejaVuSans-52"/>
      </g>
     </g>
    </g>
    <g id="xtick_16">
     <g id="line2d_26">
      <g>
       <use style="stroke:#000000;stroke-width:0.8;" x="263.314286" xlink:href="#md1b56e8aef" y="245.376"/>
      </g>
     </g>
     <g id="text_28">
      <!-- 0.00026 -->
      <g transform="translate(242.637723 259.974438)scale(0.1 -0.1)">
       <use xlink:href="#DejaVuSans-48"/>
       <use x="63.623047" xlink:href="#DejaVuSans-46"/>
       <use x="95.410156" xlink:href="#DejaVuSans-48"/>
       <use x="159.033203" xlink:href="#DejaVuSans-48"/>
       <use x="222.65625" xlink:href="#DejaVuSans-48"/>
       <use x="286.279297" xlink:href="#DejaVuSans-50"/>
       <use x="349.902344" xlink:href="#DejaVuSans-54"/>
      </g>
     </g>
    </g>
    <g id="xtick_17">
     <g id="line2d_27">
      <g>
       <use style="stroke:#000000;stroke-width:0.8;" x="327.085714" xlink:href="#md1b56e8aef" y="245.376"/>
      </g>
     </g>
     <g id="text_29">
      <!-- 0.00028 -->
      <g transform="translate(306.409152 259.974438)scale(0.1 -0.1)">
       <use xlink:href="#DejaVuSans-48"/>
       <use x="63.623047" xlink:href="#DejaVuSans-46"/>
       <use x="95.410156" xlink:href="#DejaVuSans-48"/>
       <use x="159.033203" xlink:href="#DejaVuSans-48"/>
       <use x="222.65625" xlink:href="#DejaVuSans-48"/>
       <use x="286.279297" xlink:href="#DejaVuSans-50"/>
       <use x="349.902344" xlink:href="#DejaVuSans-56"/>
      </g>
     </g>
    </g>
    <g id="xtick_18">
     <g id="line2d_28">
      <g>
       <use style="stroke:#000000;stroke-width:0.8;" x="390.857143" xlink:href="#md1b56e8aef" y="245.376"/>
      </g>
     </g>
     <g id="text_30">
      <!-- 0.00030 -->
      <defs>
       <path d="M 40.578125 39.3125 
Q 47.65625 37.796875 51.625 33 
Q 55.609375 28.21875 55.609375 21.1875 
Q 55.609375 10.40625 48.1875 4.484375 
Q 40.765625 -1.421875 27.09375 -1.421875 
Q 22.515625 -1.421875 17.65625 -0.515625 
Q 12.796875 0.390625 7.625 2.203125 
L 7.625 11.71875 
Q 11.71875 9.328125 16.59375 8.109375 
Q 21.484375 6.890625 26.8125 6.890625 
Q 36.078125 6.890625 40.9375 10.546875 
Q 45.796875 14.203125 45.796875 21.1875 
Q 45.796875 27.640625 41.28125 31.265625 
Q 36.765625 34.90625 28.71875 34.90625 
L 20.21875 34.90625 
L 20.21875 43.015625 
L 29.109375 43.015625 
Q 36.375 43.015625 40.234375 45.921875 
Q 44.09375 48.828125 44.09375 54.296875 
Q 44.09375 59.90625 40.109375 62.90625 
Q 36.140625 65.921875 28.71875 65.921875 
Q 24.65625 65.921875 20.015625 65.03125 
Q 15.375 64.15625 9.8125 62.3125 
L 9.8125 71.09375 
Q 15.4375 72.65625 20.34375 73.4375 
Q 25.25 74.21875 29.59375 74.21875 
Q 40.828125 74.21875 47.359375 69.109375 
Q 53.90625 64.015625 53.90625 55.328125 
Q 53.90625 49.265625 50.4375 45.09375 
Q 46.96875 40.921875 40.578125 39.3125 
z
" id="DejaVuSans-51"/>
      </defs>
      <g transform="translate(370.18058 259.974438)scale(0.1 -0.1)">
       <use xlink:href="#DejaVuSans-48"/>
       <use x="63.623047" xlink:href="#DejaVuSans-46"/>
       <use x="95.410156" xlink:href="#DejaVuSans-48"/>
       <use x="159.033203" xlink:href="#DejaVuSans-48"/>
       <use x="222.65625" xlink:href="#DejaVuSans-48"/>
       <use x="286.279297" xlink:href="#DejaVuSans-51"/>
       <use x="349.902344" xlink:href="#DejaVuSans-48"/>
      </g>
     </g>
    </g>
    <g id="xtick_19">
     <g id="line2d_29">
      <g>
       <use style="stroke:#000000;stroke-width:0.8;" x="454.628571" xlink:href="#md1b56e8aef" y="245.376"/>
      </g>
     </g>
     <g id="text_31">
      <!-- 0.00032 -->
      <g transform="translate(433.952009 259.974438)scale(0.1 -0.1)">
       <use xlink:href="#DejaVuSans-48"/>
       <use x="63.623047" xlink:href="#DejaVuSans-46"/>
       <use x="95.410156" xlink:href="#DejaVuSans-48"/>
       <use x="159.033203" xlink:href="#DejaVuSans-48"/>
       <use x="222.65625" xlink:href="#DejaVuSans-48"/>
       <use x="286.279297" xlink:href="#DejaVuSans-51"/>
       <use x="349.902344" xlink:href="#DejaVuSans-50"/>
      </g>
     </g>
    </g>
    <g id="xtick_20">
     <g id="line2d_30">
      <g>
       <use style="stroke:#000000;stroke-width:0.8;" x="518.4" xlink:href="#md1b56e8aef" y="245.376"/>
      </g>
     </g>
     <g id="text_32">
      <!-- 0.00034 -->
      <g transform="translate(497.723437 259.974438)scale(0.1 -0.1)">
       <use xlink:href="#DejaVuSans-48"/>
       <use x="63.623047" xlink:href="#DejaVuSans-46"/>
       <use x="95.410156" xlink:href="#DejaVuSans-48"/>
       <use x="159.033203" xlink:href="#DejaVuSans-48"/>
       <use x="222.65625" xlink:href="#DejaVuSans-48"/>
       <use x="286.279297" xlink:href="#DejaVuSans-51"/>
       <use x="349.902344" xlink:href="#DejaVuSans-52"/>
      </g>
     </g>
    </g>
    <g id="text_33">
     <!-- atm -->
     <defs>
      <path d="M 18.3125 70.21875 
L 18.3125 54.6875 
L 36.8125 54.6875 
L 36.8125 47.703125 
L 18.3125 47.703125 
L 18.3125 18.015625 
Q 18.3125 11.328125 20.140625 9.421875 
Q 21.96875 7.515625 27.59375 7.515625 
L 36.8125 7.515625 
L 36.8125 0 
L 27.59375 0 
Q 17.1875 0 13.234375 3.875 
Q 9.28125 7.765625 9.28125 18.015625 
L 9.28125 47.703125 
L 2.6875 47.703125 
L 2.6875 54.6875 
L 9.28125 54.6875 
L 9.28125 70.21875 
z
" id="DejaVuSans-116"/>
      <path d="M 52 44.1875 
Q 55.375 50.25 60.0625 53.125 
Q 64.75 56 71.09375 56 
Q 79.640625 56 84.28125 50.015625 
Q 88.921875 44.046875 88.921875 33.015625 
L 88.921875 0 
L 79.890625 0 
L 79.890625 32.71875 
Q 79.890625 40.578125 77.09375 44.375 
Q 74.3125 48.1875 68.609375 48.1875 
Q 61.625 48.1875 57.5625 43.546875 
Q 53.515625 38.921875 53.515625 30.90625 
L 53.515625 0 
L 44.484375 0 
L 44.484375 32.71875 
Q 44.484375 40.625 41.703125 44.40625 
Q 38.921875 48.1875 33.109375 48.1875 
Q 26.21875 48.1875 22.15625 43.53125 
Q 18.109375 38.875 18.109375 30.90625 
L 18.109375 0 
L 9.078125 0 
L 9.078125 54.6875 
L 18.109375 54.6875 
L 18.109375 46.1875 
Q 21.1875 51.21875 25.484375 53.609375 
Q 29.78125 56 35.6875 56 
Q 41.65625 56 45.828125 52.96875 
Q 50 49.953125 52 44.1875 
z
" id="DejaVuSans-109"/>
     </defs>
     <g transform="translate(285.305469 273.652562)scale(0.1 -0.1)">
      <use xlink:href="#DejaVuSans-97"/>
      <use x="61.279297" xlink:href="#DejaVuSans-116"/>
      <use x="100.488281" xlink:href="#DejaVuSans-109"/>
     </g>
    </g>
   </g>
   <g id="matplotlib.axis_6"/>
   <g id="patch_13">
    <path d="M 72 245.376 
L 103.885714 245.376 
L 486.514286 245.376 
L 518.4 245.376 
L 518.4 223.056 
L 486.514286 223.056 
L 103.885714 223.056 
L 72 223.056 
z
" style="fill:none;stroke:#000000;stroke-linejoin:miter;stroke-width:0.8;"/>
   </g>
  </g>
 </g>
 <defs>
  <clipPath id="p0b9812fb89">
   <rect height="155.232" width="202.909091" x="72" y="34.56"/>
  </clipPath>
  <clipPath id="p50497fcdf7">
   <rect height="155.232" width="202.909091" x="315.490909" y="34.56"/>
  </clipPath>
  <clipPath id="p61f09da5dc">
   <rect height="22.32" width="446.4" x="72" y="223.056"/>
  </clipPath>
 </defs>
</svg>
