<svg xmlns="http://www.w3.org/2000/svg" xmlns:xlink="http://www.w3.org/1999/xlink" viewBox="0 0 1920 1000"><defs><style>.cls-1{fill:none;}.cls-2{fill:#f4f4f8;}.cls-3{fill:url(#Motivo_nuevo_4);}</style><pattern id="Motivo_nuevo_4" data-name="Motivo nuevo 4" width="331" height="318" patternUnits="userSpaceOnUse" viewBox="0 0 331 318"><rect class="cls-1" width="331" height="318"/><path class="cls-1" d="M164.22,158.43c3.47,11.6,3.53,12.77.23,24.78-2.57,9.35-2,18.74-.72,28.18.21,1.57,1.21,3.53-.33,4.71s-3.09-.5-4.48-1.22c-8.73-4.57-14.8-11.18-17.16-21.13-1.25-5.29-3.61-10.33-5.49-15.47-.57-1.54-1.51-3-1.24-6,.25-.87.27-3.42,1.53-4.91,4.12-4.84,7.9-9.82,10.23-15.78a1.3,1.3,0,0,1,.28-.41c2.44-2.38,15.49,1.06,16.44,4.34C163.79,156.49,163.93,157.48,164.22,158.43Zm-7.57,9c-1.7-1.24-3.54-2.71-5.31-1.18-2.41,2.09-6.78,4.19-5.82,7.42,2.79,9.45,1.2,20.1,7.71,28.5a2.33,2.33,0,0,0,3-1.46c.77-8.59,1.2-17.22,3.51-25.6C160.68,171.8,159.38,169.39,156.65,167.42Z"/><path class="cls-1" d="M331,71.51v53.28c-6.19-3.11-10.81-7.66-12.95-14.4a5.77,5.77,0,0,0-2.54-3.47c-9-5.57-10.07-10-4.84-19.23,1-1.72,2.11-3.25,1.86-5.5-.58-5.36,1.5-9.54,6.53-11.72C323.28,68.64,328.08,68.77,331,71.51ZM320.74,83.69c3,4.25,2.45,5.94-2.73,9-.83,4.6,2.05,3.3,4.44,2.79A12.38,12.38,0,0,0,327,86.56C325.19,80.52,324.25,80.09,320.74,83.69Z"/><path class="cls-1" d="M251.35,309.09a7.63,7.63,0,0,1,4.89-3c4.75-.68,7.45-3.18,8.46-8.26,2.81-14.15,11.64-23.12,25.23-27.59,1.58-.52,3.14-1.11,4.7-1.69.75-.27,1.83-.47,1.58-1.53-.74-3.05-.67-7.19-2.65-8.85a30.84,30.84,0,0,1-10.72-18.52c-.72-3.57-4.65-2.93-7.17-2.8-2.81.14-1.28,2.81-1.19,4.37a21.8,21.8,0,0,1-1.43,9.78,5.22,5.22,0,0,0,.19,5.13c4.73,8.31,4.89,16.85-1.32,24.21-6.55,7.77-15.44,10.9-25.56,8.43-3.31-.81-3.81.36-4.56,3-3.32,11.71-11.84,16.95-23.84,15-1.45-.24-3.13-1.21-4.36-.25-4.87,3.81-10,2.13-15.24,1.3-9.92-1.58-17.67,2.55-20.89,10.23H239.7A33.06,33.06,0,0,0,251.35,309.09Z"/><path class="cls-1" d="M0,286.85V318H3.6c.23-2.41.92-4.86,1.41-7.38A31.41,31.41,0,0,0,0,286.85Z"/><path class="cls-1" d="M311.82.31A11.52,11.52,0,0,0,313.14,0h-5.23A7.27,7.27,0,0,0,311.82.31Z"/><path class="cls-1" d="M136.12,301.39c9.45,3,15.71,10.29,22.71,16.61H143.2c-13.33-11.82-28.7-19.44-47.14-20.61-6.73-.43-7.73-2.19-4.72-8.35,3.2-6.53,3.18-6.52,8-1.09,3.67,4.13,8.05,6.94,13.79,7s11-1.66,14-7,2.4-11-.42-16.23c-3.73-6.93-11.45-6.93-17.2-.25,0,2.4-2.47,6.11,3,5.57a19.57,19.57,0,0,0,1.06-2.22c1.4-4.13,5.36-5.39,8.28-2.37s3.39,7.17,2.51,11.19c-.82,3.81-3.69,5.78-7.36,6.57-6.93,1.48-14.56-2.63-16.68-9.47-2.28-7.39-2-14.72,2.35-21.49a4,4,0,0,0-3.61-3.44,16.34,16.34,0,0,1-10.36,4.31A11.11,11.11,0,0,0,82,262.62l0,1.7c5.76,3,8.91,13.6,6,21.05-3.59,9.1-10.61,14.32-20,16-9.1,1.63-17.9.38-25.64-5.11-2.28-1.61-4.18-2.11-6.78-.83-3.07,1.51-6.42,1.41-9.73.65-1.17.36-1.13,1.32-1.1,2.26a21.66,21.66,0,0,1,.24,15,9.17,9.17,0,0,0-.66,4.65H8.51a26.06,26.06,0,0,1,.68-7.12C11.61,299.44,8.13,288.64,0,280.3V258.39c.54.46,1.08.92,1.59,1.4,1.94,1.82,3.6,4.57,5.86,5.22,2.43.7,3.39-3,5.5-4.32,4.93-3,11.85-3.16,16,0s6.61,11.46,4.84,16.41c-.94,2.62-2.93,3.47-5.49,3.33-2.81-.16-4.71-1.53-5.37-4.34-.37-1.6-.64-3.23-1-4.84-5.09-.23-3,3.64-3.44,6.05,3.38,6.63,8.22,9.06,14,7,4.26-1.5,6.78-5.24,7-10a19.69,19.69,0,0,0,3.81,10.08c4,5.72,9.79,8,16.51,6.32s10.89-6.43,10.74-12.55c-.15-6.31-3.58-10.07-10.68-11.71a22.61,22.61,0,0,0-3.58,1.25c-1.3.7-2.44,1.83-2.14,3.47.39,2.13,1.89,2.34,3.67,1.67,2.47-2.55,4.76-1.91,6.73.56a8.46,8.46,0,0,1-1,10.91,11.11,11.11,0,0,1-17.13-3.15c-2.91-5.33-2.1-18.8,4.88-22.63l.06-1.9c-2.18-4.84-4.13-9.79-6.6-14.47-2.26-4.29-1.25-7.75,1.91-10.77,6.15-5.86,13.79-7.54,21.93-6.62,6.65.76,8.91,6.4,10.85,11.68,1.51,4.12-.31,7.81-3.25,10.86-1.81,1.89-4,3-6.68,2.56s-4.88-1.68-5.64-4.31c-.92-3.16,2.42-2.9,3.87-4.17-.14-3-1.85-3.59-4.32-2.69-3.63,1.31-5,4-4.53,7.77q1.08,1.94,2.14,3.87l.94,1c7.69,4.07,12,3.94,16.8-.53,5.68-5.34,7-12.29,3.22-19.49A17.06,17.06,0,0,1,80,220.1c1.29-8.85-4.76-16.15-13.89-17.41a10.83,10.83,0,0,1-6.41-3.19c-7.89-7.49-21.24-6.47-28.33,2-4.74,5.68-6.37,5.81-12.31,1-1.6-.61-3.14-1.57-5-.81a75.75,75.75,0,0,1,2.21,7.56c2.26,12.07-5.09,20.15-16.26,18.45v-16c.94-.93.56-2.1,0-3.29V187.78c2.18,1.35,3.42,3.66,3.67,6.93.44,1.39-.45,3.77,2,3.74s2.4-2.25,2.52-4A33.49,33.49,0,0,0,8,190.58c-2.39-3.66-5-6.11-8-7.42V170.9a26.38,26.38,0,0,0,7.88,1.69A4.69,4.69,0,0,1,11.79,175c8.42,12.41,20.78,11.71,27.5-1.47,0-2,1.81-4.51-.95-5.7-2.19-.95-2.49,1.46-3.26,2.8-.29,4.46-2.54,7.56-6.87,8.55a10.58,10.58,0,0,1-11-4c-2.81-3.51-2.17-7.47-.69-11.3.91-2.35,2.68-2.69,4.8-1.4,1.67-.78,2.54-2,1.93-3.88-3.84-2.07-8.69-1.44-12.17-4.7-1-.94-2.89-.54-4.27.26-1.19.68-2.35,1.59-2.06,3.08.34,1.75,1.71,1.68,3.14,1.24,3-.93,3.43,1.29,3.53,3.29.22,4.44-3.18,7-7.61,5.95A10.43,10.43,0,0,1,0,166V146.63H0V131.51c2,2.21,3.93,4.6,5.87,7,8.22,10.12,19.93,14.69,32.07,18.16,4.94,1.41,9.35,2.49,11.93,8.18s10.67,7.15,16.24,4.37c5.19-2.59,7.57-8.13,5.7-13.38-.69-2-1.74-3.74-4-4-2.5-.25-4.11,1.19-4.86,3.44-.43,1.28.17,2.15,1.63,2.51,3.65.89,4.25,3.05,1.74,5.88-4.19,4.7-12.4,2.68-14.23-3.9-1-3.51-2.86-4.72-6-5.49a125.86,125.86,0,0,1-18.52-5.92c-10-4.13-18.39-10.07-23.53-19.86a8.22,8.22,0,0,0-4-3.42V72.18a7.42,7.42,0,0,1,.65.88C5.58,81,13.33,83.31,21,86.26a10.67,10.67,0,0,1,2.05,1.35,3,3,0,0,0,.89-.08c.08-6.81-.05-13.62,1.82-20.3C30.06,52,40.42,42.81,56.15,41c3.23-.37,4.69-1.53,6.14-4.48,6.27-12.78,17.31-19.13,31-20.35,12.57-1.12,22.56,4.26,29.87,14.59,10.09,14.27,12.2,31.87.75,46.24-1.39,1.76-1.27,2.93.1,4.73,4.45,5.8,4.07,9.9-1.41,14.62-5.11,4.39-10.86,7.62-17.82,8a5,5,0,0,1-.82.29c.1,17.56-6.06,31.81-21.79,40.9-2.66,1.54-1.36,3.27-.69,5.08,4.78,13-1.24,24.53-14.75,28-4.18,1.07-8.39,2.09-12.77,2a5.67,5.67,0,0,0-.14,4.17,27.3,27.3,0,0,1,14.28,3.87,13.55,13.55,0,0,0,3.57,1.74c13.79,2.87,18.37,13.14,20.14,25.39.67,4.61.85,9.13,3.43,13.31,2.11,3.41,2,7.38.48,11.1-1.25,3.11-.07,4.72,2.94,4.45,7-.63,10,3.46,11.64,9.23.73,2.49,1.56,4.25,4.72,3.7,16.59-2.9,27.05,11.19,25.62,26.91a31,31,0,0,1-5,15ZM42.87,135.24c15.4,7.89,35.81-4.05,39.19-21.53,1.63-8.44-.62-15.56-7.54-20.8-2.41-1.83-3-3.52-1.94-6.32,1.41-3.79,2-7.74.39-11.7-2.69-6.81-10.77-10.76-17.1-8.33-6,2.3-7.48,6.6-4.7,13.89l0,0a2.4,2.4,0,0,1,1.86,2.15c2.58,0,5.28.46,7.32-1.79-.25-1.7-1.14-2.74-2.94-2.74-2,0-3.14-.85-3.3-2.9s1-3.42,2.8-4.27c3.26-1.56,6.2-.62,8.82,1.45,3.14,2.46,4.58,5.73,3.5,9.68a31.32,31.32,0,0,1-2.53,6.41c-1.62,3-1.88,4.8,2.16,6.48,7.92,3.3,11,10.34,8.63,18.9C74.9,123.41,68.79,130,59,132.11c-9.37,2.06-17.53-.77-23.6-8.31-6.28-7.81-9.31-17.19-4-25.92,4.53-7.41,6.71-14,6.06-22.8C36.86,66.89,42.64,60.56,50.24,57c6.16-2.93,12.21-2.6,17.7,1.89L70,58.75A36.84,36.84,0,0,1,71.74,48C75.22,35.61,84.88,28.82,96.56,30.4c13,1.77,22.35,12.09,22.29,24.71A21,21,0,0,1,105.42,74.9C96.6,78.18,86.9,74.28,83.76,66,82,61.39,82.3,56.81,85.47,52.8a10.41,10.41,0,0,1,10.15-4.08c5.12.74,8.51,5.85,6.73,10.15-.89,2.16-2.49,3.62-4.94,3.52a3.34,3.34,0,0,1-3.47-3.5c-.08-1.64-.45-3.27-2.47-2.85-1.74.36-1.88,2.15-1.85,3.68A6.76,6.76,0,0,0,93.79,66c3,1.4,6.13,1.45,8.9-.77,3.54-2.83,5.21-6.5,4.22-11-1.09-5-4.36-8.17-9.21-9.55C87.39,41.78,77,51.44,78.38,62.63,80.19,77.63,97.6,85.27,111,77c10.58-6.57,14.86-19.36,10.52-31.46C116.92,32.63,103.26,24.23,90,26.18,77.61,28,70.81,35.91,67.31,47.28c-.77,2.48-1.24,4.87-4.89,4C48,47.66,29.85,62.59,33.11,81.82a9,9,0,0,1-2.2,8C20.06,103.35,22.83,125,42.87,135.24ZM39,100.48a12.26,12.26,0,0,0-.23,13.22,16.26,16.26,0,0,0,13.66,8.67,17.45,17.45,0,0,0,15.8-10.23c1.66-4,1.46-7.89-1.24-11.28s-6.29-4.1-10.3-2.52a3.08,3.08,0,0,1-3.54-.59C48.12,93.82,42.33,95,39,100.48Zm55.18,14.63a83.56,83.56,0,0,0,1.46-16.84c0-2.94.8-4.67,4.19-4.7a29.64,29.64,0,0,0,15.89-5.11c1.69-2.49,4.3-5.32-1.82-4.92-3.46,4.54-8.47,5.29-13.65,5.4-3.11.06-6.24-.2-9.36-.32-.11.65-.21,1.29-.32,1.93,1,8.31,1.05,16.6-.9,24.78-4.45,18.57-22.07,30.19-42.54,28.15-17.31-1.73-30.31-15.57-31.28-33.3a12.63,12.63,0,0,1,.12-1.49l-1-.93A9.3,9.3,0,0,1,7.55,106c-4-3.14-3.25-8.09,1.43-10.34.73-5-2.32-3.6-4.94-2.92-5.76,7.42-4.19,15,4.26,18.54,2.85,1.19,3.44,3,4.06,5.52,5,19.89,20.09,31.7,40,31.35C73.52,147.73,89.83,134.86,94.18,115.11Z"/><path class="cls-1" d="M51.41,305.41a118,118,0,0,1-11.27-5.17c-4.06-2.09-9,1.13-9.65,5.55A51.15,51.15,0,0,0,29.63,318h17l5.88-6.48C54.76,309,55,306.8,51.41,305.41Z"/><path class="cls-1" d="M324.41,186.44c-6.27.44-10.46,4.65-10,10,.21,2.48,1.12,4.18,4,3.83,5.11-.62,8.9,1.69,12.15,5.3.17.45.33.86.47,1.25V187.44A12.72,12.72,0,0,0,324.41,186.44Z"/><path class="cls-1" d="M260.82,311.8c-.9-1.3-2.24-1.2-3.59-1.11-1.7.11-2.59,1.39-3.61,2.45A41.47,41.47,0,0,1,248,318h11.18c.53-1,1.07-1.95,1.58-2.93A2.88,2.88,0,0,0,260.82,311.8Z"/><path class="cls-1" d="M192.66,152.8c-2.65-.09-5.29-.44-7.94-.69a5.55,5.55,0,0,0-.95,4.58c9.48,8.26,10,12,3.31,22.45s-9.9,21.38-7.55,33.7A32.85,32.85,0,0,0,191,232.19c4.34,3.68,3.43,13.44-1.69,16.11-4.74,2.48-9.38,5-13.18,8.87-1.94,2-3.58,1.54-4.6-.89-3.16-7.58-8-14.1-12.65-20.78l-2-2c-5.11-3-9.72-6.89-15.69-8.39-2-.51-3-2.52-3.23-4.63v0c-5.38-4.34-9.26-9.27-10.26-16.68-1.14-8.46-5-16.19-9.81-23.28-1.62-2.39-1.63-4.62-1.27-7.46,1.14-9,3.2-17.17,10.49-23.56,3.33-2.92,4.32-7.82,5-12.3.5-3.09,1.76-5.31,5-6a1.25,1.25,0,0,0,.46-.19c6.63-4.33,12.63-5.94,18.41,1.89,2.33,3.16,7.05,3.78,11.11,3.35a10.73,10.73,0,0,1,8.21,2.64,62.15,62.15,0,0,0,18,9.64c1.21.42,3,.57,2.83,2.29C196,152.86,194.1,152.85,192.66,152.8Zm-25.37,41.69c.34-7.91,1.68-15.84,7.82-21.86.92-1.39.3-2.72-.17-4-7.17-8.39-8.42-14.56-4.29-21.17.1-1.95-1.25-1.5-2.35-1.4-7.6.68-15.16,1.06-22.21-2.7-2.58-1.37-2.45,1.22-3.39,2.24-.44,8.14-4.39,14.3-10.82,19h0c-.21,2.8-.55,5.56-2.19,8,0,1,0,2-.05,3.06a78.39,78.39,0,0,1,9.91,29.06,2.45,2.45,0,0,1,.36.81,13.9,13.9,0,0,1,7.88,8.09l1.94,2.2c8.68,2.46,14.36,8.62,19.07,15.8a49,49,0,0,1,6,11.95c4.33-.4,7.14-2.39,7.37-7.07C169.76,225.12,166.62,210.36,167.29,194.49Z"/><path class="cls-1" d="M318.74,314c3.49-4.57,3.7-9.46,1.24-14.47-2.69-5.49-7-8.71-13.3-8.93-13.16-.47-22.4,11.47-20.44,26.46l.15,1h14.95l-.57-.67c-1.86-8,.31-12.77,6.24-13.66,2.69-.4,4.36.28,3.43,3.48-2.48.76-5.45.91-5.82,4.41a5.64,5.64,0,0,0,2.32,5.68,6.87,6.87,0,0,0,1.47.76h4.27a14.94,14.94,0,0,0,2.27-.91A10.43,10.43,0,0,0,318.74,314Z"/><path class="cls-1" d="M224.51,7.46c2.4,2.08,4.08,3.37,5.57,4.85,12.15,12.12,15.86,26.83,13.25,43.46C243,58,242,60.23,244.65,62c4,2.61,7.8,5.51,12,8.54-.88-6-1.72-11.65-.71-17.21.75-4.12,0-7.73-1.15-11.62-4.39-14.5-2.47-28.37,4.28-41.7H248a24.5,24.5,0,0,1-4.75,2.79A49.46,49.46,0,0,1,224.51,7.46Z"/><path class="cls-1" d="M9.55,244.49c11.76,4.23,19.14-5.73,28.75-8.25.37-.1.65-.73.88-1.16,7-13.14,18.74-16,32.25-14.33,3.76.46,4.44-1,4.26-4-.3-5.23-5.1-9.65-11.32-9.91a8.47,8.47,0,0,1-6.08-2.71c-6.74-6.68-12-7.32-20-2.69-4,2.26-5.43,6-3.63,9.08s5.14,3.32,9.49.66c3.94.87,3.3,2.86,1.28,5.2-6.22,1.87-11.39,1.11-16-4.27-2.92-3.41-7.38-1.37-8.18,3.1C19.1,227,11.69,233.14,0,232.21v14.68C2.8,244.48,6.33,243.33,9.55,244.49Z"/><path class="cls-1" d="M328.93,283.73c-12.66-13.38-24.6-13.36-39.13-8.79-13.05,4.12-21.8,17.53-22,32.05,0,4.14-.62,7.67-3.4,11l0,0h17.67c0-.72,0-1.45-.1-2.21-.7-8.75,1.42-16.89,8-23.24s17-8,24.56-4.38a20.22,20.22,0,0,1,11.15,19.6A16.08,16.08,0,0,1,321,318h10V286.14C330.35,285.32,329.67,284.52,328.93,283.73Z"/><path class="cls-1" d="M5.2,257c1.74,2.62,3.49,1.17,5.44,0,12.41-7.21,25.6-1.19,28.58,13a18.55,18.55,0,0,1,.33,2.27,22.62,22.62,0,0,1,4.23-11.54c2.43-3.61,2.42-6.61.48-10.09-.89-1.6-1.71-3.24-2.44-4.92-1.9-4.42-5.27-5.29-8.79-2.62-7.48,5.69-15.35,8.31-24.7,5.67a5.45,5.45,0,0,0-6.4,2.89C.46,254.65,4,255.2,5.2,257Z"/><path class="cls-1" d="M284.24,9c-7.62,8.6-9.76,18.69-6.81,29.79a18.72,18.72,0,0,1,.45,7.85c-1.92,12.68,2,22.73,13.88,28.64,3.39,1.69,2.53,3.29,1.2,5.79-8.17,15.38-4.74,31.14,8.69,40.66l-.18,1.66c-6.69,3.84-10,10-11.16,17.28-1,6.34,1.56,11.47,6.78,15,4.39,3,9.19,2.66,13.65.06,4-2.35,5.37-6.21,4.59-10.7-.5-2.84-1.62-5.73-4.65-6.56-3.18-.86-4.59,1.9-6.05,4.12-3.46,2.35-3.29-.28-3.43-2.5,3.34-4.6,6.94-8.51,13.36-5.19,1.94,1,2.95-.66,4.21-1.57,2.31-.07,3.34,1,3.08,3.33-3,1.9-2.32,4.51-1.14,7,1.28,2.71,3.58,2.63,5.94,1.55,1.29-.59,2.38-1,3.59.21,1.54,1.55.22,2.7-.39,4-3.43,7.1-2.88,13,1.15,16.27V130a10.87,10.87,0,0,0-2.48-1.73c-6.41-3.34-11.29-8.18-14-15a7.3,7.3,0,0,0-3.19-3.62c-8.1-5.22-10.06-11.63-6.13-20.54a35.21,35.21,0,0,0,3.07-10.34c1.26-10.68,12.17-16.49,22.1-12.15l.59.28V37.79a14.36,14.36,0,0,1-9.06,5.11c-7.53.92-11.1-2.82-12.83-8.21-1.4-4.39,1.71-9.34,5.89-9.85,1.2-.15,2.37-.14,3.08,1.06,1,1.75-.77,1.9-1.55,2.35-2.89,1.68-4.85,3.51-2.79,7.16,1.92,3.4,4.62,4.37,8.24,3.23,4.52-1.43,7.46-4.11,7.62-9.19.19-5.8-2.31-10.87-7.18-12.43-10.1-3.22-22.51-1.62-26.21,11.84-.86,3.15-.11,6.28-.36,9.41-.17,2.12,0,4.17-1.28,6.2-2.79,4.42-1.65,9.22,2.43,11.65,2.9,1.74,7,0,9.9-4.2,5-.33,3.44,2.27,2.14,4.76-5.64,4.81-10.81,5.32-15.67,1.56-5.25-4.06-6.2-9.15-2.63-15.9,1.29-2.43.77-4.86.89-7.3.48-10,4.08-18.45,13.91-22.22a23.55,23.55,0,0,1,21.06,1.65,14.47,14.47,0,0,1,4.4,4V0h-9.93A19.87,19.87,0,0,1,316,3.57C310.27,6.4,304.35,4.78,301.6,0H286.44c0,.16.05.32.08.48A8.88,8.88,0,0,1,284.24,9Z"/><path class="cls-1" d="M87.47,301.88C73.33,303,61.3,308,52.23,318h26a52.05,52.05,0,0,1,33.45,0h25C122.58,306.81,106.49,300.4,87.47,301.88Z"/><path class="cls-1" d="M16.89,33.29c-.23,2.18-.56,4.35-.91,6.94,11.31-9.59,18.93-14,28.89-16.22a11.18,11.18,0,0,0,6.54-4,73.5,73.5,0,0,1,16-14.2A53.45,53.45,0,0,1,79.19,0H52.43c-.74.8-1.48,1.62-2.2,2.48-4.1,4.91-7.48,10-14.71,10-.84,0-1.66,1-2.49,1.47-1.87.15-3.75,4.4-5.6,0,0-4.86.33-9.85-4.3-13.21l0-.76H8A6.64,6.64,0,0,0,9.51,4.56C16,13.06,18,22.8,16.89,33.29Z"/><path class="cls-1" d="M173.05,318H159.38l1.18-.8c2.19-11,9.39-17.61,19.35-21.72.24-.6.49-1.19.73-1.78-5.37-2.79-10.93-4.76-17.13-4.38-2.78.16-3.74-1.53-3.84-4.08a107.57,107.57,0,0,0-.71-11.92c-2.65-17.11-11.79-29-28.64-34.2-3.52-1.09-5.35-3.59-7.85-6-8.23-7.83-8.45-18.37-11.22-28.08-2.48-8.72-5.39-17.15-12.71-23.21a3.09,3.09,0,0,1-.76-4.42,30.66,30.66,0,0,0,4.46-22.89c-.65-3.45,2.19-5.22,4.66-6.93h0a3,3,0,0,1,2.16-2.75l.91-1.19a3.16,3.16,0,0,1,2-3v0c2.08-5.57,5.09-10.82,6-16.82.33-2.28,2.22-2.65,3.89-3.34,18.93-7.75,25.6-18.88,22.83-39A22.47,22.47,0,0,1,146.12,70c8.35-22.25.88-45.1-20-61.83A50,50,0,0,0,111.41,0h25.83a67.53,67.53,0,0,1,12.13,13.27c5.74,8.24,8.59,17.54,9.45,27.49C161,44.17,162.5,43,163.7,40a7,7,0,0,1,.42-6.65c6.78-11.25,25.14-16.94,38.72-11.94a29,29,0,0,1,19,32,24.35,24.35,0,0,1-28.61,20c-11.47-2.29-18.4-14.77-14.05-25.3a15,15,0,0,1,17.47-9c7.88,2.09,11.55,11.64,6.53,17.3-2.71,3.06-6.2,4.13-9.84,1.86-2.84-1.77-4-4.4-1.61-7.53.7-2,1.64-4.17-1.66-4.85-4.9,5.19-5.32,10.12-1.23,14.46s11,4.53,15.88.58A13.75,13.75,0,0,0,209.06,46a15.32,15.32,0,0,0-13.21-11.37c-14.06-2.08-25.14,11-21.59,25.35,2.23,9,8.21,14.59,16.92,17.42,6.27,2,6.27,2,4,8.13-5.66,15.43,4.11,30.3,19.19,29.22,10.78-.77,18-11.43,14.2-21-3.18-8.05-13.26-10.9-19.3-5.45-4.68,4.22-4.44,10,.6,14.6,3.37-.21,2.33-2.34,1.83-4.23-2.4-4.58-.15-8.62,4.9-8.79,5.46-.19,9.61,5.17,8.48,11a11.05,11.05,0,0,1-8.28,9.08,13.76,13.76,0,0,1-14.23-3.72c-4.81-4.8-6-10.73-4-17.06,2.37-7.47,7.75-12,15.41-13.31,18.21-3.15,32.16,13.43,27.08,32-5.94,21.76-33.66,29.11-52,13.75-4.4-3.69-8.57-7.48-5.68-14.28a7.92,7.92,0,0,0-.66-6.82c-3.13-5.25-3.72-11-4.88-16.86-1.87-9.42-11.76-13.82-19.12-9.23-4.77,3-6.37,8.67-3.58,12.93,2,3,4.79,4.2,8.19,3.08a4.31,4.31,0,0,0,3-5.48c-.75-2.39-2.53-1.19-4-.19a1.93,1.93,0,0,1-3-.61,3.91,3.91,0,0,1,.23-4.26c1.81-2.83,6.56-3.43,9.87-1.11a9.91,9.91,0,0,1,4.13,11c-.79,3.3-.51,5.41,2.24,7.76,3.31,2.84,3.68,7,2.34,11.07s-6.32,6.49-9.57,4.64c-1.55-.88-2.6-2.2-2.19-4.08.37-1.72,1.62-1.84,3.11-1.39,1.26.38,2.44.07,2.82-1.28.43-1.56-.77-2.47-1.87-3.19-3.41-2.21-8.12.4-8.89,4.89-1.08,6.33,4.9,11.94,11.82,10.13,4.55-1.19,6.86.29,9.73,3.34a38.33,38.33,0,0,0,41.68,9.77c20.64-8.06,28.18-33.85,14.76-50.32-5.23-6.41-12.42-9.22-20.48-11.06,4.76-8,8.47-16.06,7-25.55-3-20.06-21-32.23-42.38-28.62-7.42,1.25-9-.17-8.43-7.77a23.41,23.41,0,0,1,2-8.17H239.9a23.33,23.33,0,0,1-16.77,2,22.51,22.51,0,0,0-10.88.09,12.86,12.86,0,0,1-9.62-.77c-1.73.13-3.76-.32-4,2.42-.25,3.14,3.13,1.68,4,3.3,18.66-1,34.51,13.23,36.86,33.28.82,7,.64,14-2.26,20.58a2.65,2.65,0,0,0,.54,2.74c14.56,6.21,22.61,17.71,25.28,32.83,2.82,16-4.1,28.52-16.06,38.51-4.69,3.92-9.71,7.67-16.39,7.5l-1,1.11c.87,5.62,3.67,10,8.7,12.65,2.8,1.49,2.65,3.39,1.58,5.81s-2.9,2.29-4.95,1.44a39.9,39.9,0,0,0-33.82.81c-2.67,1.26-4.67,1.28-5.87-2-1.34-3.71,1.3-3.94,3.58-4.23a19.56,19.56,0,0,0,14.1-8.38c.92-2.22,1-4-2.12-4.17-12.93,1.21-24.14-3-34-11.07a11.62,11.62,0,0,0-9-2.86c-8.51.72-13.89-3.89-15.92-12.91-1.27-1-.66-3.7-3.2-3.57-2.17,7.2-7.83,10.51-14.45,12.22-4.21,1.08-6,3.17-6.33,7.43a26.19,26.19,0,0,1-10.63,19c-2.75,2.12-4.13,4.43-3.6,8a17.52,17.52,0,0,1-1.29,9.79c-2,4.29-1.22,7.58,1.57,11.36,6.14,8.3,9.25,18,10.72,28.12.45,3.09,1.3,5.45,4.26,7.28,4.06,2.51,6.14,6.84,8,11.14h0a20.19,20.19,0,0,1,12,4.25c11.92,9,19.08,20.89,20.68,35.9,1.39,2.27,3.14,2.4,5.17.89,2.66-11.11,10.35-16.66,20.94-19h0a41,41,0,0,0,1-5.3c.37-5.21,3.73-7.76,8.08-9.53.79-1.22-.19-1.72-.94-2.31-15.9-6.41-23-18.88-20-35.63a46,46,0,0,1,17-28.5c10.13-8.08,26.44-7.32,37.18.92,2.09,1.6,3.92,3,6.55,1.33h0c-1.82-8.22,1.75-14.17,8-19-.74-1.95-2.51-.61-3.69-1.15a14.71,14.71,0,0,1-8.8-.72c-1.73-.76-3.25-2-3.33-4-.07-1.84,1.86-2.16,3.11-2.81,13.11-6.82,21.84-17.54,27.61-30.9,4.71,4.74,4.82,4.81,1.38,10.65a42.53,42.53,0,0,0-4.86,32,8.33,8.33,0,0,1-1.91,8.11c-7.85,9.42-10.61,20.08-6.76,32.11,1.1,3.47,1.49,7.18,2.63,10.63,2.71,8.16,9.2,11.6,16.67,9.12s9.85-8.49,7.06-16.87c-2.76-2.47-5.87-3.83-9.56-2.55-3.27,1.13-3.57,2.78-.46,4.65,2.59-1.13,5.09-1.12,6.47,1.62s.37,5.21-1.76,7.22c-3.62,3.42-10.87,3.16-12.54-1.33-4.49-12.09-9.32-24.48-1.63-37.23.43-.71.76-1.64,1.41-2,7.55-4.59,5-11,3.89-17.71-2-11.74,1.16-22.25,10.19-30.56a3.12,3.12,0,0,0-.08-3c-8-10.13-12.32-21.23-8.93-34.27a5.59,5.59,0,0,0-1.08-5.47c-6.92-8.75-9.39-18.59-6.66-29.53a7.59,7.59,0,0,0-.61-4.8c-6-15.77-4.62-30.64,3.9-44.6h17.91a11.45,11.45,0,0,1-2.79,8.44c-7,8.79-8.87,18.82-6.41,29.65a28.53,28.53,0,0,1,.54,9.87c-1.41,11.87,2.21,21.71,12.19,28.7,2.32,1.62,2.86,3,1.75,5.72-5.44,13.29-4,25.76,5.26,37,1.9,2.31,1.63,3.84-.11,6a30.07,30.07,0,0,0-6.48,14.4A19.94,19.94,0,0,0,295.94,160c6.57,3.53,14.84,2,21.08-3.86,1.17-1.1,2.1-2.85,4.13-2,1.75.74,1.27,2.52,1.52,3.93,1,5.89,3.95,10.33,8.33,12.64v12.05a17.34,17.34,0,0,0-7-.63c-8.44.8-13.66,6.07-14.43,14.45-.2,2.15.74,5-2.64,5.64-3.22.59-5-1.68-6.31-4-2.32-4.18-2.05-8.76-.3-13,1.23-3,2.5-6.15,4.73-8.69,0-.89,3.34-2.71-.61-2.46A117.82,117.82,0,0,0,277,178.94l3.65,1.88c9.27,3.78,16,27.07,10.14,35a6.36,6.36,0,0,1-4,2.8c-1.06,3.16-.24,4.34,3.16,3.16,1.92-.67,3.19-2.11,4.66-3.33.93-2.82,1.72-5.69,2.86-8.42.65-1.52-.45-5.19,2.52-4.1,2.31.85,7,.74,6,5.66-.59,2.73.42,5.23.87,7.81A26.72,26.72,0,0,0,310,222.6c2.42,1.79,4,1.41,4-2-3.17-2.33-4.65-5.32-2.83-9.06,1.92-4,5.17-6.67,9.69-6.76,5-.09,6.46,3.89,7.79,7.76a14.13,14.13,0,0,0,2.35-.42v15.49a22.33,22.33,0,0,1-6.34-2.18,2,2,0,0,0-1.91,1.11,23.33,23.33,0,0,1-1.39,8.74c-1.51,4.67-5.76,8-9,6.84-5.45-1.94-1.24-5.76-1.38-8.75-2.31-2.11-3.63-.13-5.09,1.24-1.05,4.46-1.32,8.74,3.53,11.27,4.07,2.11,11,.79,13-4.21s4.83-7.6,8.61-8.91v14.65c-4.16,4-4.17,6.78,0,10.4v21.42a46.29,46.29,0,0,0-6.63-5.25c-5-3.24-10.12-5.81-9.85-12.95a3,3,0,0,0-2.71-3.15c-2.36-.08-2.32,1.88-2.39,3.57.34,3.51-2.45,5.48-6,4.07-2.31-.91-4.6-2.13-3.8-5.38-1.14-1.75.24-4.42-2.26-5.72-7.21-3.75-9.45-10.25-9.62-17.82-.05-2.64-.69-4.6-3.89-4.37-4.52,1.16-8.23-.88-11.47-3.48a50.51,50.51,0,0,0-12.06-6.74c-8.46-3.65-12.09-10.1-11.29-19.4a10.14,10.14,0,0,0-.26-3.93c-6-17.86-26.48-28.24-43.7-17.61-12,7.44-15.51,21.53-8.44,33.77.48.84.81,1.78,1.21,2.67l2,2c3.5,1.4,6.48,3.86,10.37,4.53,10.13,1.73,20.05-5.41,20.71-15.13.77-11.3-8.21-17.31-20-13.41l-2,2c-2.83,8.29-2.28,10.34,4,15,2.85-.13,5.75-.23,3.13-4.32-3.19-.28-4.33-2.28-3.95-5.16s2.48-4.17,5.22-4.48c5.76-.64,10.33,5.21,9,11.44-1.82,8.35-12,12.34-20.06,7.85-9.14-5.12-11.54-17.86-5.1-27,5.67-8.05,16.54-11.48,26.24-8.28,10.37,3.42,17.19,12.53,17,22.52-.08,4.17.45,8.25,3,11.79,1.59,2.21,1.06,3.41-1.64,4.06a39.37,39.37,0,0,0-23,14.75,7.65,7.65,0,0,1-2.7,2.1c-8.38,4-12.27,11.05-12.6,20-.13,3.55-1.34,4.51-4.59,4.64-3.7.16-7.08,1.7-10.25,3.62-5.92,3.59-8.62,9.2-7.49,15.5a16.79,16.79,0,0,0,12.62,12.77,14.83,14.83,0,0,0,15.85-6.95c.89-1.43,2.74-3.29.54-4.72-1.92-1.25-2.76,1-3.75,2.25-4.16,5.14-8.38,6.65-13.44,4.66-4.37-1.71-7.18-4.87-7.7-9.59s1.72-8.22,5.94-10.58c7.19-4,13.74-3.62,19.66,2.08,5.34,5.15,8.45,11.44,7.65,19.16.14,1.47.07,3.21,2.21,3.13,1.92-.08,2.11-1.76,2.47-3.19a50.6,50.6,0,0,0-.67-6.42c-1.16-5.1-4.54-10.58,3.7-13.24,1.32-.42,2-2.91,2.95-4.45,0-1.86,1.47-4.19-.81-5.42-2.13-1.15-2.71,1-3.46,2.43-1.08,5.11-3.11,6.51-7.81,5.37-5.58-1.35-9.13-6-9.15-12a15.22,15.22,0,0,1,11.15-15l2.83-2.31c6.56-12.28,23.28-17.58,35.64-11.88,6.68,3.08,12.47,19.82,5.37,24.91-.76,1.61.47,2.71,1.05,4q6.94,7.18,3,16.37c-3.81,8.91-17.6,17.34-28.11,9.13-2.44-.77-5.21-2.24-5.1,2.41,1.29,13.45-7.69,21.08-20.78,17.59-1.61-.43-3.29-1.37-4.71,0-3.51,3.31-7.37,2.68-11.61,1.85C187.26,301.22,177.29,306.6,173.05,318Zm75.8-47.33c3.85,2,8.78,1.14,10.74-1.95a5.38,5.38,0,0,0,0-6.1c-1.17-1.88-2.64-1.65-4.11-.25,0,1.53,1.12,3.41-1,4.39-1.91.9-3.5-.1-5-1.27-5.12-4.07-6.36-14.12-2.46-19.34a5.11,5.11,0,0,1,4.72-2c1.52.17.94,2.12,1,3.38,1.8,1.53,3.37,1.34,4.38-.81,1.27-2.69,1-5.3-1.57-7.06-3.42-2.32-6.71-1.12-9.6,1.17C237.5,247.49,239.28,265.63,248.85,270.67Zm-94-205.94c2.61,3.23,4.45,1.49,6.18-1q1-6,2-12.1c-1.16-1.87-2.07-4.46-4.9-1.79A26.85,26.85,0,0,1,154.81,64.73Z"/><path class="cls-1" d="M8.51,75.22c2,3.68,5.47,3.41,8.61,3.92,2.31.37,2.38-1.89,2.61-3.47A62.4,62.4,0,0,1,23,62.1c4.72-12.3,13.13-20.87,26-24,5.46-1.34,8.94-4.39,12.23-8.53,10.92-13.77,25.08-20.36,42.6-16.77C129.43,18,144,51.25,131.16,74c-1.6,2.81-2.77,5.72-1.17,8.85,3.06,6,1.07,10.91-3.09,15.35s-9.21,7.13-14.72,9.15c-2.65,1-3.9,2.27-4.22,5.27A47.91,47.91,0,0,1,89.1,146.51c-2.18,1.71-3.18,3.07-2.38,6.16,2.85,10.93-1.23,20.82-10.66,27.29-1.56,1.08-4,1.7-3.54,4.27.4,2.23,2.75,2.15,4.37,2.78,11.94,4.61,17.7,14.27,18.89,26.07.87,8.58,5.9,15.91,5.79,24.55,0,1.34,1.19,2,2.29,2.37,4.9,1.72,8,5.29,10,9.85a4.16,4.16,0,0,0,4.34,2.63c17.59-.4,30.72,15.91,26,36.5-1.7,7.46-.75,11.82,5.85,15.15,1.45.74,2.58,2.1,4,3a5.88,5.88,0,0,0,2.74,1c1.56.08,9.74-9.88,9.58-11.49s-1.4-2.13-2.84-2.13a20.07,20.07,0,0,0-7.82,1.29c-1.66.09-3.27.13-2.87-2.32,3.34-8.37,2.75-16.89.46-25.3-3.86-14.21-15.56-24.41-28.57-25.33-1.44-.62-3.13-.78-4.15-2.19-.54-3.92-2.15-7.5-5.25-9.79s-4.12-5.25-4.84-8.74c-1.92-9.39-3.61-18.86-7.76-27.63-3.21-6.8-8.17-11.11-16-11.43l-2.38-.92L86,180.68c10.22-5.49,14.39-14.37,11.4-25.37-.82-3-.26-4.9,1.84-7,7.41-7.48,13.29-15.82,13.85-26.86a3.92,3.92,0,0,1,3.69-4,6.58,6.58,0,0,0,1-.25c18.22-5.32,25.5-16.05,22.75-34.6a27.2,27.2,0,0,1,1.68-14.43c7.59-20,.19-42.42-18.12-56.23S84.8-2,66.77,11.42C61,15.71,56.87,22,51.24,26.08,45.86,30,38.07,29.89,32,33.51,20.44,40.4,13.5,50,13.26,63.81l-.78,2.54-2.31-2.23C8.8,59,5.4,56.25.17,55.69c-.06-.46-.11-.91-.17-1.37V67.21a22.18,22.18,0,0,1,2,1.21A19.68,19.68,0,0,1,8.51,75.22Z"/><path class="cls-1" d="M42.65,5.11Q44.6,2.48,46.7,0H29.06C30,2.52,31,5.27,32.2,7.9,32.67,8.92,41.53,6.63,42.65,5.11Z"/><path class="cls-1" d="M158.23,20.52c1,2.27,1.55,5.61,3.3,6.49,2.61,1.31,3.5-2.66,5.49-3.86a12.79,12.79,0,0,1,1.37-.58c2.93-1.39,3.79-3.48,3.35-6.84A34.9,34.9,0,0,1,172.89,0H160l-.76.46L158.71,0H143.28A61.42,61.42,0,0,1,158.23,20.52Z"/><path class="cls-1" d="M52.8,118c5.55.11,11.43-4.5,11.89-9.45.25-2.69-.45-5.12-3.35-6-2.54-.74-3.71,1-4.18,3.13s-2,2.42-3.75,2.19a4.47,4.47,0,0,1-4.08-3.76c-.39-1.59.51-4.17-2.43-4-2.4.12-3.79,1.88-4.7,4C39.47,110.26,45.25,117.84,52.8,118Z"/><path class="cls-1" d="M5.4,7.2C2.93,4.86,2.35,2.79,3.12,0H0V19.12A17,17,0,0,1,1.91,33.78,12.73,12.73,0,0,1,0,37.5v14C14.55,42.94,17.68,18.78,5.4,7.2Z"/><path class="cls-2" d="M239.9,0H248a24.5,24.5,0,0,1-4.75,2.79,49.46,49.46,0,0,1-18.76,4.67c2.4,2.08,4.08,3.37,5.57,4.85,12.15,12.12,15.86,26.83,13.25,43.46C243,58,242,60.23,244.65,62c4,2.61,7.8,5.51,12,8.54-.88-6-1.72-11.65-.71-17.21.75-4.12,0-7.73-1.15-11.62-4.39-14.5-2.47-28.37,4.28-41.7h5.12c-8.52,14-9.92,28.83-3.9,44.6a7.59,7.59,0,0,1,.61,4.8c-2.73,10.94-.26,20.78,6.66,29.53a5.59,5.59,0,0,1,1.08,5.47c-3.39,13,1,24.14,8.93,34.27a3.12,3.12,0,0,1,.08,3c-9,8.31-12.16,18.82-10.19,30.56,1.13,6.72,3.66,13.12-3.89,17.71-.65.4-1,1.33-1.41,2-7.69,12.75-2.86,25.14,1.63,37.23,1.67,4.49,8.92,4.75,12.54,1.33,2.13-2,3.1-4.54,1.76-7.22s-3.88-2.75-6.47-1.62c-3.11-1.87-2.81-3.52.46-4.65,3.69-1.28,6.8.08,9.56,2.55,2.79,8.38.26,14.44-7.06,16.87s-14-1-16.67-9.12c-1.14-3.45-1.53-7.16-2.63-10.63-3.85-12-1.09-22.69,6.76-32.11a8.33,8.33,0,0,0,1.91-8.11,42.53,42.53,0,0,1,4.86-32c3.44-5.84,3.33-5.91-1.38-10.65-5.77,13.36-14.5,24.08-27.61,30.9-1.25.65-3.18,1-3.11,2.81.08,2,1.6,3.24,3.33,4a14.71,14.71,0,0,0,8.8.72c1.18.54,3-.8,3.69,1.15-6.25,4.83-9.82,10.78-8,19-2.63,1.7-4.46.27-6.55-1.33-10.74-8.24-27.05-9-37.18-.92a46,46,0,0,0-17,28.5c-3,16.75,4.14,29.22,20,35.63.75.59,1.73,1.09.94,2.31-4.35,1.77-7.71,4.32-8.08,9.53a41,41,0,0,1-1,5.3c-10.59,2.37-18.28,7.92-20.94,19-2,1.51-3.78,1.38-5.17-.89-1.6-15-8.76-26.87-20.68-35.9a20.19,20.19,0,0,0-12-4.25c-1.87-4.3-3.95-8.63-8-11.14-3-1.83-3.81-4.19-4.26-7.28-1.47-10.16-4.58-19.82-10.72-28.12-2.79-3.78-3.53-7.07-1.57-11.36a17.52,17.52,0,0,0,1.29-9.79c-.53-3.59.85-5.9,3.6-8a26.19,26.19,0,0,0,10.63-19c.36-4.26,2.12-6.35,6.33-7.43,6.62-1.71,12.28-5,14.45-12.22,2.54-.13,1.93,2.56,3.2,3.57,2,9,7.41,13.63,15.92,12.91a11.62,11.62,0,0,1,9,2.86c9.89,8,21.1,12.28,34,11.07,3.14.15,3,1.95,2.12,4.17a19.56,19.56,0,0,1-14.1,8.38c-2.28.29-4.92.52-3.58,4.23,1.2,3.3,3.2,3.28,5.87,2a39.9,39.9,0,0,1,33.82-.81c2,.85,3.83,1.08,4.95-1.44s1.22-4.32-1.58-5.81c-5-2.67-7.83-7-8.7-12.65l1-1.11c6.68.17,11.7-3.58,16.39-7.5,12-10,18.88-22.51,16.06-38.51-2.67-15.12-10.72-26.62-25.28-32.83a2.65,2.65,0,0,1-.54-2.74c2.9-6.62,3.08-13.59,2.26-20.58C237.21,20.24,221.36,6,202.7,7c-.91-1.62-4.29-.16-4-3.3.21-2.74,2.24-2.29,4-2.42a12.86,12.86,0,0,0,9.62.77A22.51,22.51,0,0,1,223.13,2,23.33,23.33,0,0,0,239.9,0ZM196.13,150.85c.13-1.72-1.62-1.87-2.83-2.29a62.15,62.15,0,0,1-18-9.64,10.73,10.73,0,0,0-8.21-2.64c-4.06.43-8.78-.19-11.11-3.35-5.78-7.83-11.78-6.22-18.41-1.89a1.25,1.25,0,0,1-.46.19c-3.27.64-4.53,2.86-5,6-.72,4.48-1.71,9.38-5,12.3-7.29,6.39-9.35,14.57-10.49,23.56-.36,2.84-.35,5.07,1.27,7.46,4.83,7.09,8.67,14.82,9.81,23.28,1,7.41,4.88,12.34,10.26,16.68v0c.28,2.11,1.2,4.12,3.23,4.63,6,1.5,10.58,5.37,15.69,8.39l2,2c4.63,6.68,9.49,13.2,12.65,20.78,1,2.43,2.66,2.86,4.6.89,3.8-3.86,8.44-6.39,13.18-8.87,5.12-2.67,6-12.43,1.69-16.11a32.85,32.85,0,0,1-11.47-19.35c-2.35-12.32.95-23.41,7.55-33.7s6.17-14.19-3.31-22.45a5.55,5.55,0,0,1,.95-4.58c2.65.25,5.29.6,7.94.69C194.1,152.85,196,152.86,196.13,150.85Z"/><polygon class="cls-2" points="244.58 172.42 244.58 172.42 244.58 172.42 244.58 172.42"/><polygon class="cls-2" points="195.75 251.44 195.74 251.44 195.74 251.44 195.75 251.44"/><path class="cls-2" d="M149.37,13.27c5.74,8.24,8.59,17.54,9.45,27.49C161,44.17,162.5,43,163.7,40a7,7,0,0,1,.42-6.65c6.78-11.25,25.14-16.94,38.72-11.94a29,29,0,0,1,19,32,24.35,24.35,0,0,1-28.61,20c-11.47-2.29-18.4-14.77-14.05-25.3a15,15,0,0,1,17.47-9c7.88,2.09,11.55,11.64,6.53,17.3-2.71,3.06-6.2,4.13-9.84,1.86-2.84-1.77-4-4.4-1.61-7.53.7-2,1.64-4.17-1.66-4.85-4.9,5.19-5.32,10.12-1.23,14.46s11,4.53,15.88.58A13.75,13.75,0,0,0,209.06,46a15.32,15.32,0,0,0-13.21-11.37c-14.06-2.08-25.14,11-21.59,25.35,2.23,9,8.21,14.59,16.92,17.42,6.27,2,6.27,2,4,8.13-5.66,15.43,4.11,30.3,19.19,29.22,10.78-.77,18-11.43,14.2-21-3.18-8.05-13.26-10.9-19.3-5.45-4.68,4.22-4.44,10,.6,14.6,3.37-.21,2.33-2.34,1.83-4.23-2.4-4.58-.15-8.62,4.9-8.79,5.46-.19,9.61,5.17,8.48,11a11.05,11.05,0,0,1-8.28,9.08,13.76,13.76,0,0,1-14.23-3.72c-4.81-4.8-6-10.73-4-17.06,2.37-7.47,7.75-12,15.41-13.31,18.21-3.15,32.16,13.43,27.08,32-5.94,21.76-33.66,29.11-52,13.75-4.4-3.69-8.57-7.48-5.68-14.28a7.92,7.92,0,0,0-.66-6.82c-3.13-5.25-3.72-11-4.88-16.86-1.87-9.42-11.76-13.82-19.12-9.23-4.77,3-6.37,8.67-3.58,12.93,2,3,4.79,4.2,8.19,3.08a4.31,4.31,0,0,0,3-5.48c-.75-2.39-2.53-1.19-4-.19a1.93,1.93,0,0,1-3-.61,3.91,3.91,0,0,1,.23-4.26c1.81-2.83,6.56-3.43,9.87-1.11a9.91,9.91,0,0,1,4.13,11c-.79,3.3-.51,5.41,2.24,7.76,3.31,2.84,3.68,7,2.34,11.07s-6.32,6.49-9.57,4.64c-1.55-.88-2.6-2.2-2.19-4.08.37-1.72,1.62-1.84,3.11-1.39,1.26.38,2.44.07,2.82-1.28.43-1.56-.77-2.47-1.87-3.19-3.41-2.21-8.12.4-8.89,4.89-1.08,6.33,4.9,11.94,11.82,10.13,4.55-1.19,6.86.29,9.73,3.34a38.33,38.33,0,0,0,41.68,9.77c20.64-8.06,28.18-33.85,14.76-50.32-5.23-6.41-12.42-9.22-20.48-11.06,4.76-8,8.47-16.06,7-25.55-3-20.06-21-32.23-42.38-28.62-7.42,1.25-9-.17-8.43-7.77a23.41,23.41,0,0,1,2-8.17h-4.52a34.9,34.9,0,0,0-1.15,15.73c.44,3.36-.42,5.45-3.35,6.84a12.79,12.79,0,0,0-1.37.58c-2,1.2-2.88,5.17-5.49,3.86-1.75-.88-2.28-4.22-3.3-6.49A61.42,61.42,0,0,0,143.28,0h-6A67.53,67.53,0,0,1,149.37,13.27Z"/><path class="cls-2" d="M27.43,14c1.85,4.42,3.73.17,5.6,0,.83-.52,1.65-1.47,2.49-1.47,7.23,0,10.61-5.13,14.71-10C51,1.62,51.69.8,52.43,0H46.7q-2.1,2.49-4.05,5.11c-1.12,1.52-10,3.81-10.45,2.79C31,5.27,30,2.52,29.06,0H23.11l0,.76C27.76,4.12,27.39,9.11,27.43,14Z"/><polygon class="cls-2" points="136.97 229.44 136.97 229.43 136.96 229.43 136.97 229.44"/><path class="cls-2" d="M37.94,156.66c4.94,1.41,9.35,2.49,11.93,8.18s10.67,7.15,16.24,4.37c5.19-2.59,7.57-8.13,5.7-13.38-.69-2-1.74-3.74-4-4-2.5-.25-4.11,1.19-4.86,3.44-.43,1.28.17,2.15,1.63,2.51,3.65.89,4.25,3.05,1.74,5.88-4.19,4.7-12.4,2.68-14.23-3.9-1-3.51-2.86-4.72-6-5.49a125.86,125.86,0,0,1-18.52-5.92c-10-4.13-18.39-10.07-23.53-19.86a8.22,8.22,0,0,0-4-3.42v6.41c2,2.21,3.93,4.6,5.87,7C14.09,148.62,25.8,153.19,37.94,156.66Z"/><polygon class="cls-2" points="106.9 147.61 106.9 147.61 106.9 147.61 106.9 147.61"/><path class="cls-2" d="M179.91,295.48c.24-.6.49-1.19.73-1.78-5.37-2.79-10.93-4.76-17.13-4.38-2.78.16-3.74-1.53-3.84-4.08a107.57,107.57,0,0,0-.71-11.92c-2.65-17.11-11.79-29-28.64-34.2-3.52-1.09-5.35-3.59-7.85-6-8.23-7.83-8.45-18.37-11.22-28.08-2.48-8.72-5.39-17.15-12.71-23.21a3.09,3.09,0,0,1-.76-4.42,30.66,30.66,0,0,0,4.46-22.89c-.65-3.45,2.19-5.22,4.66-6.93a3,3,0,0,1,2.16-2.75l.91-1.19a3.16,3.16,0,0,1,2-3v0c2.08-5.57,5.09-10.82,6-16.82.33-2.28,2.22-2.65,3.89-3.34,18.93-7.75,25.6-18.88,22.83-39A22.47,22.47,0,0,1,146.12,70c8.35-22.25.88-45.1-20-61.83A50,50,0,0,0,111.41,0H79.19a53.45,53.45,0,0,0-11.8,5.77,73.5,73.5,0,0,0-16,14.2,11.18,11.18,0,0,1-6.54,4c-10,2.22-17.58,6.63-28.89,16.22.35-2.59.68-4.76.91-6.94C18,22.8,16,13.06,9.51,4.56A6.64,6.64,0,0,1,8,0H3.12C2.35,2.79,2.93,4.86,5.4,7.2,17.68,18.78,14.55,42.94,0,51.51v2.81c.06.46.11.91.17,1.37,5.23.56,8.63,3.29,10,8.43l2.31,2.23.78-2.54C13.5,50,20.44,40.4,32,33.51c6.08-3.62,13.87-3.55,19.25-7.43C56.87,22,61,15.71,66.77,11.42c18-13.38,39.1-13.21,57.29.5s25.71,36.26,18.12,56.23a27.2,27.2,0,0,0-1.68,14.43c2.75,18.55-4.53,29.28-22.75,34.6a6.58,6.58,0,0,1-1,.25,3.92,3.92,0,0,0-3.69,4c-.56,11-6.44,19.38-13.85,26.86-2.1,2.12-2.66,4-1.84,7,3,11-1.18,19.88-11.4,25.37l-1.62,1.45,2.38.92c7.83.32,12.79,4.63,16,11.43,4.15,8.77,5.84,18.24,7.76,27.63.72,3.49,1.72,6.43,4.84,8.74s4.71,5.87,5.25,9.79c1,1.41,2.71,1.57,4.15,2.19,13,.92,24.71,11.12,28.57,25.33,2.29,8.41,2.88,16.93-.46,25.3-.4,2.45,1.21,2.41,2.87,2.32a20.07,20.07,0,0,1,7.82-1.29c1.44,0,2.68.39,2.84,2.13s-8,11.57-9.58,11.49a5.88,5.88,0,0,1-2.74-1c-1.39-.91-2.52-2.27-4-3-6.6-3.33-7.55-7.69-5.85-15.15,4.7-20.59-8.43-36.9-26-36.5a4.16,4.16,0,0,1-4.34-2.63c-2.05-4.56-5.14-8.13-10-9.85-1.1-.38-2.3-1-2.29-2.37.11-8.64-4.92-16-5.79-24.55-1.19-11.8-7-21.46-18.89-26.07-1.62-.63-4-.55-4.37-2.78-.46-2.57,2-3.19,3.54-4.27,9.43-6.47,13.51-16.36,10.66-27.29-.8-3.09.2-4.45,2.38-6.16A47.91,47.91,0,0,0,108,112.59c.32-3,1.57-4.29,4.22-5.27,5.51-2,10.65-4.81,14.72-9.15s6.15-9.36,3.09-15.35c-1.6-3.13-.43-6,1.17-8.85,12.88-22.72-1.73-56-27.33-61.21-17.52-3.59-31.68,3-42.6,16.77-3.29,4.14-6.77,7.19-12.23,8.53-12.91,3.17-21.32,11.74-26,24a62.4,62.4,0,0,0-3.23,13.57c-.23,1.58-.3,3.84-2.61,3.47-3.14-.51-6.66-.24-8.61-3.92A19.68,19.68,0,0,0,2,68.42a22.18,22.18,0,0,0-2-1.21v5a7.42,7.42,0,0,1,.65.88C5.58,81,13.33,83.31,21,86.26a10.67,10.67,0,0,1,2.05,1.35,3,3,0,0,0,.89-.08c.08-6.81-.05-13.62,1.82-20.3C30.06,52,40.42,42.81,56.15,41c3.23-.37,4.69-1.53,6.14-4.48,6.27-12.78,17.31-19.13,31-20.35,12.57-1.12,22.56,4.26,29.87,14.59,10.09,14.27,12.2,31.87.75,46.24-1.39,1.76-1.27,2.93.1,4.73,4.45,5.8,4.07,9.9-1.41,14.62-5.11,4.39-10.86,7.62-17.82,8a5,5,0,0,1-.82.29c.1,17.56-6.06,31.81-21.79,40.9-2.66,1.54-1.36,3.27-.69,5.08,4.78,13-1.24,24.53-14.75,28-4.18,1.07-8.39,2.09-12.77,2a5.67,5.67,0,0,0-.14,4.17,27.3,27.3,0,0,1,14.28,3.87,13.55,13.55,0,0,0,3.57,1.74c13.79,2.87,18.37,13.14,20.14,25.39.67,4.61.85,9.13,3.43,13.31,2.11,3.41,2,7.38.48,11.1-1.25,3.11-.07,4.72,2.94,4.45,7-.63,10,3.46,11.64,9.23.73,2.49,1.56,4.25,4.72,3.7,16.59-2.9,27.05,11.19,25.62,26.91a31,31,0,0,1-5,15l.42,1.93c9.45,3,15.71,10.29,22.71,16.61h.55l1.18-.8C162.75,306.17,170,299.59,179.91,295.48Z"/><path class="cls-2" d="M267.84,307c.16-14.52,8.91-27.93,22-32.05,14.53-4.57,26.47-4.59,39.13,8.79.74.79,1.42,1.59,2.07,2.41v-6.87a46.29,46.29,0,0,0-6.63-5.25c-5-3.24-10.12-5.81-9.85-12.95a3,3,0,0,0-2.71-3.15c-2.36-.08-2.32,1.88-2.39,3.57.34,3.51-2.45,5.48-6,4.07-2.31-.91-4.6-2.13-3.8-5.38-1.14-1.75.24-4.42-2.26-5.72-7.21-3.75-9.45-10.25-9.62-17.82-.05-2.64-.69-4.6-3.89-4.37-4.52,1.16-8.23-.88-11.47-3.48a50.51,50.51,0,0,0-12.06-6.74c-8.46-3.65-12.09-10.1-11.29-19.4a10.14,10.14,0,0,0-.26-3.93c-6-17.86-26.48-28.24-43.7-17.61-12,7.44-15.51,21.53-8.44,33.77.48.84.81,1.78,1.21,2.67l2,2c3.5,1.4,6.48,3.86,10.37,4.53,10.13,1.73,20.05-5.41,20.71-15.13.77-11.3-8.21-17.31-20-13.41l-2,2c-2.83,8.29-2.28,10.34,4,15,2.85-.13,5.75-.23,3.13-4.32-3.19-.28-4.33-2.28-3.95-5.16s2.48-4.17,5.22-4.48c5.76-.64,10.33,5.21,9,11.44-1.82,8.35-12,12.34-20.06,7.85-9.14-5.12-11.54-17.86-5.1-27,5.67-8.05,16.54-11.48,26.24-8.28,10.37,3.42,17.19,12.53,17,22.52-.08,4.17.45,8.25,3,11.79,1.59,2.21,1.06,3.41-1.64,4.06a39.37,39.37,0,0,0-23,14.75,7.65,7.65,0,0,1-2.7,2.1c-8.38,4-12.27,11.05-12.6,20-.13,3.55-1.34,4.51-4.59,4.64-3.7.16-7.08,1.7-10.25,3.62-5.92,3.59-8.62,9.2-7.49,15.5a16.79,16.79,0,0,0,12.62,12.77,14.83,14.83,0,0,0,15.85-6.95c.89-1.43,2.74-3.29.54-4.72-1.92-1.25-2.76,1-3.75,2.25-4.16,5.14-8.38,6.65-13.44,4.66-4.37-1.71-7.18-4.87-7.7-9.59s1.72-8.22,5.94-10.58c7.19-4,13.74-3.62,19.66,2.08,5.34,5.15,8.45,11.44,7.65,19.16.14,1.47.07,3.21,2.21,3.13,1.92-.08,2.11-1.76,2.47-3.19a50.6,50.6,0,0,0-.67-6.42c-1.16-5.1-4.54-10.58,3.7-13.24,1.32-.42,2-2.91,2.95-4.45,0-1.86,1.47-4.19-.81-5.42-2.13-1.15-2.71,1-3.46,2.43-1.08,5.11-3.11,6.51-7.81,5.37-5.58-1.35-9.13-6-9.15-12a15.22,15.22,0,0,1,11.15-15l2.83-2.31c6.56-12.28,23.28-17.58,35.64-11.88,6.68,3.08,12.47,19.82,5.37,24.91-.76,1.61.47,2.71,1.05,4q6.94,7.18,3,16.37c-3.81,8.91-17.6,17.34-28.11,9.13-2.44-.77-5.21-2.24-5.1,2.41,1.29,13.45-7.69,21.08-20.78,17.59-1.61-.43-3.29-1.37-4.71,0-3.51,3.31-7.37,2.68-11.61,1.85-13.24-2.58-23.21,2.8-27.45,14.2h4.42c3.22-7.68,11-11.81,20.89-10.23,5.28.83,10.37,2.51,15.24-1.3,1.23-1,2.91,0,4.36.25,12,2,20.52-3.26,23.84-15,.75-2.65,1.25-3.82,4.56-3,10.12,2.47,19-.66,25.56-8.43,6.21-7.36,6.05-15.9,1.32-24.21a5.22,5.22,0,0,1-.19-5.13,21.8,21.8,0,0,0,1.43-9.78c-.09-1.56-1.62-4.23,1.19-4.37,2.52-.13,6.45-.77,7.17,2.8a30.84,30.84,0,0,0,10.72,18.52c2,1.66,1.91,5.8,2.65,8.85.25,1.06-.83,1.26-1.58,1.53-1.56.58-3.12,1.17-4.7,1.69-13.59,4.47-22.42,13.44-25.23,27.59-1,5.08-3.71,7.58-8.46,8.26a7.63,7.63,0,0,0-4.89,3A33.06,33.06,0,0,1,239.7,318H248a41.47,41.47,0,0,0,5.63-4.86c1-1.06,1.91-2.34,3.61-2.45,1.35-.09,2.69-.19,3.59,1.11a2.88,2.88,0,0,1-.07,3.27c-.51,1-1.05,1.95-1.58,2.93h5.25l0,0C267.22,314.66,267.79,311.13,267.84,307Z"/><path class="cls-2" d="M91.34,289c3.2-6.53,3.18-6.52,8-1.09,3.67,4.13,8.05,6.94,13.79,7s11-1.66,14-7,2.4-11-.42-16.23c-3.73-6.93-11.45-6.93-17.2-.25,0,2.4-2.47,6.11,3,5.57a19.57,19.57,0,0,0,1.06-2.22c1.4-4.13,5.36-5.39,8.28-2.37s3.39,7.17,2.51,11.19c-.82,3.81-3.69,5.78-7.36,6.57-6.93,1.48-14.56-2.63-16.68-9.47-2.28-7.39-2-14.72,2.35-21.49a4,4,0,0,0-3.61-3.44,16.34,16.34,0,0,1-10.36,4.31A11.11,11.11,0,0,0,82,262.62l0,1.7c5.76,3,8.91,13.6,6,21.05-3.59,9.1-10.61,14.32-20,16-9.1,1.63-17.9.38-25.64-5.11-2.28-1.61-4.18-2.11-6.78-.83-3.07,1.51-6.42,1.41-9.73.65-1.17.36-1.13,1.32-1.1,2.26a21.66,21.66,0,0,1,.24,15,9.17,9.17,0,0,0-.66,4.65h5.28a51.15,51.15,0,0,1,.86-12.21c.69-4.42,5.59-7.64,9.65-5.55a118,118,0,0,0,11.27,5.17c3.59,1.39,3.35,3.6,1.09,6.11L46.62,318h5.61c9.07-10,21.1-15,35.24-16.12,19-1.48,35.11,4.93,49.25,16.12h6.48c-13.33-11.82-28.7-19.44-47.14-20.61C89.33,297,88.33,295.2,91.34,289Z"/><path class="cls-2" d="M308.31,78.76a35.21,35.21,0,0,1-3.07,10.34c-3.93,8.91-2,15.32,6.13,20.54a7.3,7.3,0,0,1,3.19,3.62c2.67,6.83,7.55,11.67,14,15A10.87,10.87,0,0,1,331,130v-5.21c-6.19-3.11-10.81-7.66-12.95-14.4a5.77,5.77,0,0,0-2.54-3.47c-9-5.57-10.07-10-4.84-19.23,1-1.72,2.11-3.25,1.86-5.5-.58-5.36,1.5-9.54,6.53-11.72,4.22-1.83,9-1.7,11.94,1V66.89l-.59-.28C320.48,62.27,309.57,68.08,308.31,78.76Z"/><path class="cls-2" d="M160,0h-1.25l.49.46Z"/><path class="cls-2" d="M11.79,175c8.42,12.41,20.78,11.71,27.5-1.47,0-2,1.81-4.51-.95-5.7-2.19-.95-2.49,1.46-3.26,2.8-.29,4.46-2.54,7.56-6.87,8.55a10.58,10.58,0,0,1-11-4c-2.81-3.51-2.17-7.47-.69-11.3.91-2.35,2.68-2.69,4.8-1.4,1.67-.78,2.54-2,1.93-3.88-3.84-2.07-8.69-1.44-12.17-4.7-1-.94-2.89-.54-4.27.26-1.19.68-2.35,1.59-2.06,3.08.34,1.75,1.71,1.68,3.14,1.24,3-.93,3.43,1.29,3.53,3.29.22,4.44-3.18,7-7.61,5.95A10.43,10.43,0,0,1,0,166v4.89a26.38,26.38,0,0,0,7.88,1.69A4.69,4.69,0,0,1,11.79,175Z"/><path class="cls-2" d="M0,146.62v0Z"/><path class="cls-2" d="M314.57,288.17c-7.56-3.64-18.09-1.84-24.56,4.38s-8.72,14.49-8,23.24c.06.76.09,1.49.1,2.21h4.3l-.15-1c-2-15,7.28-26.93,20.44-26.46,6.26.22,10.61,3.44,13.3,8.93,2.46,5,2.25,9.9-1.24,14.47a10.43,10.43,0,0,1-3.79,3.14,14.94,14.94,0,0,1-2.27.91H321a16.08,16.08,0,0,0,4.71-10.23A20.22,20.22,0,0,0,314.57,288.17Z"/><path class="cls-2" d="M304.62,311.56c.37-3.5,3.34-3.65,5.82-4.41.93-3.2-.74-3.88-3.43-3.48-5.93.89-8.1,5.66-6.24,13.66l.57.67h7.07a6.87,6.87,0,0,1-1.47-.76A5.64,5.64,0,0,1,304.62,311.56Z"/><path class="cls-2" d="M9.19,310.88C11.61,299.44,8.13,288.64,0,280.3v6.55a31.41,31.41,0,0,1,5,23.77c-.49,2.52-1.18,5-1.41,7.38H8.51A26.06,26.06,0,0,1,9.19,310.88Z"/><path class="cls-2" d="M0,208.49v3.29C.94,210.85.56,209.68,0,208.49Z"/><path class="cls-2" d="M3.67,194.71c.44,1.39-.45,3.77,2,3.74s2.4-2.25,2.52-4A33.49,33.49,0,0,0,8,190.58c-2.39-3.66-5-6.11-8-7.42v4.62C2.18,189.13,3.42,191.44,3.67,194.71Z"/><path class="cls-2" d="M0,19.12V37.5a12.73,12.73,0,0,0,1.91-3.72A17,17,0,0,0,0,19.12Z"/><path class="cls-2" d="M78.26,318h33.45A52.05,52.05,0,0,0,78.26,318Z"/><path class="cls-2" d="M1.59,259.79c-.51-.48-1-.94-1.59-1.4v-11.5c2.8-2.41,6.33-3.56,9.55-2.4,11.76,4.23,19.14-5.73,28.75-8.25.37-.1.65-.73.88-1.16,7-13.14,18.74-16,32.25-14.33,3.76.46,4.44-1,4.26-4-.3-5.23-5.1-9.65-11.32-9.91a8.47,8.47,0,0,1-6.08-2.71c-6.74-6.68-12-7.32-20-2.69-4,2.26-5.43,6-3.63,9.08s5.14,3.32,9.49.66c3.94.87,3.3,2.86,1.28,5.2-6.22,1.87-11.39,1.11-16-4.27-2.92-3.41-7.38-1.37-8.18,3.1C19.1,227,11.69,233.14,0,232.21v-4.45c11.17,1.7,18.52-6.38,16.26-18.45a75.75,75.75,0,0,0-2.21-7.56c1.82-.76,3.36.2,5,.81,5.94,4.78,7.57,4.65,12.31-1,7.09-8.5,20.44-9.52,28.33-2a10.83,10.83,0,0,0,6.41,3.19C75.19,204,81.24,211.25,80,220.1a17.06,17.06,0,0,0,2.16,11.21c3.82,7.2,2.46,14.15-3.22,19.49-4.75,4.47-9.11,4.6-16.8.53l-.94-1q-1.07-1.94-2.14-3.87c-.45-3.73.9-6.46,4.53-7.77,2.47-.9,4.18-.3,4.32,2.69-1.45,1.27-4.79,1-3.87,4.17.76,2.63,3.06,3.86,5.64,4.31s4.87-.67,6.68-2.56c2.94-3.05,4.76-6.74,3.25-10.86-1.94-5.28-4.2-10.92-10.85-11.68-8.14-.92-15.78.76-21.93,6.62-3.16,3-4.17,6.48-1.91,10.77,2.47,4.68,4.42,9.63,6.6,14.47l-.06,1.9c-7,3.83-7.79,17.3-4.88,22.63a11.11,11.11,0,0,0,17.13,3.15,8.46,8.46,0,0,0,1-10.91c-2-2.47-4.26-3.11-6.73-.56-1.78.67-3.28.46-3.67-1.67-.3-1.64.84-2.77,2.14-3.47A22.61,22.61,0,0,1,60,266.48c7.1,1.64,10.53,5.4,10.68,11.71.15,6.12-3.93,10.88-10.74,12.55s-12.48-.6-16.51-6.32a19.69,19.69,0,0,1-3.81-10.08c-.26,4.78-2.78,8.52-7,10-5.76,2-10.6-.4-14-7,.46-2.41-1.65-6.28,3.44-6.05.32,1.61.59,3.24,1,4.84.66,2.81,2.56,4.18,5.37,4.34,2.56.14,4.55-.71,5.49-3.33,1.77-4.95-.65-13.21-4.84-16.41s-11.1-3.05-16,0c-2.11,1.29-3.07,5-5.5,4.32C5.19,264.36,3.53,261.61,1.59,259.79ZM5.2,257c1.74,2.62,3.49,1.17,5.44,0,12.41-7.21,25.6-1.19,28.58,13a18.55,18.55,0,0,1,.33,2.27,22.62,22.62,0,0,1,4.23-11.54c2.43-3.61,2.42-6.61.48-10.09-.89-1.6-1.71-3.24-2.44-4.92-1.9-4.42-5.27-5.29-8.79-2.62-7.48,5.69-15.35,8.31-24.7,5.67a5.45,5.45,0,0,0-6.4,2.89C.46,254.65,4,255.2,5.2,257Z"/><path class="cls-2" d="M161,63.77q1-6,2-12.1c-1.16-1.87-2.07-4.46-4.9-1.79a26.85,26.85,0,0,1-3.25,14.85C157.42,68,159.26,66.22,161,63.77Z"/><path class="cls-2" d="M322.75,226.58a23.33,23.33,0,0,1-1.39,8.74c-1.51,4.67-5.76,8-9,6.84-5.45-1.94-1.24-5.76-1.38-8.75-2.31-2.11-3.63-.13-5.09,1.24-1.05,4.46-1.32,8.74,3.53,11.27,4.07,2.11,11,.79,13-4.21s4.83-7.6,8.61-8.91v-5.15a22.33,22.33,0,0,1-6.34-2.18A2,2,0,0,0,322.75,226.58Z"/><path class="cls-2" d="M331,257.85v-10.4C326.84,251.45,326.83,254.23,331,257.85Z"/><path class="cls-2" d="M279.36,8.44c-7,8.79-8.87,18.82-6.41,29.65a28.53,28.53,0,0,1,.54,9.87c-1.41,11.87,2.21,21.71,12.19,28.7,2.32,1.62,2.86,3,1.75,5.72-5.44,13.29-4,25.76,5.26,37,1.9,2.31,1.63,3.84-.11,6a30.07,30.07,0,0,0-6.48,14.4A19.94,19.94,0,0,0,295.94,160c6.57,3.53,14.84,2,21.08-3.86,1.17-1.1,2.1-2.85,4.13-2,1.75.74,1.27,2.52,1.52,3.93,1,5.89,3.95,10.33,8.33,12.64v-5.09c-4-3.22-4.58-9.17-1.15-16.27.61-1.27,1.93-2.42.39-4-1.21-1.21-2.3-.8-3.59-.21-2.36,1.08-4.66,1.16-5.94-1.55-1.18-2.48-1.86-5.09,1.14-7,.26-2.3-.77-3.4-3.08-3.33-1.26.91-2.27,2.57-4.21,1.57-6.42-3.32-10,.59-13.36,5.19.14,2.22,0,4.85,3.43,2.5,1.46-2.22,2.87-5,6.05-4.12,3,.83,4.15,3.72,4.65,6.56.78,4.49-.55,8.35-4.59,10.7-4.46,2.6-9.26,2.92-13.65-.06-5.22-3.54-7.79-8.67-6.78-15,1.17-7.31,4.47-13.44,11.16-17.28l.18-1.66c-13.43-9.52-16.86-25.28-8.69-40.66,1.33-2.5,2.19-4.1-1.2-5.79-11.91-5.91-15.8-16-13.88-28.64a18.72,18.72,0,0,0-.45-7.85c-2.95-11.1-.81-21.19,6.81-29.79a8.88,8.88,0,0,0,2.28-8.5c0-.16,0-.32-.08-.48h-4.29A11.45,11.45,0,0,1,279.36,8.44Z"/><path class="cls-2" d="M316,3.57A19.87,19.87,0,0,0,321.07,0h-7.93a11.52,11.52,0,0,1-1.32.31A7.27,7.27,0,0,1,307.91,0H301.6C304.35,4.78,310.27,6.4,316,3.57Z"/><path class="cls-2" d="M324,182.15c-8.44.8-13.66,6.07-14.43,14.45-.2,2.15.74,5-2.64,5.64-3.22.59-5-1.68-6.31-4-2.32-4.18-2.05-8.76-.3-13,1.23-3,2.5-6.15,4.73-8.69,0-.89,3.34-2.71-.61-2.46A117.82,117.82,0,0,0,277,178.94l3.65,1.88c9.27,3.78,16,27.07,10.14,35a6.36,6.36,0,0,1-4,2.8c-1.06,3.16-.24,4.34,3.16,3.16,1.92-.67,3.19-2.11,4.66-3.33.93-2.82,1.72-5.69,2.86-8.42.65-1.52-.45-5.19,2.52-4.1,2.31.85,7,.74,6,5.66-.59,2.73.42,5.23.87,7.81A26.72,26.72,0,0,0,310,222.6c2.42,1.79,4,1.41,4-2-3.17-2.33-4.65-5.32-2.83-9.06,1.92-4,5.17-6.67,9.69-6.76,5-.09,6.46,3.89,7.79,7.76a14.13,14.13,0,0,0,2.35-.42v-5.33c-.14-.39-.3-.8-.47-1.25-3.25-3.61-7-5.92-12.15-5.3-2.85.35-3.76-1.35-4-3.83-.46-5.36,3.73-9.57,10-10a12.72,12.72,0,0,1,6.59,1v-4.66A17.34,17.34,0,0,0,324,182.15Z"/><path class="cls-2" d="M94.18,115.11a83.56,83.56,0,0,0,1.46-16.84c0-2.94.8-4.67,4.19-4.7a29.64,29.64,0,0,0,15.89-5.11c1.69-2.49,4.3-5.32-1.82-4.92-3.46,4.54-8.47,5.29-13.65,5.4-3.11.06-6.24-.2-9.36-.32-.11.65-.21,1.29-.32,1.93,1,8.31,1.05,16.6-.9,24.78-4.45,18.57-22.07,30.19-42.54,28.15-17.31-1.73-30.31-15.57-31.28-33.3a12.63,12.63,0,0,1,.12-1.49l-1-.93A9.3,9.3,0,0,1,7.55,106c-4-3.14-3.25-8.09,1.43-10.34.73-5-2.32-3.6-4.94-2.92-5.76,7.42-4.19,15,4.26,18.54,2.85,1.19,3.44,3,4.06,5.52,5,19.89,20.09,31.7,40,31.35C73.52,147.73,89.83,134.86,94.18,115.11Z"/><path class="cls-2" d="M320.74,83.69c3,4.25,2.45,5.94-2.73,9-.83,4.6,2.05,3.3,4.44,2.79A12.38,12.38,0,0,0,327,86.56C325.19,80.52,324.25,80.09,320.74,83.69Z"/><path class="cls-2" d="M326.6,14.47a23.55,23.55,0,0,0-21.06-1.65C295.71,16.59,292.11,25,291.63,35c-.12,2.44.4,4.87-.89,7.3-3.57,6.75-2.62,11.84,2.63,15.9,4.86,3.76,10,3.25,15.67-1.56,1.3-2.49,2.83-5.09-2.14-4.76-2.9,4.2-7,5.94-9.9,4.2-4.08-2.43-5.22-7.23-2.43-11.65,1.29-2,1.11-4.08,1.28-6.2.25-3.13-.5-6.26.36-9.41C299.91,15.4,312.32,13.8,322.42,17c4.87,1.56,7.37,6.63,7.18,12.43-.16,5.08-3.1,7.76-7.62,9.19-3.62,1.14-6.32.17-8.24-3.23-2.06-3.65-.1-5.48,2.79-7.16.78-.45,2.59-.6,1.55-2.35-.71-1.2-1.88-1.21-3.08-1.06-4.18.51-7.29,5.46-5.89,9.85,1.73,5.39,5.3,9.13,12.83,8.21A14.36,14.36,0,0,0,331,37.79V18.51A14.47,14.47,0,0,0,326.6,14.47Z"/><path class="cls-2" d="M182.16,236.47c-.23,4.68-3,6.67-7.37,7.07a49,49,0,0,0-6-11.95c-4.71-7.18-10.39-13.34-19.07-15.8l-1.94-2.2a13.9,13.9,0,0,0-7.88-8.09,2.45,2.45,0,0,0-.36-.81,78.39,78.39,0,0,0-9.91-29.06c0-1,0-2,.05-3.06,1.64-2.41,2-5.17,2.19-8h0c6.43-4.75,10.38-10.91,10.82-19,.94-1,.81-3.61,3.39-2.24,7,3.76,14.61,3.38,22.21,2.7,1.1-.1,2.45-.55,2.35,1.4-4.13,6.61-2.88,12.78,4.29,21.17.47,1.33,1.09,2.66.17,4-6.14,6-7.48,14-7.82,21.86C166.62,210.36,169.76,225.12,182.16,236.47Zm-17.94-78c-.29-1-.43-1.94-.71-2.9-.95-3.28-14-6.72-16.44-4.34a1.3,1.3,0,0,0-.28.41c-2.33,6-6.11,10.94-10.23,15.78-1.26,1.49-1.28,4-1.53,4.91-.27,3,.67,4.45,1.24,6,1.88,5.14,4.24,10.18,5.49,15.47,2.36,9.95,8.43,16.56,17.16,21.13,1.39.72,2.85,2.46,4.48,1.22s.54-3.14.33-4.71c-1.32-9.44-1.85-18.83.72-28.18C167.75,171.2,167.69,170,164.22,158.43Z"/><path class="cls-2" d="M42.87,135.24c15.4,7.89,35.81-4.05,39.19-21.53,1.63-8.44-.62-15.56-7.54-20.8-2.41-1.83-3-3.52-1.94-6.32,1.41-3.79,2-7.74.39-11.7-2.69-6.81-10.77-10.76-17.1-8.33-6,2.3-7.48,6.6-4.7,13.89l0,0a2.4,2.4,0,0,1,1.86,2.15c2.58,0,5.28.46,7.32-1.79-.25-1.7-1.14-2.74-2.94-2.74-2,0-3.14-.85-3.3-2.9s1-3.42,2.8-4.27c3.26-1.56,6.2-.62,8.82,1.45,3.14,2.46,4.58,5.73,3.5,9.68a31.32,31.32,0,0,1-2.53,6.41c-1.62,3-1.88,4.8,2.16,6.48,7.92,3.3,11,10.34,8.63,18.9C74.9,123.41,68.79,130,59,132.11c-9.37,2.06-17.53-.77-23.6-8.31-6.28-7.81-9.31-17.19-4-25.92,4.53-7.41,6.71-14,6.06-22.8C36.86,66.89,42.64,60.56,50.24,57c6.16-2.93,12.21-2.6,17.7,1.89L70,58.75A36.84,36.84,0,0,1,71.74,48C75.22,35.61,84.88,28.82,96.56,30.4c13,1.77,22.35,12.09,22.29,24.71A21,21,0,0,1,105.42,74.9C96.6,78.18,86.9,74.28,83.76,66,82,61.39,82.3,56.81,85.47,52.8a10.41,10.41,0,0,1,10.15-4.08c5.12.74,8.51,5.85,6.73,10.15-.89,2.16-2.49,3.62-4.94,3.52a3.34,3.34,0,0,1-3.47-3.5c-.08-1.64-.45-3.27-2.47-2.85-1.74.36-1.88,2.15-1.85,3.68A6.76,6.76,0,0,0,93.79,66c3,1.4,6.13,1.45,8.9-.77,3.54-2.83,5.21-6.5,4.22-11-1.09-5-4.36-8.17-9.21-9.55C87.39,41.78,77,51.44,78.38,62.63,80.19,77.63,97.6,85.27,111,77c10.58-6.57,14.86-19.36,10.52-31.46C116.92,32.63,103.26,24.23,90,26.18,77.61,28,70.81,35.91,67.31,47.28c-.77,2.48-1.24,4.87-4.89,4C48,47.66,29.85,62.59,33.11,81.82a9,9,0,0,1-2.2,8C20.06,103.35,22.83,125,42.87,135.24Z"/><path class="cls-2" d="M53.15,97.75a3.08,3.08,0,0,0,3.54.59c4-1.58,7.62-.84,10.3,2.52s2.9,7.31,1.24,11.28a17.45,17.45,0,0,1-15.8,10.23,16.26,16.26,0,0,1-13.66-8.67A12.26,12.26,0,0,1,39,100.48C42.33,95,48.12,93.82,53.15,97.75ZM52.8,118c5.55.11,11.43-4.5,11.89-9.45.25-2.69-.45-5.12-3.35-6-2.54-.74-3.71,1-4.18,3.13s-2,2.42-3.75,2.19a4.47,4.47,0,0,1-4.08-3.76c-.39-1.59.51-4.17-2.43-4-2.4.12-3.79,1.88-4.7,4C39.47,110.26,45.25,117.84,52.8,118Z"/><path class="cls-2" d="M248.85,270.67c3.85,2,8.78,1.14,10.74-1.95a5.38,5.38,0,0,0,0-6.1c-1.17-1.88-2.64-1.65-4.11-.25,0,1.53,1.12,3.41-1,4.39-1.91.9-3.5-.1-5-1.27-5.12-4.07-6.36-14.12-2.46-19.34a5.11,5.11,0,0,1,4.72-2c1.52.17.94,2.12,1,3.38,1.8,1.53,3.37,1.34,4.38-.81,1.27-2.69,1-5.3-1.57-7.06-3.42-2.32-6.71-1.12-9.6,1.17C237.5,247.49,239.28,265.63,248.85,270.67Z"/><path class="cls-2" d="M156.65,167.42c-1.7-1.24-3.54-2.71-5.31-1.18-2.41,2.09-6.78,4.19-5.82,7.42,2.79,9.45,1.2,20.1,7.71,28.5a2.33,2.33,0,0,0,3-1.46c.77-8.59,1.2-17.22,3.51-25.6C160.68,171.8,159.38,169.39,156.65,167.42Z"/></pattern></defs><title>Recurso 3</title><g id="Capa_2" data-name="Capa 2"><g id="Capa_1-2" data-name="Capa 1"><rect class="cls-3" width="1920" height="1000"/></g></g></svg>