<svg xmlns="http://www.w3.org/2000/svg" width="62" height="62" viewBox="0 0 62 62">
  <g id="_2519358" data-name="2519358" transform="translate(-1 -1)">
    <path id="Trazado_197" data-name="Trazado 197" d="M4.2,21.446,2.723,23.935l5.342,5.342,2.489-1.48c.317.147.638.281.956.4l.713,2.8h7.555l.713-2.8c.318-.119.639-.252.956-.4l2.489,1.48,5.342-5.342L27.8,21.447c.147-.317.281-.637.4-.956l2.8-.714V12.222l-2.8-.713c-.119-.319-.253-.639-.4-.957l1.479-2.489L23.935,2.721,21.446,4.2c-.317-.147-.638-.281-.956-.4L19.777,1H12.222L11.51,3.8c-.318.119-.639.252-.956.4L8.065,2.722,2.723,8.064,4.2,10.553q-.22.477-.4.957L1,12.223v7.555l2.8.713q.178.479.4.955ZM3,13.777l2.354-.6.168-.528a10.955,10.955,0,0,1,.7-1.683l.255-.493-1.246-2.1L8.379,5.236l2.1,1.246.492-.254a10.978,10.978,0,0,1,1.686-.7l.528-.169L13.777,3h4.445l.6,2.354.528.169a10.978,10.978,0,0,1,1.686.7l.492.254,2.095-1.246,3.143,3.143-1.246,2.1.255.493a11,11,0,0,1,.7,1.683l.168.528,2.354.6v4.445l-2.354.6-.168.528a11.006,11.006,0,0,1-.7,1.683l-.256.493,1.246,2.1-3.143,3.143-2.095-1.246-.492.254a10.978,10.978,0,0,1-1.686.7l-.528.169L18.223,29H13.778l-.6-2.354-.528-.169a10.978,10.978,0,0,1-1.686-.7l-.492-.254-2.1,1.246L5.236,23.622l1.246-2.1-.256-.493a11.006,11.006,0,0,1-.7-1.683l-.168-.528L3,18.223Z" fill="#fff"/>
    <path id="Trazado_198" data-name="Trazado 198" d="M16,25a9,9,0,1,0-9-9A9.01,9.01,0,0,0,16,25ZM16,9a7,7,0,1,1-7,7A7.008,7.008,0,0,1,16,9Z" fill="#fff"/>
    <path id="Trazado_199" data-name="Trazado 199" d="M58,53H29.764l-5.316,2.658a2.618,2.618,0,0,0,0,4.684L29.764,63H58a5,5,0,0,0,0-10ZM31,59H55v2H31Zm24-2H31V55H55ZM25,58a.615.615,0,0,1,.342-.553L29,55.618v4.764l-3.658-1.829A.615.615,0,0,1,25,58Zm33,3H57V55h1a3,3,0,0,1,0,6Z" fill="#fff"/>
    <path id="Trazado_200" data-name="Trazado 200" d="M53,15h-.142a3.981,3.981,0,0,0-7.716,0H33v2H45.142a3.981,3.981,0,0,0,7.716,0H53a8.009,8.009,0,0,1,8,8v6a8.009,8.009,0,0,1-8,8H49.858a3.981,3.981,0,0,0-7.716,0H35.858a3.981,3.981,0,0,0-7.716,0H21.858a3.981,3.981,0,0,0-7.716,0H11a10,10,0,0,0,0,20H21V57H11a8,8,0,0,1,0-16h3.142a3.981,3.981,0,0,0,7.716,0h6.284a3.981,3.981,0,0,0,7.716,0h6.284a3.981,3.981,0,0,0,7.716,0H53A10.011,10.011,0,0,0,63,31V25A10.011,10.011,0,0,0,53,15Zm-4,3a2,2,0,1,1,2-2A2,2,0,0,1,49,18ZM18,42a2,2,0,1,1,2-2A2,2,0,0,1,18,42Zm14,0a2,2,0,1,1,2-2A2,2,0,0,1,32,42Zm14,0a2,2,0,1,1,2-2A2,2,0,0,1,46,42Z" fill="#fff"/>
    <path id="Trazado_201" data-name="Trazado 201" d="M33,22H47v2H33Z" fill="#fff"/>
    <path id="Trazado_202" data-name="Trazado 202" d="M33,26H47v2H33Z" fill="#fff"/>
    <path id="Trazado_203" data-name="Trazado 203" d="M41,30h2v2H41Z" fill="#fff"/>
    <path id="Trazado_204" data-name="Trazado 204" d="M37,30h2v2H37Z" fill="#fff"/>
    <path id="Trazado_205" data-name="Trazado 205" d="M45,30h2v2H45Z" fill="#fff"/>
    <path id="Trazado_206" data-name="Trazado 206" d="M33,30h2v2H33Z" fill="#fff"/>
    <path id="Trazado_207" data-name="Trazado 207" d="M17,48h2v2H17Z" fill="#fff"/>
    <path id="Trazado_208" data-name="Trazado 208" d="M13,48h2v2H13Z" fill="#fff"/>
    <path id="Trazado_209" data-name="Trazado 209" d="M5,48H7v2H5Z" fill="#fff"/>
    <path id="Trazado_210" data-name="Trazado 210" d="M9,48h2v2H9Z" fill="#fff"/>
  </g>
</svg>
