<svg xmlns="http://www.w3.org/2000/svg" width="73.087" height="73" viewBox="0 0 73.087 73">
  <g id="_3190591" data-name="3190591" transform="translate(0 -0.304)">
    <path id="Trazado_182" data-name="Trazado 182" d="M66.722,212.3a1.077,1.077,0,0,0-1.077,1.077V228.93H59.232V217.555a5.074,5.074,0,0,0-5.061-5.076H51.412a5.074,5.074,0,0,0-5.061,5.076V228.93H40.385v-9.879a5.074,5.074,0,0,0-5.061-5.076H32.565a5.074,5.074,0,0,0-5.061,5.076v9.879H21.538v-4.795a5.074,5.074,0,0,0-5.061-5.076H13.718a5.074,5.074,0,0,0-5.061,5.076v4.795H2.244v-5.067a1.077,1.077,0,0,0-2.154,0v6.144s0,.005,0,.008v4.807A5.979,5.979,0,0,0,6.054,240.8H27.8v6.52H17.733a2.9,2.9,0,0,0-2.893,2.893v1.751a2.9,2.9,0,0,0,2.893,2.893H50.156a2.9,2.9,0,0,0,2.893-2.893v-1.751a2.9,2.9,0,0,0-2.893-2.893H40.087V240.8H61.835a5.979,5.979,0,0,0,5.963-5.982V213.381A1.077,1.077,0,0,0,66.722,212.3ZM48.5,217.555a2.918,2.918,0,0,1,2.907-2.922h2.759a2.918,2.918,0,0,1,2.907,2.922V228.93H48.5Zm-18.847,1.5a2.918,2.918,0,0,1,2.907-2.922h2.759a2.918,2.918,0,0,1,2.907,2.922v9.879H29.658Zm-18.847,5.085a2.918,2.918,0,0,1,2.907-2.922h2.759a2.918,2.918,0,0,1,2.907,2.922v4.795H10.811Zm40.084,26.083v1.751a.74.74,0,0,1-.739.739H17.733a.74.74,0,0,1-.739-.739v-1.751a.74.74,0,0,1,.739-.739H50.156A.74.74,0,0,1,50.895,250.218Zm-12.962-2.893H29.956V240.8h7.977Zm27.711-12.5a3.823,3.823,0,0,1-3.809,3.828H6.054a3.823,3.823,0,0,1-3.81-3.828v-3.739h63.4Z" transform="translate(-0.077 -181.559)" fill="#fff"/>
    <path id="Trazado_183" data-name="Trazado 183" d="M41,178.771q.048,0,.1,0a1.077,1.077,0,0,0,.791-.346l3.446-3.733a1.077,1.077,0,1,0-1.583-1.461l-2.5,2.705-3.27-5.138a1.077,1.077,0,1,0-1.817,1.156l4.021,6.318A1.078,1.078,0,0,0,41,178.771Z" transform="translate(-30.828 -145.589)" fill="#fff"/>
    <path id="Trazado_184" data-name="Trazado 184" d="M108.076,132.054a1.075,1.075,0,0,0,.837-.4l2.96-3.643,1.741,1.838a1.077,1.077,0,1,0,1.564-1.481l-2.585-2.728a1.077,1.077,0,0,0-1.618.062l-3.733,4.595a1.077,1.077,0,0,0,.835,1.756Z" transform="translate(-91.636 -107.053)" fill="#fff"/>
    <path id="Trazado_185" data-name="Trazado 185" d="M175.927,130.184a1.077,1.077,0,0,0-1.7,1.322l2.01,2.585a1.077,1.077,0,0,0,.835.416h.015a1.077,1.077,0,0,0,.831-.392l6.749-8.185c.015-.018.028-.037.042-.057l.55,1.59a1.077,1.077,0,0,0,2.036-.7L186,123.026a1.077,1.077,0,0,0-1.189-.711l-4.451.718a1.077,1.077,0,1,0,.343,2.126l2.083-.336-5.676,6.884Z" transform="translate(-149.016 -104.48)" fill="#fff"/>
    <path id="Trazado_186" data-name="Trazado 186" d="M73.087,12.6a12.249,12.249,0,0,0-24.5-.222H5.8A5.793,5.793,0,0,0,.013,18.162L0,37.134a1.077,1.077,0,0,0,1.076,1.078h0a1.077,1.077,0,0,0,1.077-1.076l.013-18.973A3.637,3.637,0,0,1,5.8,14.529H48.738a12.283,12.283,0,0,0,12.1,10.361,12.145,12.145,0,0,0,4.731-.955v3a1.077,1.077,0,1,0,2.154,0V22.76A12.3,12.3,0,0,0,73.087,12.6Zm-2.211-1.077H61.413l-5.264-7.9a10,10,0,0,1,4.688-1.163A10.127,10.127,0,0,1,70.876,11.521ZM50.739,12.6a10.138,10.138,0,0,1,3.623-7.773l5.243,7.868-3.982,8.585a10.152,10.152,0,0,1-4.884-8.68Zm10.1,10.14a10.01,10.01,0,0,1-3.263-.546l3.95-8.516h9.352a10.127,10.127,0,0,1-10.04,9.063Z" fill="#fff"/>
  </g>
</svg>
