<svg xmlns="http://www.w3.org/2000/svg" width="64.008" height="62" viewBox="0 0 64.008 62">
  <g id="_2597460" data-name="2597460" transform="translate(-44.001 -47.327)">
    <path id="Trazado_189" data-name="Trazado 189" d="M88.227,208.674a4.227,4.227,0,1,0,4.227,4.227A4.232,4.232,0,0,0,88.227,208.674Zm0,6.039a1.812,1.812,0,1,1,1.812-1.812A1.813,1.813,0,0,1,88.227,214.713Z" transform="translate(-27.922 -112.632)" fill="#fff"/>
    <path id="Trazado_190" data-name="Trazado 190" d="M93.006,53.825a1.207,1.207,0,0,0,1.708,0l1.365-1.365,1.365,1.365a1.208,1.208,0,0,0,1.708-1.708l-1.365-1.365,1.365-1.365a1.208,1.208,0,1,0-1.708-1.708l-1.365,1.365L94.714,47.68a1.208,1.208,0,1,0-1.708,1.708l1.365,1.365-1.365,1.365a1.207,1.207,0,0,0,0,1.708Z" transform="translate(-33.962)" fill="#fff"/>
    <path id="Trazado_191" data-name="Trazado 191" d="M78.846,118.534l-8.154-13.285a1.21,1.21,0,0,0-1.03-.575h-16.3a1.21,1.21,0,0,0-1.03.575l-8.154,13.285a1.213,1.213,0,0,0,0,1.264l8.154,13.285a1.21,1.21,0,0,0,1.03.575h16.3a1.21,1.21,0,0,0,1.03-.575L78.846,119.8A1.213,1.213,0,0,0,78.846,118.534Zm-9.86,12.709H54.039l-7.413-12.077,7.413-12.077H68.987L76.4,119.166Z" transform="translate(0 -40.033)" fill="#fff"/>
    <path id="Trazado_192" data-name="Trazado 192" d="M148.333,81.084a1.21,1.21,0,0,0,1.03.575h16.3a1.21,1.21,0,0,0,1.03-.575L174.846,67.8a1.213,1.213,0,0,0,0-1.264l-8.154-13.285a1.21,1.21,0,0,0-1.03-.575h-16.3a1.21,1.21,0,0,0-1.03.575l-8.154,13.285a1.213,1.213,0,0,0,0,1.264Zm1.705-25.994h14.948L172.4,67.166l-7.413,12.077H150.039l-7.413-12.077Z" transform="translate(-67.015 -3.733)" fill="#fff"/>
    <path id="Trazado_193" data-name="Trazado 193" d="M166.692,157.249a1.21,1.21,0,0,0-1.03-.575h-16.3a1.21,1.21,0,0,0-1.03.575l-8.154,13.285a1.213,1.213,0,0,0,0,1.264l8.154,13.285a1.21,1.21,0,0,0,1.03.575h16.3a1.21,1.21,0,0,0,1.03-.575l8.154-13.285a1.213,1.213,0,0,0,0-1.264Zm-1.705,25.994H150.039l-7.413-12.077,7.413-12.077h14.948l7.413,12.077Z" transform="translate(-67.015 -76.333)" fill="#fff"/>
    <circle id="Elipse_45" data-name="Elipse 45" cx="1.208" cy="1.208" r="1.208" transform="translate(50.039 53.772)" fill="#fff"/>
    <path id="Trazado_194" data-name="Trazado 194" d="M93.662,128.674a1.207,1.207,0,0,0-1.208,1.208v4.831H86.415v-4.831a1.208,1.208,0,1,0-2.415,0v13.285a1.208,1.208,0,0,0,2.415,0v-6.039h6.039v6.039a1.208,1.208,0,0,0,2.415,0V129.882A1.207,1.207,0,0,0,93.662,128.674Z" transform="translate(-27.922 -56.787)" fill="#fff"/>
    <path id="Trazado_195" data-name="Trazado 195" d="M189.662,180.674a1.207,1.207,0,0,0-1.208,1.208v4.831h-6.039v-4.831a1.208,1.208,0,1,0-2.415,0v13.285a1.208,1.208,0,0,0,2.415,0v-6.039h6.039v6.039a1.208,1.208,0,0,0,2.415,0V181.882A1.207,1.207,0,0,0,189.662,180.674Z" transform="translate(-94.937 -93.086)" fill="#fff"/>
    <path id="Trazado_196" data-name="Trazado 196" d="M180.245,92.373h4.8a4.249,4.249,0,0,0,4.245-4.245V80.918a4.249,4.249,0,0,0-4.245-4.245h-4.8A4.249,4.249,0,0,0,176,80.918v7.211A4.249,4.249,0,0,0,180.245,92.373Zm-1.829-11.456a1.832,1.832,0,0,1,1.829-1.829h4.8a1.832,1.832,0,0,1,1.829,1.829v7.211a1.832,1.832,0,0,1-1.829,1.829h-4.8a1.832,1.832,0,0,1-1.829-1.829Z" transform="translate(-92.145 -20.486)" fill="#fff"/>
  </g>
</svg>
