<svg xmlns="http://www.w3.org/2000/svg" width="79.015" height="53.586" viewBox="0 0 79.015 53.586">
  <g id="_3211152" data-name="3211152" transform="translate(0 -82.391)">
    <path id="Trazado_187" data-name="Trazado 187" d="M79.006,91.33c-.3-5.226-11.984-7.79-18.988-8.859a5.824,5.824,0,0,0-6.66,5.679l-.08,10.939c-4.329.408-8.981.622-13.772.622-1.38,0-2.772-.018-4.138-.054a1.157,1.157,0,1,0-.061,2.314c10.816.333,23.445-.665,31.589-2.712q6.8-1.656,9.8-3.912v30.136c0,.293-.154,1.018-1.4,1.963L62.87,106.118a1.172,1.172,0,0,0-2.144.037l-3.469,6.43a1.157,1.157,0,0,0,2.037,1.1l2.55-4.727L73.3,128.625c-4.516,2.043-8.873,2.913-14.91,3.819l-4.909-7.988,3.243-6.011a1.157,1.157,0,0,0-2.037-1.1l-2.606,4.83-1.327-2.16a1.157,1.157,0,0,0-.983-.551h0a1.158,1.158,0,0,0-.983.546l-8.48,13.646c-1.282.012-2.577,0-3.847-.025l-16.4-27.645a1.157,1.157,0,0,0-1.946-.069L3.365,127.153a2.441,2.441,0,0,1-1.05-1.67V95.332c6.024,3.931,13.527,4.859,22.048,5.942,1.784.186,3.625.34,5.507.457a1.157,1.157,0,0,0,.144-2.31q-2.317-.145-4.428-.345l-.083-10.9A5.826,5.826,0,0,0,18.827,82.5c-2,.309-3.9.665-5.646,1.059a1.157,1.157,0,1,0,.51,2.258c1.694-.383,3.541-.729,5.489-1.029a3.5,3.5,0,0,1,4.008,3.4l.081,10.647c-14.4-1.63-20.955-5.07-20.955-7.3,0-.505.454-2.31,6.29-4.309a1.157,1.157,0,1,0-.75-2.19C2.78,86.771.142,88.89.007,91.333A1.142,1.142,0,0,0,0,91.455v34.028c0,3.17,4.076,5.769,12.116,7.726,7.33,1.784,17.058,2.767,27.391,2.767,2.563,0,5.127-.061,7.621-.183a1.157,1.157,0,0,0-.113-2.312c-1.3.064-2.628.109-3.961.139l6.709-10.8,6.108,9.941q-1.71.2-3.513.356a1.157,1.157,0,0,0,.1,2.31c.034,0,.068,0,.1,0a82.351,82.351,0,0,0,18.522-3.419,22.684,22.684,0,0,0,4.661-2.083c2.172-1.329,3.27-2.815,3.27-4.442-.007-.166.013-34.009-.007-34.153Zm-73.7,37.084,13.675-19.7,14.739,24.838a109.135,109.135,0,0,1-21.058-2.6A33.438,33.438,0,0,1,5.307,128.414Zm61.042-31.4a88.215,88.215,0,0,1-10.755,1.838l.078-10.681a3.5,3.5,0,0,1,4-3.408c11.7,1.785,17.03,4.763,17.03,6.773C76.7,92.9,73.988,95.15,66.349,97.01Z" fill="#fff"/>
    <path id="Trazado_188" data-name="Trazado 188" d="M223.852,240.8a7.176,7.176,0,1,0-7.176,7.176A7.184,7.184,0,0,0,223.852,240.8Zm-12.037,0a4.861,4.861,0,1,1,4.861,4.861A4.867,4.867,0,0,1,211.815,240.8Z" transform="translate(-177.17 -127.894)" fill="#fff"/>
  </g>
</svg>
