<svg xmlns="http://www.w3.org/2000/svg" viewBox="0 0 1920 548.57"><defs><style>.cls-1{fill:#fff;}.cls-2{fill:#f9f9f9;}.cls-3,.cls-5,.cls-7{fill:#f3f3f7;}.cls-3{opacity:0.4;}.cls-4{fill:#f3f3f3;}.cls-5{opacity:0.7;}.cls-6{fill:#ededed;}</style></defs><title>Recurso 1</title><g id="Capa_2" data-name="Capa 2"><g id="Capa_1-2" data-name="Capa 1"><path class="cls-1" d="M1920,0H0V547H479c.27-265.7,215.74-481,481.5-481S1441.73,281.3,1442,547h478Z"/><path class="cls-1" d="M960.5,66C694.74,66,479.27,281.3,479,547H594c.54-202.23,164.64-366,367-366s366.45,163.77,367,366h114C1441.73,281.3,1226.26,66,960.5,66Z"/><path class="cls-2" d="M1442,547c-.27-265.7-215.74-481-481.5-481S479.27,281.3,479,547"/><path class="cls-3" d="M594,547c.54-202.23,164.64-366,367-366s366.45,163.77,367,366h114"/><path class="cls-3" d="M479,547H594"/><path class="cls-1" d="M960.36,296.17c138.88,0,251.54,112.16,252.39,250.83H1328c-.54-202.23-164.64-366-367-366S594.55,344.77,594,547H708C708.83,408.33,821.49,296.17,960.36,296.17Z"/><path class="cls-3" d="M960.36,296.17c138.88,0,251.54,112.16,252.39,250.83H1328c-.54-202.23-164.64-366-367-366S594.55,344.77,594,547H708C708.83,408.33,821.49,296.17,960.36,296.17Z"/><path class="cls-4" d="M1328,547c-.54-202.23-164.64-366-367-366S594.55,344.77,594,547"/><path class="cls-5" d="M594,547H708c.85-138.67,113.51-250.83,252.38-250.83S1211.9,408.33,1212.75,547H1328"/><path class="cls-6" d="M1212.75,547c-.85-138.67-113.51-250.83-252.39-250.83S708.83,408.33,708,547"/><path class="cls-7" d="M1212.77,548.57c0-.52,0-1.05,0-1.57"/><path class="cls-7" d="M708,547c0,.52,0,1,0,1.57"/></g></g></svg>