<svg xmlns="http://www.w3.org/2000/svg" width="22.769" height="18.5" viewBox="0 0 22.769 18.5">
  <g id="twitter" transform="translate(0 -48)">
    <g id="Grupo_19" data-name="Grupo 19" transform="translate(0 48)">
      <path id="Trazado_617" data-name="Trazado 617" d="M22.769,50.19a9.732,9.732,0,0,1-2.69.737,4.642,4.642,0,0,0,2.053-2.58,9.329,9.329,0,0,1-2.96,1.13A4.668,4.668,0,0,0,11.1,52.669a4.807,4.807,0,0,0,.108,1.064,13.213,13.213,0,0,1-9.621-4.883A4.669,4.669,0,0,0,3.02,55.09a4.61,4.61,0,0,1-2.109-.575v.051a4.689,4.689,0,0,0,3.74,4.587,4.659,4.659,0,0,1-1.224.154,4.127,4.127,0,0,1-.884-.08A4.712,4.712,0,0,0,6.9,62.478a9.379,9.379,0,0,1-5.788,1.991A8.742,8.742,0,0,1,0,64.405,13.141,13.141,0,0,0,7.161,66.5,13.194,13.194,0,0,0,20.447,53.217c0-.206-.007-.406-.017-.6A9.312,9.312,0,0,0,22.769,50.19Z" transform="translate(0 -48)" fill="#fff"/>
    </g>
  </g>
</svg>
